<svg version="1" xmlns="http://www.w3.org/2000/svg" width="933.333" height="933.333" viewBox="0 0 700.000000 700.000000"><path d="M0 350v350h700V0H0v350zM242.4 66.1c8.5 2.3 20.8 12.2 27.3 22 2.6 4 2.8 4.9 2.6 14.3-.1 11.3-.3 12.1-6.6 43.6-4.5 22.2-6.3 32.9-5 30 .3-.8 1.6-3.1 2.8-5 1.2-1.9 4.8-8.5 8-14.5 11.4-21.8 41.3-69.4 47.8-76.3 6.4-6.8 14-8.8 21.4-5.7 1.9.8 5.1 1.5 6.9 1.5 1.9 0 3.4.5 3.4 1.1 0 .7 3.5 4.4 7.7 8.4l7.7 7.2.4 7c.4 6.9.3 7.3-5.6 19.4-8.7 17.9-18.1 40.4-18.8 45.2-.4 2.3-1.1 4.7-1.6 5.3-.5.7-2.4 5.6-4.2 11-1.9 5.5-5.1 14.2-7.1 19.4-3.5 8.9-7.5 25.2-7.5 30.6 0 2.2.4 2.4 4.5 2.4 5.2 0 10.2-1.8 12.6-4.6 1.6-1.8 8.6-16.8 14.6-31.2l2.7-6.3-3.9-7.6c-2.9-5.9-3.9-9.2-4.3-14.4-.6-8.5-.6-8.5 18.6-10.9 8.1-1.1 24.6-3.7 36.7-5.9 34.4-6.2 34.3-6.2 38.1-4.6 4.9 2 12.5 9.4 14.7 14.4 3.9 8.7 0 17.2-8.4 18.6-6.8 1.1-23.5 5.3-32.1 8.1l-7.7 2.5-4.7 8.7c-2.6 4.8-5.7 10.3-6.9 12.2-3.9 6.4-3.9 6.8 1 9.1 4.5 2.1 7.9 5.8 10.8 11.8 2.1 4.2 2.1 5.4.1 9.4-3 6-7.4 9.5-14.3 11.7-21.3 6.6-19.5 5.6-23.4 12.4-5 8.6-9.9 20.5-10.1 24.1l-.1 3 6-.1c3.4-.1 15.5-2.4 27.7-5.3 11.9-2.8 23.2-5.1 25.1-5.1 4.2 0 9.7 2.2 15.4 6.1 4.3 3 4.7 3.7 5.8 10.1.3 2.1 1 3.8 1.4 3.8 1.1 0 .4 2.2 10.7-38.5 9-35.5 20.7-75.6 27.1-92.1 2.4-6.5 4.8-10.8 7-13.1 3.1-3 3.9-3.3 9.4-3.3 7.9 0 19.1 2.6 22.5 5.2 1.4 1.2 3.3 3.7 4.1 5.6 1.4 3.3 3.7 24.3 5.2 46.2l.7 10.5 1.8-6c2.8-9.1 17-47.9 21-57.4 2-4.6 4.7-10.2 6.1-12.3 2.4-3.6 2.8-3.8 7.8-3.8 8.8 0 20.1 7 22.2 13.8 1.2 4.1-5.7 22.6-12.4 33-6.7 10.5-19.8 42.2-24.1 58.2-1.1 4.1-2.8 10-3.9 13.1-1.1 3-3 12.9-4.1 22-2.2 17.3-4.3 23.9-8 25.9-5.5 2.9-23.3-1.8-27.3-7.2-1.6-2.1-2.2-5.1-2.8-14.5-.8-12.4-4.2-44.2-5.4-50.6-.4-2-1.1-3.7-1.5-3.7-.4 0-2.1 5.1-3.9 11.2-1.8 6.2-5.7 19.2-8.7 28.8-3 9.6-6.5 22.3-7.8 28.3-2.7 12-5.1 16.6-10.4 20.2-9 6.1-24.4 0-26.7-10.5-.4-1.6-.9-3-1.2-3-.2 0-3.6 1.4-7.3 3-3.8 1.7-12.7 4.6-19.7 6.5-7 1.9-14.1 4.1-15.8 4.9-1.6.8-5.2 1.7-8 2-2.7.3-7.2 1-10 1.6-8.2 1.8-34.9 1.6-42-.3-3.2-1-7.5-1.7-9.5-1.7-3.1 0-4-.6-7.4-5.1-6.4-8.5-7.9-13.2-7.3-21.3.3-3.9 1.7-10.2 3.1-14 1.4-3.7 2.4-7.2 2.1-7.6-.3-.4-2.5-1.1-4.9-1.4-4.5-.7-9.7-3.9-16.9-10.3-2-1.8-4.4-3.3-5.2-3.3-.8 0-1.5-.6-1.5-1.4 0-.8-2.5-4.2-5.5-7.5l-5.6-5.9 4-15.9c7.7-30.7 14.2-58.6 13.8-59.6-.9-2.8-28.4 46.6-35.7 64.3-1.3 3-3.5 8.2-5 11.5-2.7 5.9-5.3 15-8.5 29.5-1.7 8.2-2.6 9.7-6.8 12.5-2.2 1.4-4.9 1.8-12.5 1.9-11 .1-13.8-1-24.4-10l-5.6-4.7 2.3-6.2c2.8-7.4 4.9-20.7 7-44.8.8-9.8 1.5-18.3 1.5-19 0-2.5-11 21.3-14 30.3-1.8 5.2-5.4 13.6-8.1 18.6-5.5 10.2-6.9 16.4-4.9 22.4 1.1 3.3 1.1 4.4-.4 7.3-.9 1.9-1.6 4.6-1.6 5.9 0 4.8-4.6 17.2-9.3 25-1.6 2.7-3.9 8.5-5.2 13-1.3 4.6-2.8 9.6-3.4 11.1-.6 1.6-1 5.6-.9 9 .1 3.4-.3 7.1-.9 8.2-.6 1.1-1.8 5.5-2.7 9.8-3.2 15.6-6.2 18.3-19.5 17.5-7.8-.4-8.5-.7-15.2-5.3-9.7-6.6-10.5-8.1-8.9-15.3.7-3.1 2.9-11.3 5-18.2 2.1-6.9 8.2-27.4 13.5-45.5 11.9-40.9 16.7-56.8 26-86 4-12.7 7.8-25 8.5-27.5.6-2.5 2.4-7.2 4-10.5 1.5-3.3 5.6-13.9 9-23.5 3.4-9.6 7.2-19.8 8.5-22.5 1.3-2.8 2.5-6.4 2.7-8 .2-1.7 1.1-3.7 2-4.5.9-.8 6.4-12 12.2-24.8 10.4-23.3 12.3-26.6 16.1-28.3 2.4-1.1 16.3-.3 21.9 1.2zm288.8 294.6c8.4 8.5 10.3 13.4 10.3 26.3-.1 11.9-1.6 16.4-6.4 19.3-4.2 2.5-8.4 2.1-14.8-1.3-6.3-3.4-10-3.6-28-2-5.5.5-23.8 1.4-40.5 2-51.6 1.8-73.9 2.8-114.1 5.2l-38.8 2.2.8 2.6c.4 1.4.8 6.3.7 11-.1 12.2-1.6 16.1-29.4 74.9-5 10.6-11.5 25-14.5 32-2.9 6.9-9 20.4-13.4 30-4.5 9.6-9.7 21.5-11.7 26.5s-4.2 9.8-5 10.6c-1.7 2-5.8 11.2-8.4 19.1-2.7 8.3-8.6 16.9-11.6 16.9-5.4 0-18.2-2.3-22-3.9-6.2-2.8-15.4-14.9-15.4-20.5 0-1.6 2.9-9.5 6.4-17.5 3.5-8 6.7-15.7 7.1-17.1.4-1.4 2.8-6.8 5.3-12 2.4-5.2 5.7-12.9 7.2-17 1.6-4.1 4.6-11.6 6.8-16.5 2.2-5 5.4-13.1 7.2-18 1.8-5 4.7-12.4 6.6-16.5 1.8-4.1 8.2-19.9 14.3-35 6-15.1 12.6-31.4 14.6-36.3 2-4.8 3.3-9.2 3-9.7-.9-1.5-5.9-1.2-18.6 1.1-17 3-32.4 4.9-40.5 4.9-7.1 0-7.4-.1-10.8-3.6-2-2-4.6-5.7-5.8-8.3-2.1-4.2-2.2-5.8-2-19.6.3-18.5.8-19.6 9.8-20.7 34.7-4.1 72.7-6.6 126.9-8.3 10.5-.3 33.2-1.2 50.5-2 17.3-.8 45-1.9 61.5-2.6 16.5-.6 30.2-1.3 30.4-1.5.2-.2 17.6-.4 38.5-.4h38.2l5.6 5.7zm-18.6 67.4c6.9 2.6 15.2 9.2 17 13.5 1.6 3.9 1.9 11 .4 11.9-.6.4.4 3.1 2.4 6.8 4.4 7.9 6.6 16.9 6.6 27.5 0 21.8-8.5 41.6-28.3 65.4-9.8 11.8-16.3 17.3-25.2 21.5-5.6 2.6-6.9 2.8-18 2.7-13.8 0-25.3-2.6-32.9-7.5-5.3-3.3-11.7-11.6-18.4-23.8l-4.7-8.6v-10c.2-24.3 14-51.9 38.1-76.1 22.2-22.4 44-30.4 63-23.3zm-136.1 14c7.3 2.7 18.8 13.4 18.3 17-.2 1.8-1.3 2.6-4.1 3.4l-3.9 1.1 4.6 3.6c2.6 2 5.5 4.7 6.6 6.1 9.5 12.1 7 45.7-4.8 65.2-8.4 13.8-28.1 30.4-48.1 40.5-10.4 5.2-17.1 7-26 7-9.5 0-15.8-2.7-23.5-10-15-14.2-16.2-38.5-3.4-67.7 6.4-14.7 19-34.8 26.6-42.7 10.5-10.7 21-19.3 27.5-22.6 5.4-2.7 7-3 15.3-3 7 0 10.7.5 14.9 2.1z"/><path d="M503.8 458c-10.7 7.1-35.8 31.8-49.3 48.5-6.1 7.6-11.4 18.6-12.7 26.7-1 6.1-1 6.5 1.9 11.7 3.6 6.7 6.7 9.2 12.5 9.8 6.4.7 13.3-2.9 24.9-13.1 10.3-9 21.6-23 26.7-33.1 5.7-11.4 7.7-19.8 7.7-32.5 0-10.4-.2-11.9-2.5-15.9-1.4-2.5-3-4.6-3.6-4.8-.5-.2-3.1 1-5.6 2.7zM369.1 464c-10.8 5-15.7 10.2-34.6 37.3-11.8 16.9-13.8 20.4-17.7 31.7-2.8 8.3-3.2 10.8-3.3 20 0 6.6.5 11.3 1.2 12.7l1.3 2.1 5.2-2.5c2.8-1.3 7.4-4.3 10.1-6.6 6.8-5.7 26.7-28 29.5-33 1.2-2.2 2.9-4.8 3.6-5.6 2.2-2.5 7.3-13.2 9.6-20.1 3.7-11 4.3-16.2 2.5-22.8-.8-3.3-1.5-8.1-1.5-10.6s-.3-4.6-.7-4.6c-.5 0-2.8.9-5.2 2z"/></svg>