<?xml version="1.0" encoding="UTF-8" standalone="no"?>
<svg
   xmlns:dc="http://purl.org/dc/elements/1.1/"
   xmlns:cc="http://creativecommons.org/ns#"
   xmlns:rdf="http://www.w3.org/1999/02/22-rdf-syntax-ns#"
   xmlns:svg="http://www.w3.org/2000/svg"
   xmlns="http://www.w3.org/2000/svg"
   xmlns:sodipodi="http://sodipodi.sourceforge.net/DTD/sodipodi-0.dtd"
   xmlns:inkscape="http://www.inkscape.org/namespaces/inkscape"
   width="120mm"
   height="120mm"
   viewBox="0 0 120 120"
   version="1.1"
   id="svg8"
   inkscape:version="1.0.1 (3bc2e813f5, 2020-09-07)"
   sodipodi:docname="MenToo.svg">
  <defs
     id="defs2" />
  <sodipodi:namedview
     id="base"
     pagecolor="#ffffff"
     bordercolor="#666666"
     borderopacity="1.0"
     inkscape:pageopacity="0"
     inkscape:pageshadow="2"
     inkscape:zoom="0.7"
     inkscape:cx="395.27064"
     inkscape:cy="189.5498"
     inkscape:document-units="mm"
     inkscape:current-layer="layer1"
     inkscape:document-rotation="0"
     showgrid="false"
     fit-margin-top="0"
     fit-margin-left="0"
     fit-margin-right="0"
     fit-margin-bottom="0"
     inkscape:window-width="1680"
     inkscape:window-height="987"
     inkscape:window-x="-8"
     inkscape:window-y="-8"
     inkscape:window-maximized="1" />
  <metadata
     id="metadata5">
    <rdf:RDF>
      <cc:Work
         rdf:about="">
        <dc:format>image/svg+xml</dc:format>
        <dc:type
           rdf:resource="http://purl.org/dc/dcmitype/StillImage" />
        <dc:title></dc:title>
      </cc:Work>
    </rdf:RDF>
  </metadata>
  <g
     inkscape:label="图层 1"
     inkscape:groupmode="layer"
     id="layer1"
     transform="translate(-65.774051,-56.223233)"
     style="mix-blend-mode:normal">
    <rect
       style="fill:#5fbf44;stroke-width:0.529167;paint-order:markers fill stroke;fill-opacity:1"
       id="rect831"
       width="120.95238"
       height="121.33036"
       x="65.774048"
       y="55.845257" />
    <path
       style="fill:#ffffff;stroke-width:0.264583"
       d="m 99.823787,165.11763 c -2.595065,-0.31256 -3.034242,-0.54206 -4.233333,-2.21215 -1.158148,-1.61307 -1.166265,-1.72089 -0.274786,-3.65019 1.333262,-2.88539 1.729994,-3.81838 1.729994,-4.06845 0,-0.14356 0.535781,-1.36184 1.190625,-2.70729 0.654844,-1.34545 1.190625,-2.63946 1.190625,-2.87558 0,-0.23612 0.106945,-0.54241 0.237657,-0.68066 0.130712,-0.13824 0.558011,-1.08479 0.949561,-2.10344 0.39155,-1.01864 0.87992,-2.22726 1.08526,-2.68582 0.20535,-0.45855 0.37336,-1.00028 0.37336,-1.20385 0,-0.20356 0.10763,-0.48323 0.23919,-0.62147 0.13155,-0.13825 0.91324,-1.97776 1.73707,-4.08781 0.82383,-2.11006 1.6687,-4.21164 1.87748,-4.6702 0.20877,-0.45855 0.37959,-0.90151 0.37959,-0.98434 0,-0.0828 0.30444,-0.83875 0.67654,-1.67981 1.62695,-3.67742 1.60256,-3.51357 0.52308,-3.51357 -0.49524,0 -1.7119,0.16884 -2.70368,0.37521 -2.67371,0.55633 -6.879709,1.00796 -7.703031,0.82713 -0.482944,-0.10608 -0.982364,-0.57121 -1.511742,-1.40798 -0.752697,-1.18975 -0.788752,-1.37806 -0.753134,-3.93369 0.0485,-3.47941 0.13434,-3.62035 2.250646,-3.69507 0.924383,-0.0326 1.986669,-0.11694 2.360639,-0.18735 2.092162,-0.39388 11.140952,-0.95895 17.973182,-1.12235 2.69213,-0.0644 7.03791,-0.23403 9.65729,-0.37696 2.61937,-0.14295 7.20328,-0.3339 10.18645,-0.42435 2.98318,-0.0904 5.49303,-0.20598 5.57745,-0.25674 0.0844,-0.0508 3.04205,-0.11191 6.5725,-0.13591 l 6.41902,-0.0436 1.14933,1.12798 c 1.37362,1.34811 1.85559,2.93492 1.63393,5.37944 -0.11806,1.30203 -0.27893,1.73294 -0.82099,2.1992 -0.78948,0.67908 -2.05389,0.63426 -2.86704,-0.10163 -0.56623,-0.51243 -1.69516,-0.57701 -4.8319,-0.2764 -1.84912,0.1772 -5.56127,0.33054 -14.55209,0.60111 -2.61937,0.0788 -6.36984,0.26 -8.33437,0.40261 -1.96453,0.1426 -5.07976,0.32939 -6.92272,0.41508 l -3.35083,0.15581 0.27695,0.79447 c 0.48843,1.40111 0.0529,3.62731 -1.26226,6.45173 -0.67226,1.44375 -1.44127,3.10125 -1.70892,3.68333 -0.26765,0.58208 -1.21729,2.58813 -2.11031,4.45787 -0.89301,1.86975 -2.01777,4.37714 -2.49947,5.57197 -0.48169,1.19484 -1.00541,2.40348 -1.16381,2.68588 -0.15841,0.2824 -0.57933,1.16829 -0.93537,1.96866 -0.35604,0.80036 -1.07506,2.38055 -1.59781,3.51153 -0.52274,1.13098 -0.95045,2.22238 -0.95045,2.42535 0,0.20296 -0.1038,0.40871 -0.23067,0.45722 -0.31482,0.12036 -1.57751,2.93824 -1.68871,3.7686 -0.0495,0.36932 -0.34122,0.9605 -0.64835,1.31373 -0.30713,0.35324 -0.59918,0.80281 -0.64899,0.99906 -0.0721,0.28385 -0.46923,0.31119 -1.942653,0.13372 z m 18.289983,-8.90837 c -4.79557,-2.39362 -5.04712,-8.74396 -0.63395,-16.00397 0.70767,-1.16417 1.42987,-2.35479 1.6049,-2.64583 0.67268,-1.11856 4.12809,-4.33989 5.49766,-5.12522 1.22053,-0.69987 1.70615,-0.82331 3.24725,-0.82543 2.10211,-0.003 3.08537,0.38651 4.66992,1.84935 1.26969,1.17217 1.33724,1.93682 0.18283,2.06967 -0.73897,0.085 -0.73897,0.085 0.26684,0.81521 1.62097,1.17675 2.16385,2.69104 2.05224,5.72433 -0.18667,5.07304 -2.37444,8.59566 -7.36401,11.85707 -4.2729,2.79297 -7.13158,3.47879 -9.52368,2.28482 z m 2.0848,-2.90406 c -0.0923,-0.14927 0.0124,-0.19476 0.2438,-0.10597 0.68564,0.2631 3.01497,-1.74857 5.39532,-4.65956 0.53548,-0.65485 1.12242,-1.28584 1.30432,-1.40221 0.1819,-0.11637 0.33073,-0.34513 0.33073,-0.50834 0,-0.16321 0.16651,-0.48471 0.37003,-0.71445 1.62626,-1.83583 3.16611,-6.52458 2.53193,-7.70956 -0.17682,-0.33038 -0.31113,-1.11661 -0.29847,-1.74716 l 0.023,-1.14647 -0.93971,0.39263 c -1.01738,0.42509 -3.00972,1.90513 -3.00972,2.23582 0,0.11204 -0.26789,0.49408 -0.59531,0.84896 -0.32742,0.35489 -1.30534,1.71173 -2.17314,3.0152 -0.86781,1.30347 -1.66343,2.43153 -1.76805,2.5068 -0.50089,0.36037 -1.80743,3.68251 -2.07715,5.28158 -0.31493,1.86714 -0.0212,3.97428 0.55405,3.97428 0.1485,0 0.19726,-0.1177 0.10835,-0.26155 z m 23.28146,1.74485 c -3.46939,-0.66478 -4.34111,-1.43319 -6.78093,-5.9773 -1.31238,-2.44426 0.19866,-8.02702 3.29524,-12.17475 5.72613,-7.66992 11.95206,-9.85002 16.14773,-5.65435 0.71222,0.71222 1.03141,2.74393 0.43108,2.74393 -0.14758,0 0.0465,0.47581 0.43138,1.05735 1.9713,2.97883 1.47435,8.62716 -1.09495,12.44512 -0.50609,0.75206 -0.92017,1.46455 -0.92017,1.58332 0,0.11877 -0.0937,0.25564 -0.20824,0.30414 -0.11453,0.0485 -0.62054,0.62398 -1.12447,1.27882 -3.22282,4.18792 -5.69049,5.25332 -10.17667,4.39372 z m 2.32962,-4.11188 c 1.11522,-0.51433 4.47015,-3.57339 5.21101,-4.75145 0.21828,-0.3471 0.6414,-0.94194 0.94028,-1.32188 1.50939,-1.91881 2.62513,-5.92354 2.26923,-8.14498 -0.20337,-1.26938 -0.76752,-2.46769 -1.16175,-2.46769 -1.04445,0 -7.287,5.94109 -9.81477,9.34079 -1.60646,2.1606 -2.38856,5.31952 -1.45924,5.89387 0.12673,0.0783 0.23041,0.3519 0.23041,0.60795 0,0.48326 1.35492,1.30853 2.19733,1.33838 0.26265,0.009 0.97702,-0.21344 1.5875,-0.49499 z M 87.635957,121.9179 c -0.380793,-0.19756 -1.168617,-0.73641 -1.750719,-1.19744 -1.252767,-0.99221 -1.29473,-0.51309 0.587598,-6.70892 0.751572,-2.47385 1.594045,-5.33135 1.872162,-6.35 0.278117,-1.01864 0.755991,-2.68552 1.061942,-3.70417 0.305951,-1.01864 0.965333,-3.2213 1.465289,-4.894787 0.499957,-1.67349 1.498195,-4.839468 2.218307,-7.035507 0.720111,-2.196039 1.309293,-4.180414 1.309293,-4.40972 0,-0.22931 0.09055,-0.456613 0.201231,-0.505122 0.202031,-0.08854 1.314715,-2.983754 2.474317,-6.438194 0.341945,-1.018646 0.693767,-1.911614 0.781828,-1.984375 0.300958,-0.248665 0.733097,-1.806707 0.555916,-2.004301 -0.09726,-0.108463 -0.05327,-0.127171 0.09775,-0.04157 0.151024,0.08559 0.428781,-0.222738 0.617239,-0.685185 0.466635,-1.14506 3.12879,-7.036998 3.53938,-7.833433 0.18221,-0.35344 0.68805,-0.737943 1.12409,-0.85445 0.77405,-0.20682 4.09438,0.230619 4.36658,0.575277 0.0728,0.09213 0.60854,0.435396 1.19062,0.762817 1.13089,0.636122 2.80064,2.550761 3.08017,3.531905 0.24071,0.844887 0.004,4.036864 -0.4274,5.755195 -0.70588,2.813892 -2.07364,10.395123 -1.55258,8.605674 0.0837,-0.287348 0.43591,-0.940065 0.78274,-1.45048 0.34684,-0.510419 0.63062,-1.004435 0.63062,-1.097817 0,-0.298167 3.18887,-5.84834 4.62042,-8.041752 0.7598,-1.164167 1.9658,-3.030615 2.68,-4.147662 1.80717,-2.826536 3.36495,-3.646831 5.16135,-2.717872 0.44176,0.228439 1.05201,0.3381 1.37593,0.247251 0.35271,-0.09892 0.45614,-0.07479 0.26249,0.06125 -0.22276,0.156479 0.0556,0.502443 0.91867,1.141811 0.68105,0.50452 1.39585,1.214964 1.58845,1.578767 0.37583,0.709906 0.26008,3.149162 -0.16228,3.419646 -0.13074,0.08373 -0.4774,0.68801 -0.77037,1.342854 -2.61393,5.842714 -3.27497,7.50773 -3.15811,7.954603 0.0738,0.282035 0.0399,0.454578 -0.0752,0.383423 -0.11513,-0.07115 -0.35086,0.432711 -0.52385,1.119699 -0.17298,0.686985 -0.74145,2.263084 -1.26327,3.502443 -0.52181,1.239356 -1.03469,2.789155 -1.13972,3.443999 -0.10503,0.654844 -0.27958,1.577578 -0.38788,2.050521 -0.19373,0.845982 -0.18168,0.859896 0.74497,0.859896 1.49705,0 2.18706,-0.393142 2.63396,-1.500748 0.22476,-0.557036 0.85763,-1.965294 1.40638,-3.129461 1.25654,-2.665738 1.25211,-2.632649 0.50091,-3.739599 -0.71668,-1.056101 -1.12211,-3.153929 -0.73041,-3.779391 0.15853,-0.253129 0.72194,-0.450218 1.42578,-0.498747 1.60372,-0.11058 5.22923,-0.681509 9.63035,-1.516542 2.03729,-0.386538 3.98106,-0.691996 4.3195,-0.678794 0.87796,0.03424 2.77997,1.68438 3.16327,2.744375 0.49236,1.361612 -0.10657,2.940791 -1.1577,3.052461 -2.02022,0.214622 -7.6859,1.820693 -7.40692,2.099667 0.0692,0.06916 -0.16515,0.58655 -0.52068,1.149755 -0.35554,0.563206 -0.64643,1.092222 -0.64643,1.175594 0,0.08337 -0.29239,0.58188 -0.64976,1.10779 -0.6955,1.023522 -0.66692,1.396973 0.10691,1.396973 0.46425,0 1.82564,1.434603 1.88311,1.984375 0.0152,0.145521 0.14364,0.404339 0.2854,0.575152 0.37478,0.451583 -0.61588,2.239714 -1.53434,2.769449 -0.41403,0.2388 -1.43531,0.574231 -2.26952,0.745407 -0.83421,0.17117 -1.58658,0.42421 -1.67193,0.56232 -0.0853,0.1381 -0.26839,0.18113 -0.40675,0.0956 -0.30211,-0.18673 -2.62229,4.64051 -2.62229,5.45581 0,0.70046 0.74371,0.62513 5.82083,-0.58962 1.81901,-0.43522 3.58378,-0.8572 3.9217,-0.93774 1.09242,-0.26037 3.86895,1.21098 3.92073,2.07768 0.0205,0.34265 0.14282,0.89268 0.2719,1.22229 0.19226,0.49099 0.34409,0.13237 0.84011,-1.98437 0.33298,-1.42102 0.76848,-3.11945 0.96777,-3.7743 0.19929,-0.65484 0.43857,-1.60734 0.53172,-2.11667 0.31691,-1.732778 1.5074,-5.941772 3.10569,-10.980204 2.06134,-6.498167 2.28564,-6.716982 6.07267,-5.92419 2.44075,0.510955 2.69677,0.963041 2.98029,5.262732 0.0816,1.236927 0.1972,2.487083 0.25699,2.778125 0.0598,0.291042 0.12919,1.184011 0.15424,1.984375 l 0.0455,1.455209 0.40346,-1.322917 c 0.2219,-0.727604 0.49458,-1.561042 0.60594,-1.852084 0.11136,-0.291041 0.64615,-1.779323 1.18843,-3.307291 1.80938,-5.098297 2.77685,-7.133215 3.47462,-7.308345 1.90537,-0.478216 4.84026,1.488569 4.48956,3.008627 -0.24936,1.080786 -0.27518,1.152282 -0.90266,2.499265 -0.31829,0.683239 -0.5787,1.326843 -0.5787,1.430234 0,0.103389 -0.27031,0.556403 -0.60069,1.006703 -0.55374,0.754732 -0.98709,1.582163 -1.53737,2.935391 -0.11835,0.291042 -0.56231,1.303073 -0.98657,2.248958 -0.88068,1.96346 -2.00163,5.545268 -1.79887,5.748023 0.0747,0.0747 -0.0286,0.300179 -0.22947,0.501089 -0.44075,0.44075 -0.82094,2.29849 -1.14629,5.60111 -0.36538,3.70898 -1.19711,4.34199 -4.27904,3.25665 -1.84273,-0.64894 -2.07041,-1.00095 -2.09131,-3.23327 -0.01,-1.01684 -0.0722,-1.93768 -0.13936,-2.04629 -0.0671,-0.10862 -0.26054,-1.73912 -0.4298,-3.62333 -0.31297,-3.483909 -0.58753,-4.651039 -0.86272,-3.667392 -0.0779,0.278365 -0.40362,1.458619 -0.72386,2.622786 -0.32024,1.164166 -0.84858,2.890576 -1.17408,3.836456 -0.67676,1.96664 -1.49523,5.03957 -1.66193,6.23977 -0.18658,1.34324 -1.68524,2.75606 -2.92352,2.75606 -1.32089,0 -2.74219,-0.93796 -3.10534,-2.04931 l -0.2746,-0.84037 -1.41501,0.65558 c -0.77825,0.36057 -2.52525,0.91062 -3.88221,1.22232 -1.36262,0.313 -2.39778,0.67905 -2.31215,0.8176 0.0898,0.14529 -0.0695,0.17963 -0.37835,0.0816 -0.29337,-0.0931 -1.05242,0.0115 -1.68678,0.23239 -1.32644,0.46195 -6.84156,0.5698 -7.62753,0.14916 -0.26743,-0.14313 -1.02252,-0.29196 -1.67798,-0.33073 -0.65546,-0.0388 -1.14426,-0.11906 -1.08622,-0.17841 0.0581,-0.0593 -0.31809,-0.62488 -0.83586,-1.25674 -1.1753,-1.4343 -1.24578,-3.34199 -0.21466,-5.80981 0.47943,-1.14745 0.52499,-1.06702 -0.7169,-1.26561 -0.79059,-0.12642 -1.4105,-0.49077 -2.29087,-1.34645 -0.66384,-0.64521 -1.33694,-1.09913 -1.49579,-1.0087 -0.15885,0.0904 -0.19684,0.0633 -0.0844,-0.0603 0.11242,-0.12362 -0.28312,-0.72151 -0.87897,-1.328634 l -1.08337,-1.103874 0.95323,-3.807007 c 1.17837,-4.706155 1.92122,-7.793845 2.12537,-8.834092 l 0.15576,-0.79375 -0.5494,0.79375 c -0.30217,0.436563 -1.11062,1.805782 -1.79654,3.042709 -0.68593,1.236927 -1.39086,2.487083 -1.56652,2.778125 -0.17565,0.291042 -0.44106,0.798282 -0.58979,1.127202 -0.14874,0.328919 -0.74512,1.54931 -1.32529,2.711979 -0.58017,1.162669 -0.9696,2.115767 -0.86541,2.117995 0.10419,0.0021 0.0637,0.09153 -0.0899,0.198437 -0.43661,0.303829 -1.36246,3.17356 -1.70577,5.28716 -0.24715,1.52158 -0.44965,2.02643 -0.98023,2.44379 -0.3678,0.28931 -0.75685,0.47156 -0.86455,0.405 -0.10769,-0.0666 -0.58857,-0.008 -1.0686,0.12929 -1.31666,0.37761 -2.84357,-0.12575 -4.35234,-1.43481 l -1.313318,-1.13948 0.438308,-1.02849 c 0.50981,-1.19627 0.92468,-4.307743 1.37188,-10.288906 0.0968,-1.294467 0.0927,-1.303002 -0.19136,-0.396875 -0.15965,0.509322 -0.43594,1.074626 -0.61397,1.256228 -0.36289,0.370157 -1.950085,4.354849 -1.950085,4.895721 0,0.191502 -0.401955,0.972084 -0.893233,1.734627 -1.025255,1.591355 -1.368383,3.147475 -0.913951,4.144845 0.238017,0.5224 0.238215,0.75588 7.94e-4,0.99326 -0.170677,0.17067 -0.310322,0.58792 -0.310322,0.92721 0,0.9195 -1.03311,3.83062 -1.574498,4.43665 -0.259995,0.29104 -0.567936,0.88636 -0.68431,1.32292 -0.116375,0.43656 -0.231003,0.85328 -0.254733,0.92604 -0.02373,0.0728 -0.129927,0.48948 -0.235993,0.92604 -0.106063,0.43657 -0.298981,0.99131 -0.428707,1.23278 -0.129722,0.24147 -0.166647,0.86554 -0.08205,1.38683 0.08825,0.5438 0.02727,1.10026 -0.143055,1.30549 -0.163277,0.19673 -0.393702,1.06094 -0.512061,1.92047 -0.305665,2.21973 -1.090049,3.02086 -2.917407,2.97969 -0.745453,-0.0168 -1.666925,-0.19217 -2.047719,-0.38973 z"
       id="path857" />
  </g>
</svg>
