<svg id="图层_1" data-name="图层 1" xmlns="http://www.w3.org/2000/svg" viewBox="0 0 168 126.68"><defs><style>.cls-1{fill:#353535;}</style></defs><title>未标题-2</title><path class="cls-1" d="M66.52,10.66a40.57,40.57,0,0,0-54.25,0C6.67,15.78,0,24.94,0,39.5V87.44C0,102,6.67,111.16,12.27,116.28a40.57,40.57,0,0,0,54.25,0c5.6-5.12,12.27-14.28,12.27-28.84V39.5C78.79,24.94,72.12,15.78,66.52,10.66ZM39.4,110.59a22.77,22.77,0,0,1-14.15-4.68l37.13-55.7V86.59C62.38,100.49,52.71,110.59,39.4,110.59Zm-23-24V40.35c0-13.68,9.88-24,23-24A22.34,22.34,0,0,1,58.67,26.93L16.62,90A29.31,29.31,0,0,1,16.41,86.59Z"/><polygon class="cls-1" points="145.87 108.89 145.87 2.47 127.9 2.47 100.78 16.66 100.78 33.48 129.28 18.5 129.28 108.89 105.47 108.89 105.47 124.47 168 124.47 168 108.89 145.87 108.89"/></svg>