<svg id="图层_1" data-name="图层 1" xmlns="http://www.w3.org/2000/svg" viewBox="0 0 173.67 126.74"><defs><style>.cls-1{fill:#353535;}</style></defs><title>未标题-2</title><path class="cls-1" d="M66.57,10.72a40.59,40.59,0,0,0-54.26,0C6.72,15.84.05,25,.05,39.56V87.5c0,14.56,6.67,23.72,12.26,28.84a40.59,40.59,0,0,0,54.26,0c5.6-5.12,12.27-14.28,12.27-28.84V39.56C78.84,25,72.17,15.84,66.57,10.72ZM39.44,110.65a22.71,22.71,0,0,1-14.32-4.82l37.3-56V86.65C62.42,100.56,52.76,110.65,39.44,110.65Zm-23-24V40.41c0-13.68,9.88-24,23-24A22.34,22.34,0,0,1,58.59,26.78l-42,62.94A28,28,0,0,1,16.46,86.65Z"/><path class="cls-1" d="M115.81,109,160.28,64c7.38-8.2,12.29-16.19,12.29-28.55a34.65,34.65,0,0,0-9.84-24.38C155.85,4.05,146.44.32,135.52.32,111.9.32,99.15,19.05,99.15,36.67v1.5h15.74v-1.5c0-11.84,8.54-20.43,20.3-20.43,12.24,0,20.46,7.87,20.46,19.58,0,8.52-4.32,14.35-9,19.37L99.31,104.92v19.61h74.27V109Z"/></svg>