<svg id="图层_1" data-name="图层 1" xmlns="http://www.w3.org/2000/svg" viewBox="0 0 175 126"><defs><style>.cls-1{font-size:170px;stroke:#353535;stroke-miterlimit:10;stroke-width:3px;font-family:Archia-Regular, Archia;letter-spacing:-0.03em;}.cls-1,.cls-2{fill:#353535;}</style></defs><title>04_Mentoo_Images </title><text class="cls-1" transform="translate(-13.22 -40.47) scale(0.99 1)">03</text><path class="cls-2" d="M66.06,10.13a40.56,40.56,0,0,0-54.26,0C6.2,15.25-.47,24.41-.47,39V86.9c0,14.56,6.67,23.72,12.27,28.84a40.59,40.59,0,0,0,54.26,0c5.59-5.12,12.26-14.28,12.26-28.84V39C78.32,24.41,71.65,15.25,66.06,10.13ZM61.91,39.81V86.05c0,13.91-9.67,24-23,24a22.14,22.14,0,0,1-19.47-10.7L61.65,36.06A27.14,27.14,0,0,1,61.91,39.81Zm-23-24a22.59,22.59,0,0,1,13.9,4.63L16,75.78v-36C16,26.13,25.83,15.81,38.93,15.81Z"/><path class="cls-2" d="M159,78.6V1.94H136.22L92.12,76V93.84h50.49v30.09H159V93.84h15.42V78.6Zm-51,0,34.56-58.79V78.6Z"/></svg>