<svg id="图层_1" data-name="图层 1" xmlns="http://www.w3.org/2000/svg" viewBox="0 0 181.37 127.37"><defs><style>.cls-1,.cls-2{fill:#353535;}.cls-2{stroke:#353535;stroke-miterlimit:10;stroke-width:3px;}</style></defs><title>未标题-3</title><line class="cls-1" x1="67.11" y1="27.98" x2="17.11" y2="102.98"/><rect class="cls-1" x="-2.96" y="57.48" width="90.14" height="16" transform="translate(-35.73 64.19) rotate(-56.31)"/><path class="cls-2" d="M2.64,87.61V39.67C2.64,16,21.42,1.93,40.53,1.93S78.43,16,78.43,39.67V87.61c0,23.63-18.78,37.74-37.9,37.74S2.64,111.24,2.64,87.61ZM65,86.76V40.52C65,26.07,54.62,15,40.53,15S16.05,26.07,16.05,40.52V86.76c0,14.62,10.23,25.5,24.48,25.5S65,101.38,65,86.76Z"/><path class="cls-2" d="M105.9,92.2h12.74c1.68,13.77,10.57,20.4,23.48,20.4,14.08,0,24.14-10.71,24.14-25.5,0-14.62-9-25.84-25.15-25.84A24.66,24.66,0,0,0,120,73H108.25l4-68.85h60.87V16.72h-49l-2.51,40h1s7-8,20.45-8C165.76,48.68,180,66.36,180,87.1c0,22.61-15.76,38.25-37.39,38.25C122.83,125.35,106.9,113.79,105.9,92.2Z"/></svg>