<svg xmlns="http://www.w3.org/2000/svg" id="图层_1" data-name="图层 1" version="1.1" width="94.27" height="94.27"><defs id="defs7"><clipPath id="clip-path"><path id="rect4" fill="none" d="M0 0h94.27v94.27H0z"/></clipPath><style id="style2">.cls-4{fill:#eceae4}</style></defs><path id="rect11" fill="#606060" d="M0 0h94.27v94.27H0z"/><g clip-path="url(#clip-path)" id="g21"><path class="cls-4" id="rect13" d="M60.32 78.55h6.26v83.48h-6.26z"/><path class="cls-4" d="M46.92 43.15a14.39 14.39 0 10-14.38-14.39 14.4 14.4 0 0014.38 14.39zM38.8 28.76a8.12 8.12 0 118.12 8.12 8.12 8.12 0 01-8.12-8.12z" id="path15"/><path class="cls-4" d="M46.84 48.59A30.54 30.54 0 0016.33 79.1v27.77h6.27V79.1a24.25 24.25 0 1148.49 0v27.77h6.26V79.1a30.54 30.54 0 00-30.51-30.51z" id="path17"/><path class="cls-4" id="rect19" d="M27.25 78.55h6.27v83.48h-6.27z"/></g></svg>