<?xml version="1.0" encoding="UTF-8" standalone="no"?>
<svg
   xmlns:dc="http://purl.org/dc/elements/1.1/"
   xmlns:cc="http://creativecommons.org/ns#"
   xmlns:rdf="http://www.w3.org/1999/02/22-rdf-syntax-ns#"
   xmlns:svg="http://www.w3.org/2000/svg"
   xmlns="http://www.w3.org/2000/svg"
   xmlns:sodipodi="http://sodipodi.sourceforge.net/DTD/sodipodi-0.dtd"
   xmlns:inkscape="http://www.inkscape.org/namespaces/inkscape"
   id="图层_1"
   data-name="图层 1"
   version="1.1"
   width="94.269997"
   height="94.269997"
   sodipodi:docname="5stars_comment_icon.svg"
   inkscape:version="1.0.1 (3bc2e813f5, 2020-09-07)">
  <metadata
     id="metadata15">
    <rdf:RDF>
      <cc:Work
         rdf:about="">
        <dc:format>image/svg+xml</dc:format>
        <dc:type
           rdf:resource="http://purl.org/dc/dcmitype/StillImage" />
        <dc:title></dc:title>
      </cc:Work>
    </rdf:RDF>
  </metadata>
  <sodipodi:namedview
     pagecolor="#ffffff"
     bordercolor="#666666"
     borderopacity="1"
     objecttolerance="10"
     gridtolerance="10"
     guidetolerance="10"
     inkscape:pageopacity="0"
     inkscape:pageshadow="2"
     inkscape:window-width="1368"
     inkscape:window-height="842"
     id="namedview13"
     showgrid="false"
     fit-margin-top="0"
     fit-margin-left="0"
     fit-margin-right="0"
     fit-margin-bottom="0"
     inkscape:zoom="6.7253636"
     inkscape:cx="47.134998"
     inkscape:cy="35.239731"
     inkscape:window-x="-7"
     inkscape:window-y="-7"
     inkscape:window-maximized="1"
     inkscape:current-layer="图层_1" />
  <defs
     id="defs7">
    <clipPath
       id="clip-path">
      <path
         id="rect4"
         fill="none"
         d="M 0,0 H 94.27 V 94.27 H 0 Z" />
    </clipPath>
    <style
       id="style2">.cls-4{fill:#eceae4}</style>
  </defs>
  <path
     id="rect11"
     fill="#606060"
     d="M 0,0 H 94.27 V 94.27 H 0 Z" />
  <g
     clip-path="url(#clip-path)"
     id="g21">
    <path
       class="cls-4"
       id="rect13"
       d="m 60.32,78.55 h 6.26 v 83.48 h -6.26 z" />
    <path
       class="cls-4"
       d="M 46.92,43.15 A 14.39,14.39 0 1 0 32.54,28.76 14.4,14.4 0 0 0 46.92,43.15 Z M 38.8,28.76 a 8.12,8.12 0 1 1 8.12,8.12 8.12,8.12 0 0 1 -8.12,-8.12 z"
       id="path15" />
    <path
       class="cls-4"
       d="M 46.84,48.59 A 30.54,30.54 0 0 0 16.33,79.1 v 27.77 H 22.6 V 79.1 a 24.25,24.25 0 1 1 48.49,0 v 27.77 h 6.26 V 79.1 A 30.54,30.54 0 0 0 46.84,48.59 Z"
       id="path17" />
    <path
       class="cls-4"
       id="rect19"
       d="m 27.25,78.55 h 6.27 v 83.48 h -6.27 z" />
  </g>
</svg>
