<svg xmlns="http://www.w3.org/2000/svg" id="图层_1" data-name="图层 1" version="1.1" width="60.3" height="81.24"><defs id="defs4"><style id="style2">.cls-1{fill:#5fbf44}</style></defs><path class="cls-1" d="M51.02 81.24H9.23a4.41 4.41 0 01-4.45-4.34V52.38L.65 46.02A4 4 0 010 43.84v-9.3h60.3v9.43a4 4 0 01-.71 2.27l-4.44 6.46.29 24.14a4.32 4.32 0 01-1.24 3.07 4.49 4.49 0 01-3.18 1.33zM3.57 38.1v5.75a.39.39 0 00.07.23l4.7 7.25v25.58a.82.82 0 00.87.76H51a.91.91 0 00.66-.27.67.67 0 00.21-.51l-.33-25.29 5.08-7.39a.43.43 0 00.08-.24v-5.86z" id="path8"/><path class="cls-1" id="rect10" d="M11.08 43.76h36.44v3.58H11.08z"/><path class="cls-1" d="M55.25 35.31h-3.58V20.63l-7.29-4.52 1.89-3 7.36 4.57a3.41 3.41 0 011.63 2.86v14.77z" id="path12"/><path class="cls-1" d="M45.12 64.64H27.85V52.96h17.27zm-13.68-3.57h10.11v-4.53H31.44z" id="path14"/><path class="cls-1" d="M21.56 17.11a3.53 3.53 0 003.52-3.52v-.23a7.35 7.35 0 008.78 0v.22a3.52 3.52 0 007 0v-1.86h-3v1.87a.52.52 0 01-1 0V7.91v-.5a7.41 7.41 0 00-14.82 0 3.91 3.91 0 000 .49v5.69a.52.52 0 01-1 0v-1.87h-3v1.87a3.51 3.51 0 003.52 3.52zM29.44 3a4.41 4.41 0 11-4.41 4.41A4.42 4.42 0 0129.44 3z" id="path16"/><path class="cls-1" d="M29.44 16.54a14.79 14.79 0 00-14.82 14.78v1.1h3v-1.1a11.77 11.77 0 1123.54 0v1.1h3v-1.1a14.79 14.79 0 00-14.72-14.78z" id="path18"/></svg>