<svg xmlns="http://www.w3.org/2000/svg" id="图层_1" data-name="图层 1" version="1.1" width="24.24" height="22.14"><defs id="defs4"><style id="style2">.cls-1{fill:#606060}</style></defs><path class="cls-1" d="M19.79 6.26V.35h-1.75v4.16L14.33.81A2.74 2.74 0 0012.38 0h-.53A2.76 2.76 0 009.9.81L0 10.72l1.24 1.24 9.92-9.91a1 1 0 01.71-.3h.53a1 1 0 01.71.3l9.91 9.9 1.22-1.23z" id="path8"/><path class="cls-1" d="M19.08 19.41a1 1 0 01-1 1h-2.47v-7.34h-7v7.32H6.16a1 1 0 01-1-1v-7.54H3.4v7.56a2.73 2.73 0 002.76 2.73h4.25v-7.32h3.45v7.32h4.24a2.73 2.73 0 002.73-2.73v-7.56h-1.75z" id="path10"/></svg>