<svg id="图层_1" data-name="图层 1" xmlns="http://www.w3.org/2000/svg" viewBox="0 0 126.96 127.9"><defs><style>.cls-1{fill:#5fbf44;}</style></defs><title>未标题-2</title><path class="cls-1" d="M39.33,25.05A12.53,12.53,0,1,0,26.8,12.53,12.54,12.54,0,0,0,39.33,25.05Zm0-19.18a6.66,6.66,0,1,1-6.66,6.66A6.67,6.67,0,0,1,39.33,5.87Z"/><path class="cls-1" d="M26.06,90A12.53,12.53,0,1,0,38.59,77.47,12.54,12.54,0,0,0,26.06,90Zm19.08,0a6.56,6.56,0,1,1-6.55-6.56A6.56,6.56,0,0,1,45.14,90Z"/><path class="cls-1" d="M33.45,34.69H44.06a1.6,1.6,0,0,1,.67.13l1.28.56,9.61,6.39a1.8,1.8,0,0,1,.86,1.54v6.13h6.64V43.31a8.52,8.52,0,0,0-4-7.17l-9.94-6.61-1.83-.81A8.39,8.39,0,0,0,44.06,28H33.45a7.83,7.83,0,0,0-4.6,1.48l-10,7.14a8,8,0,0,0-3.32,6.45v6.64h6.64V43.11a1.29,1.29,0,0,1,.53-1l10-7.15A1.32,1.32,0,0,1,33.45,34.69Z"/><path class="cls-1" d="M22.17,43.11v6.64H15.53V43.11a8,8,0,0,1,3.32-6.45l10-7.14A7.83,7.83,0,0,1,33.45,28H44.06a8.39,8.39,0,0,1,3.32.68l1.83.81,9.94,6.61a8.52,8.52,0,0,1,4,7.17v6.13H56.48V43.31a1.8,1.8,0,0,0-.86-1.54L46,35.38l-1.28-.56a1.6,1.6,0,0,0-.67-.13H33.45a1.32,1.32,0,0,0-.74.23l-10,7.15A1.29,1.29,0,0,0,22.17,43.11Z"/><path class="cls-1" d="M58.41,114.26h0l-9.93-6.61-1.83-.8a8.39,8.39,0,0,0-3.32-.68H32.71a7.83,7.83,0,0,0-4.6,1.48l-10,7.14a7.94,7.94,0,0,0-3.32,6.45v6.64h6.64v-6.64a1.28,1.28,0,0,1,.54-1L32,113a1.31,1.31,0,0,1,.74-.24H43.32a1.78,1.78,0,0,1,.67.13l1.28.56,9.62,6.4a1.81,1.81,0,0,1,.85,1.53v6.52h6.65v-6.52A8.51,8.51,0,0,0,58.41,114.26Z"/><rect class="cls-1" y="121.07" width="10.48" height="6.64"/><path class="cls-1" d="M75.41,97l.14,19.41c0,4.55-1,4.73-3.4,4.73l-4.66.13.19,6.64,4.51-.13c6.64,0,10-3.86,10-11.4l-.14-19.43Z"/><path class="cls-1" d="M74.6,63.83v.09L75,79.63l6.64-.14-.46-16.65a10.14,10.14,0,0,0-10-8.25H0v6.64H71.21A3.52,3.52,0,0,1,74.6,63.83Z"/><path class="cls-1" d="M114.43,48A12.53,12.53,0,1,0,101.9,35.43,12.54,12.54,0,0,0,114.43,48Zm0-19A6.48,6.48,0,1,1,108,35.43,6.49,6.49,0,0,1,114.43,29Z"/><path class="cls-1" d="M113.36,51.45a13.14,13.14,0,0,0-13,11.62l-1.07,11c0,.26-.06.52-.11.77A12,12,0,0,1,87.5,84.57l-12.58.35.17,6.64,12.57-.35a18.64,18.64,0,0,0,18.07-15.29c.06-.41.12-.82.16-1.21L107,63.79A6.45,6.45,0,0,1,119.79,65l-1.93,32.47a7,7,0,0,1-4.09,6,3.48,3.48,0,0,1-.72.2l-8.32,1.65-.54.15a15,15,0,0,0-5.89,4,12.9,12.9,0,0,0-3.12,7.55l-1.12,10.89h6.72l1-10.36a6.22,6.22,0,0,1,1.45-3.66,8.17,8.17,0,0,1,3-2.14l8-1.6a9.84,9.84,0,0,0,2.2-.68,13.69,13.69,0,0,0,8-11.61l1.93-32.45a13.08,13.08,0,0,0-13.06-14Z"/></svg>