<svg xmlns="http://www.w3.org/2000/svg" viewBox="0 0 317.28 98.29"><defs><style>.cls-1{fill:#5fbf44;}</style></defs><title>未标题-2</title><path class="cls-1" d="M90.14,90c-.23-1.1-.45-2.35-.77-3.58-2.29-8.91-4.62-17.81-6.91-26.72-.13-.52-.42-.52-.81-.52H68.78V98.41h7.7V65.17c.1.31.19.52.24.73Q81,81.8,85.22,97.69c.16.57.37.79,1,.78,2.62,0,5.25,0,7.87,0,.56,0,.76-.19.9-.71q4.32-16,8.67-32.11a2.15,2.15,0,0,1,.15-.38V98.41h7.73V59.18H98.07C95.42,69.47,92.77,79.77,90.14,90Z"/><path class="cls-1" d="M145.46,86.39a21.24,21.24,0,0,0-2-10,11.33,11.33,0,0,0-6.73-5.82,17,17,0,0,0-10.74,0,11.89,11.89,0,0,0-8.23,8.61,19.93,19.93,0,0,0-.37,8.92c.9,4.93,3.56,8.47,8.35,10.21a17.93,17.93,0,0,0,9,.63c5.1-.8,8.57-3.58,10.08-8.62a5.56,5.56,0,0,0,.11-.56L137.58,89a21,21,0,0,1-1.56,2.8c-1.1,1.41-2.73,1.64-4.4,1.7-4.57.17-6.82-2.67-6.66-7.15Zm-14-11.23c3.66.07,5.72,2.21,5.88,5.83H125C125.36,77,127.72,75.08,131.51,75.16Z"/><path class="cls-1" d="M191,66.25H203.5V98.41H212V66.24h12.43v-7H191Z"/><path class="cls-1" d="M278.39,70.36a16.71,16.71,0,0,0-6.52-.57A13.07,13.07,0,0,0,260.66,77a16.88,16.88,0,0,0-1.36,11.17,12.77,12.77,0,0,0,4.88,8.2c2.75,2.11,6,2.72,9.5,2.77.4,0,1,0,1.53-.1,5.14-.44,9.05-2.79,11.37-7.48a16.06,16.06,0,0,0,1.26-10.23C286.84,75.84,283.78,72.07,278.39,70.36Zm-5.57,23.11c-2.73-.2-4.23-1.54-4.91-4.22a21,21,0,0,1-.14-9.07c.68-3.64,3-5.27,6.82-4.8a4.92,4.92,0,0,1,4.59,4.3c.09.44.16.88.22,1.32a28.83,28.83,0,0,1-.19,8C278.49,92.3,276.45,93.73,272.82,93.47Z"/><path class="cls-1" d="M245.84,70.32a16.94,16.94,0,0,0-6.38-.53c-5,.42-8.83,2.67-11.16,7.14a16.93,16.93,0,0,0-.87,13.22,12,12,0,0,0,7,7.73,17.43,17.43,0,0,0,6.79,1.25c.53,0,1.14,0,1.75-.1,4.82-.46,8.59-2.62,11-6.92a16.13,16.13,0,0,0,1.43-11.36A13,13,0,0,0,245.84,70.32Zm-5.35,23.15a5,5,0,0,1-5-4.15,21,21,0,0,1,0-9.62c.78-3.39,2.94-4.67,6.7-4.31,2.59.25,4.18,1.82,4.67,4.57.1.53.16,1.07.23,1.6a33.29,33.29,0,0,1,.07,5.27c-.07.58-.14,1.14-.24,1.71C246.23,92.23,244.28,93.7,240.49,93.47Z"/><path class="cls-1" d="M176.1,77.75c-.38-4.28-2.88-7.09-7.09-7.81a15.91,15.91,0,0,0-4.36-.1A7.55,7.55,0,0,0,158.24,74c0,.07-.1.12-.28.32V70.41h-7.73v28h7.84V87.56c0-2,0-3.93.06-5.89.18-3.36,2-6.3,6.18-5.93a4,4,0,0,1,3.88,3.55,19.72,19.72,0,0,1,.18,2.54c0,5.27,0,10.54,0,15.81v.79h7.92v-.9c0-5.18,0-10.36,0-15.53C176.28,80.58,176.23,79.16,176.1,77.75Z"/><path class="cls-1" d="M317.21,68.17c-.43-4.2-2.49-7.22-6.5-8.73a18.32,18.32,0,0,0-9.57-.68A11.54,11.54,0,0,0,291,70.07c0,.43.11.56.53.62,1.1.14,2.19.35,3.29.52l4.3.66c.07-.81.09-1.55.21-2.27.26-1.7.77-3.31,2.48-4.12a5.76,5.76,0,0,1,4.87-.1,3.55,3.55,0,0,1,1.43,1.29A5.47,5.47,0,0,1,307.6,73c-.89,1-1.88,1.86-2.81,2.8-1.07,1.1-2.18,2.17-3.16,3.34-1.81,2.17-1.52,4.79-1.48,7.36h7.39c-.56-3,1.26-4.69,3.16-6.36l2.78-2.42A10.6,10.6,0,0,0,317.21,68.17Z"/><path class="cls-1" d="M299.69,98.4h8.41V89.62h-8.41Z"/><path class="cls-1" d="M37.28,30.76c-1.89-10.17-4.82-20-7.14-30H21.21c-1.21,5-2.44,10-3.62,15s-2.3,10-3.43,14.84C12.4,20.7,10.63,10.72,8.86.74H0L9.26,40h9.36c2.33-10.11,5.25-20,6.93-30.18Q29.12,24.86,32.68,40H42Q46.67,20.35,51.32.74H42.45C40.72,10.75,39,20.73,37.28,30.76Z"/><path class="cls-1" d="M58.29,39.43A12.92,12.92,0,0,0,66,40.53a9.22,9.22,0,0,0,6.48-3.89.9.9,0,0,1,.18-.15c.14,1,.28,2,.4,2.92,0,.46.26.61.74.6,2.24,0,4.49,0,6.73,0,.15,0,.3,0,.51-.06-.07-.19-.1-.33-.15-.45a11.22,11.22,0,0,1-1-5c0-4.66,0-9.31,0-14,0-4.29-2.08-7.27-6.21-8.51a21.22,21.22,0,0,0-12.95.31,7.76,7.76,0,0,0-4.31,3.3A10.27,10.27,0,0,0,55,21.3l7.67.56c0-.48.06-.91.11-1.33.22-2,1.11-3.08,2.86-3.49a9.25,9.25,0,0,1,4.22,0,2.87,2.87,0,0,1,2.23,2.32,17.28,17.28,0,0,1,.2,2.47c-2.39.44-4.67.85-6.94,1.28a27,27,0,0,0-7,2,7.46,7.46,0,0,0-3.71,3.47A8.4,8.4,0,0,0,58.29,39.43Zm5.43-10.22a24.3,24.3,0,0,1,3.37-1c1.66-.41,3.35-.75,5.2-1.16-.08,1.33-.05,2.52-.23,3.67A5.07,5.07,0,0,1,67,35a10.42,10.42,0,0,1-3-.25,2.54,2.54,0,0,1-2-2.55A2.77,2.77,0,0,1,63.72,29.21Z"/><path class="cls-1" d="M101.71,40.2a10.21,10.21,0,0,0,6-3A8,8,0,0,0,105,24.71,40.55,40.55,0,0,0,99.73,23c-1.85-.55-3.74-1-5.57-1.6A2.14,2.14,0,0,1,92.51,19a2.24,2.24,0,0,1,1.87-2.2,10.57,10.57,0,0,1,3.35-.31A3.89,3.89,0,0,1,101.42,20c.06.31.1.63.15,1l7.18-1.23a8.1,8.1,0,0,0-5.14-7.22A17.75,17.75,0,0,0,96,11.26a15.27,15.27,0,0,0-6.58,1.5,7.38,7.38,0,0,0-4.33,6.64A6.88,6.88,0,0,0,88.45,26a9.88,9.88,0,0,0,1.84.92c1.78.6,3.59,1.14,5.39,1.7,1.55.49,3.14.88,4.65,1.45a2.28,2.28,0,0,1,1.43,3.26A2.58,2.58,0,0,1,100.15,35a8.05,8.05,0,0,1-5.22.16,4.17,4.17,0,0,1-3.16-3.54l-.19-1-7.41.95a8.86,8.86,0,0,0,5.91,7.89A20.07,20.07,0,0,0,101.71,40.2Z"/><path class="cls-1" d="M158.59,24.71A38.56,38.56,0,0,0,153.36,23c-1.89-.58-3.82-1-5.69-1.66A2.13,2.13,0,0,1,146.12,19a2.21,2.21,0,0,1,1.75-2.15,12.22,12.22,0,0,1,3.13-.41,4,4,0,0,1,4.07,3.68c0,.23.07.46.13.8l7.2-1.24a8.31,8.31,0,0,0-5.93-7.51,18.55,18.55,0,0,0-6.77-1,15.15,15.15,0,0,0-6.65,1.5,7.29,7.29,0,0,0-4.32,6.2c-.24,3,.69,5.44,3.34,7.07a9.72,9.72,0,0,0,1.82.92c1.79.61,3.59,1.15,5.4,1.71,1.55.48,3.13.88,4.65,1.44a2.26,2.26,0,0,1,1.51,3.12A2.68,2.68,0,0,1,153.66,35a8.2,8.2,0,0,1-5,.14,4.24,4.24,0,0,1-3.26-3.62c0-.29-.1-.59-.17-.95l-7.4.95a8.78,8.78,0,0,0,5.89,7.88,20.05,20.05,0,0,0,11.7.79,10.07,10.07,0,0,0,5.93-3.06A8,8,0,0,0,158.59,24.71Z"/><path class="cls-1" d="M169.86,19.09q0,6.69,0,13.4c0,4,1.58,6.17,5.39,7.29a17.67,17.67,0,0,0,7.59.21c.44-.06.42-.36.41-.68,0-1.84-.07-3.68-.11-5.52,0-.19,0-.37,0-.4-1.24,0-2.42.08-3.58,0-1.47-.13-1.91-.7-1.91-2.19V18.09h5.69V11.92h-5.71V4.15h-7.73v7.79h-4v6.2h4Z"/><path class="cls-1" d="M133.31,40V12h-7.74V40Z"/><path class="cls-1" d="M133.32.2h-7.79v8h7.79Z"/></svg>