<svg xmlns="http://www.w3.org/2000/svg" id="图层_1" data-name="图层 1" version="1.1" width="15.38" height="21.681"><defs id="defs4"><style id="style2">.cls-1{fill:#5fbf44}</style></defs><path class="cls-1" d="M3.58 21.22L0 16.92 9.23 4.51a2.25 2.25 0 00.42-1.35 2.28 2.28 0 00-.3-1l.77-.46a3 3 0 01-.17 3.37l-8.8 11.82 2.4 2.87 7.46-9.81c.88-1.16 2.24-3.4 1.35-5.35l-1.42-2.68A2 2 0 009.16.87H6.08a2 2 0 00-1.7 1L2.66 5.11c-.35.86.17 2 .68 3l.4.79L6 5.84l-.92-1.21a2.84 2.84 0 01-.21-2.73l.82.37a1.93 1.93 0 00.13 1.85l1.3 1.73-3.49 4.73-1.11-2.07C1.96 7.33 1.32 6 1.85 4.72L3.59 1.5A2.87 2.87 0 016.07 0h3.08a2.84 2.84 0 012.59 1.53l1.42 2.69c1.1 2.4-.43 5-1.43 6.3z" id="path8"/><path class="cls-1" d="M11.78 21.68l-3.86-5 3.65-4.63 3.81 5.06zm-2.72-5l2.73 3.54 2.44-3.13-2.7-3.57z" id="path10"/></svg>