<?xml version="1.0" encoding="UTF-8" standalone="no"?>
<svg
   xmlns:dc="http://purl.org/dc/elements/1.1/"
   xmlns:cc="http://creativecommons.org/ns#"
   xmlns:rdf="http://www.w3.org/1999/02/22-rdf-syntax-ns#"
   xmlns:svg="http://www.w3.org/2000/svg"
   xmlns="http://www.w3.org/2000/svg"
   xmlns:sodipodi="http://sodipodi.sourceforge.net/DTD/sodipodi-0.dtd"
   xmlns:inkscape="http://www.inkscape.org/namespaces/inkscape"
   id="图层_1"
   data-name="图层 1"
   version="1.1"
   width="47.5"
   height="37.740009"
   sodipodi:docname="hospital_icon.svg"
   inkscape:version="1.0.1 (3bc2e813f5, 2020-09-07)">
  <metadata
     id="metadata26">
    <rdf:RDF>
      <cc:Work
         rdf:about="">
        <dc:format>image/svg+xml</dc:format>
        <dc:type
           rdf:resource="http://purl.org/dc/dcmitype/StillImage" />
        <dc:title></dc:title>
      </cc:Work>
    </rdf:RDF>
  </metadata>
  <defs
     id="defs24" />
  <sodipodi:namedview
     pagecolor="#ffffff"
     bordercolor="#666666"
     borderopacity="1"
     objecttolerance="10"
     gridtolerance="10"
     guidetolerance="10"
     inkscape:pageopacity="0"
     inkscape:pageshadow="2"
     inkscape:window-width="1680"
     inkscape:window-height="987"
     id="namedview22"
     showgrid="false"
     fit-margin-top="0"
     fit-margin-left="0"
     fit-margin-right="0"
     fit-margin-bottom="0"
     inkscape:zoom="13.681546"
     inkscape:cx="24.7365"
     inkscape:cy="26.861009"
     inkscape:window-x="-8"
     inkscape:window-y="-8"
     inkscape:window-maximized="1"
     inkscape:current-layer="图层_1" />
  <path
     d="m 5.7,13.630009 0.11,-0.09 a 0.27,0.27 0 0 1 0.17,-0.06 l 3.27,0.06 v -1.79 l -3.53,-0.06 a 1.41,1.41 0 0 0 -0.88,0.31 l -0.56,0.46 a 1.36,1.36 0 0 0 -0.5,1 v 21 h 1.79 v -20.63 a 0.3,0.3 0 0 1 0.13,-0.2 z"
     id="path8" />
  <path
     d="m 42.11,14.120009 v 20.35 h 1.79 v -20.58 a 1.61,1.61 0 0 0 -0.44,-1.1 l -0.74,-0.77 a 1.56,1.56 0 0 0 -1.13,-0.48 H 38 v 1.82 h 3.34 a 0.36,0.36 0 0 1 0.26,0.11 l 0.41,0.43 a 0.39,0.39 0 0 1 0.1,0.22 z"
     id="path10" />
  <path
     id="rect12"
     d="m 15.71,17.770009 h 15.97 v 1.57 H 15.71 Z" />
  <path
     id="rect14"
     d="m 15.71,23.150009 h 16.16 v 1.57 H 15.71 Z" />
  <path
     d="m 21.55,5.090009 v 1.8 h -2.17 a 0.21,0.21 0 0 0 -0.17,0.08 l -0.13,0.15 a 0.23,0.23 0 0 0 -0.06,0.16 v 3.25 a 0.23,0.23 0 0 0 0.06,0.16 l 0.16,0.17 a 0.22,0.22 0 0 0 0.17,0.07 h 2.14 v 1.61 a 0.26,0.26 0 0 0 0.07,0.17 l 0.27,0.26 a 0.23,0.23 0 0 0 0.16,0.06 h 3.21 a 0.23,0.23 0 0 0 0.16,-0.06 l 0.27,-0.26 a 0.22,0.22 0 0 0 0.07,-0.17 v -1.61 h 1.89 a 0.27,0.27 0 0 0 0.15,-0.05 l 0.24,-0.2 a 0.23,0.23 0 0 0 0.08,-0.18 v -3.22 a 0.26,0.26 0 0 0 -0.07,-0.17 l -0.16,-0.15 a 0.23,0.23 0 0 0 -0.16,-0.06 h -2 v -1.82 a 0.24,0.24 0 0 0 -0.05,-0.14 l -0.16,-0.21 a 0.21,0.21 0 0 0 -0.18,-0.09 h -3.4 a 0.24,0.24 0 0 0 -0.17,0.07 l -0.2,0.21 a 0.47,0.47 0 0 0 -0.02,0.17 z m 5.25,3.38 v 0.89 a 0.23,0.23 0 0 1 -0.23,0.23 h -2.1 v 1.86 a 0.23,0.23 0 0 1 -0.23,0.23 h -1.11 a 0.23,0.23 0 0 1 -0.23,-0.23 v -1.86 h -2.3 a 0.23,0.23 0 0 1 -0.23,-0.23 v -0.89 a 0.23,0.23 0 0 1 0.23,-0.23 h 2.3 v -2 a 0.23,0.23 0 0 1 0.23,-0.23 h 1.07 a 0.23,0.23 0 0 1 0.23,0.23 v 2 h 2.14 a 0.23,0.23 0 0 1 0.23,0.23 z"
     id="path16" />
  <path
     d="m 8.11,17.780009 v 1.58 h 3.29 v 3.9 H 8.11 v 1.57 h 3.27 v 3.9 H 8.11 v 1.57 h 3.26 v 4.18 h 1.79 l 0.07,-27.58 a 0.42,0.42 0 0 1 0.12,-0.3 l 0.19,-0.2 a 0.42,0.42 0 0 1 0.31,-0.13 h 2.42 v -4 a 0.29,0.29 0 0 1 0.1,-0.23 l 0.1,-0.13 a 0.31,0.31 0 0 1 0.22,-0.09 h 13.78 a 0.53,0.53 0 0 1 0.34,0.13 0.52,0.52 0 0 1 0.17,0.38 v 3.83 h 2.73 a 0.36,0.36 0 0 1 0.28,0.12 l 0.28,0.31 a 0.4,0.4 0 0 1 0.1,0.26 v 27.62 h 1.7 v -4.18 h 3.26 v -1.57 h -3.26 v -3.9 h 3.25 v -1.57 h -3.25 v -3.89 h 3.25 v -1.58 h -3.25 v -11.21 a 1.44,1.44 0 0 0 -0.38,-1 l -0.72,-0.79 a 1.33,1.33 0 0 0 -1,-0.43 h -1.23 v -2.85 a 0.48,0.48 0 0 0 -0.17,-0.37 L 31.47,0.13000902 A 0.51,0.51 0 0 0 31.13,9.0217466e-6 H 16.01 A 0.5,0.5 0 0 0 15.66,0.14000902 l -1,0.99999998 a 0.52,0.52 0 0 0 -0.16,0.37 v 2.96 h -0.92 a 1.54,1.54 0 0 0 -1.11,0.47 l -0.59,0.61 a 1.51,1.51 0 0 0 -0.43,1.06 v 11.17 z"
     id="path18" />
  <path
     d="m 28.7,34.480009 v -5.41 a 0.26,0.26 0 0 0 -0.07,-0.17 l -0.38,-0.38 a 0.23,0.23 0 0 0 -0.17,-0.07 h -8.61 a 0.26,0.26 0 0 0 -0.17,0.07 l -0.39,0.4 a 0.28,0.28 0 0 0 -0.07,0.17 v 5.39 h 1.57 v -4.22 a 0.24,0.24 0 0 1 0.24,-0.24 h 2 a 0.23,0.23 0 0 1 0.23,0.23 v 4.23 h 1.59 v -4.23 a 0.23,0.23 0 0 1 0.23,-0.23 h 2.17 a 0.24,0.24 0 0 1 0.24,0.24 v 4.22 z"
     id="path20" />
  <path
     id="rect22"
     d="m 0,35.950009 h 47.5 v 1.79 H 0 Z" />
</svg>
