<svg xmlns="http://www.w3.org/2000/svg" id="图层_1" data-name="图层 1" version="1.1" width="57.693" height="53.722"><defs id="defs4"><style id="style2">.cls-1{fill:#606060}</style></defs><path class="cls-1" d="M9.81 13.63l.11-.09a.27.27 0 01.17-.06l3.27.06v-1.79l-3.53-.06a1.41 1.41 0 00-.88.31l-.56.46a1.36 1.36 0 00-.5 1v21h1.79V13.83a.3.3 0 01.13-.2z" id="path8"/><path class="cls-1" d="M46.22 14.12v20.35h1.79V13.89a1.61 1.61 0 00-.44-1.1l-.74-.77a1.56 1.56 0 00-1.13-.48h-3.59v1.82h3.34a.36.36 0 01.26.11l.41.43a.39.39 0 01.1.22z" id="path10"/><path class="cls-1" id="rect12" d="M19.82 17.77h15.97v1.57H19.82z"/><path class="cls-1" id="rect14" d="M19.82 23.15h16.16v1.57H19.82z"/><path class="cls-1" d="M25.66 5.09v1.8h-2.17a.21.21 0 00-.17.08l-.13.15a.23.23 0 00-.06.16v3.25a.23.23 0 00.06.16l.16.17a.22.22 0 00.17.07h2.14v1.61a.26.26 0 00.07.17l.27.26a.23.23 0 00.16.06h3.21a.23.23 0 00.16-.06l.27-.26a.22.22 0 00.07-.17v-1.61h1.89a.27.27 0 00.15-.05l.24-.2a.23.23 0 00.08-.18V7.28a.26.26 0 00-.07-.17L32 6.96a.23.23 0 00-.16-.06h-2V5.08a.24.24 0 00-.05-.14l-.16-.21a.21.21 0 00-.18-.09h-3.4a.24.24 0 00-.17.07l-.2.21a.47.47 0 00-.02.17zm5.25 3.38v.89a.23.23 0 01-.23.23h-2.1v1.86a.23.23 0 01-.23.23h-1.11a.23.23 0 01-.23-.23V9.59h-2.3a.23.23 0 01-.23-.23v-.89a.23.23 0 01.23-.23h2.3v-2a.23.23 0 01.23-.23h1.07a.23.23 0 01.23.23v2h2.14a.23.23 0 01.23.23z" id="path16"/><path class="cls-1" d="M12.22 17.78v1.58h3.29v3.9h-3.29v1.57h3.27v3.9h-3.27v1.57h3.26v4.18h1.79l.07-27.58a.42.42 0 01.12-.3l.19-.2a.42.42 0 01.31-.13h2.42v-4a.29.29 0 01.1-.23l.1-.13a.31.31 0 01.22-.09h13.78a.53.53 0 01.34.13.52.52 0 01.17.38v3.83h2.73a.36.36 0 01.28.12l.28.31a.4.4 0 01.1.26v27.62h1.7v-4.18h3.26v-1.57h-3.26v-3.9h3.25v-1.57h-3.25v-3.89h3.25v-1.58h-3.25V6.57a1.44 1.44 0 00-.38-1l-.72-.79a1.33 1.33 0 00-1-.43h-1.23V1.5a.48.48 0 00-.17-.37l-1.1-1a.51.51 0 00-.34-.13H20.12a.5.5 0 00-.35.14l-1 1a.52.52 0 00-.16.37v2.96h-.92a1.54 1.54 0 00-1.11.47l-.59.61a1.51 1.51 0 00-.43 1.06v11.17z" id="path18"/><path class="cls-1" d="M32.81 34.48v-5.41a.26.26 0 00-.07-.17l-.38-.38a.23.23 0 00-.17-.07h-8.61a.26.26 0 00-.17.07l-.39.4a.28.28 0 00-.07.17v5.39h1.57v-4.22a.24.24 0 01.24-.24h2a.23.23 0 01.23.23v4.23h1.59v-4.23a.23.23 0 01.23-.23h2.17a.24.24 0 01.24.24v4.22z" id="path20"/><path class="cls-1" id="rect22" d="M4.11 35.95h47.5v1.79H4.11z"/><path class="cls-1" id="polygon24" transform="translate(-3.42 -2.64)" d="M5.23 51.99h-.76v-3H3.42v7.24h1.05v-3.25h.77l2.16 3.25h1.3l-2.6-3.77 2.48-3.47H7.32z"/><path class="cls-1" d="M6.63 48.74v-.59H5.58v5.45h1v-2.9c0-.61.16-1.63 1.2-1.63h.59v-1h-.46a1.59 1.59 0 00-1.28.67z" id="path26"/><path class="cls-1" d="M13.75 52.53v-4.38h-1v.65a2.12 2.12 0 00-1.68-.78 2.61 2.61 0 00-2.57 2.86 2.65 2.65 0 002.63 2.84 2 2 0 001.68-.8.86.86 0 00.85.67h.63v-.95h-.36c-.17 0-.18-.05-.18-.11zm-1-1.64a1.64 1.64 0 11-1.62-1.9 1.68 1.68 0 011.61 1.9z" id="path28"/><path class="cls-1" d="M17.58 48.02a1.87 1.87 0 00-1.5.67v-.55h-1v5.45h1v-3.23A1.31 1.31 0 0117.39 49a1.18 1.18 0 011.2 1.24v3.34h1V50.2a2 2 0 00-2.01-2.18z" id="path30"/><path class="cls-1" id="polygon32" transform="translate(-3.42 -2.64)" d="M25.84 52.8h-.7v-4.31h-1.03v7.74h1.03v-2.46h.73l1.48 2.4.04.06h1.22l-1.91-2.99 1.8-2.45h-1.21z"/><path class="cls-1" d="M27.58 48.02a2.66 2.66 0 00-2.61 2.87 2.6 2.6 0 002.61 2.83 2.44 2.44 0 002.44-1.75v-.13l-1-.24v.12a1.4 1.4 0 01-1.42 1 1.5 1.5 0 01-1.62-1.56h4.12v-.41a2.52 2.52 0 00-2.52-2.73zm-1.56 2.34a1.52 1.52 0 011.56-1.38 1.42 1.42 0 011.47 1.38z" id="path34"/><path class="cls-1" d="M33.38 48.02a1.84 1.84 0 00-1.5.67v-.54h-1v5.45h1v-3.24A1.3 1.3 0 0133.19 49a1.18 1.18 0 011.2 1.24v3.34h1v-3.37a2 2 0 00-2.01-2.19z" id="path36"/><path class="cls-1" d="M39 48.02a1.9 1.9 0 00-1.52.67v-2.84h-1v7.75h1v-3.24a1.29 1.29 0 011.33-1.3 1.2 1.2 0 011.21 1.24v3.34h1v-3.43A2 2 0 0039 48.02z" id="path38"/><path class="cls-1" d="M46.98 52.53v-4.38h-1v.65a2.12 2.12 0 00-1.68-.78 2.61 2.61 0 00-2.57 2.86 2.65 2.65 0 002.63 2.84 2 2 0 001.68-.8.85.85 0 00.85.67h.63v-.95h-.36c-.17 0-.18-.05-.18-.11zm-1-1.64a1.64 1.64 0 11-1.62-1.9 1.68 1.68 0 011.62 1.9z" id="path40"/><path class="cls-1" d="M51.76 51.36a1.31 1.31 0 01-1.31 1.36 1.18 1.18 0 01-1.2-1.24v-3.33h-1v3.39a2 2 0 002 2.18 1.87 1.87 0 001.5-.67v.54h1v-5.45h-1v3.22z" id="path42"/><path class="cls-1" d="M55.84 50.29c-.72-.14-1.16-.24-1.16-.7 0-.46.37-.64.93-.64a1 1 0 011.11.87v.15l.93-.27v-.11a1.9 1.9 0 00-2-1.57c-1.17 0-2 .65-2 1.57 0 1.22 1 1.43 1.83 1.59.83.16 1.24.28 1.24.82 0 .54-.41.79-1.07.79-.51 0-1.13-.16-1.2-1v-.15l-1 .24v.11a1.93 1.93 0 002.12 1.68c1.27 0 2.12-.71 2.12-1.76.07-1.26-1-1.46-1.85-1.62z" id="path44"/></svg>