<svg xmlns="http://www.w3.org/2000/svg" id="图层_1" data-name="图层 1" version="1.1" width="59" height="53.73"><defs id="defs4"><style id="style2">.cls-1{fill:#5fbf44}</style></defs><path class="cls-1" d="M3.97 46.35H2.66L0 53.59h1.1l.6-1.66h3.2l.6 1.66h1.1l-2.61-7.16zm.57 4.6H2.06L3.3 47.5z" id="path8"/><path class="cls-1" d="M9.52 48.01a1.87 1.87 0 00-1.5.67v-.54h-1v5.45h1v-3.24a1.3 1.3 0 011.31-1.36 1.18 1.18 0 011.2 1.24v3.34h1V50.2a2 2 0 00-2.01-2.19z" id="path10"/><path class="cls-1" id="polygon12" transform="translate(-2.58 -2.65)" d="M18.03 50.79l-1.19 4.22-1.19-4.22h-1.11l1.65 5.36.02.08h1.28l1.17-4.22 1.17 4.22h1.27l1.63-5.28.05-.16h-1.11l-1.19 4.22-1.18-4.22z"/><path class="cls-1" d="M25.5 52.52v-4.38h-1.08v.65a2.1 2.1 0 00-1.68-.78 2.61 2.61 0 00-2.57 2.86 2.65 2.65 0 002.63 2.84 2 2 0 001.68-.8.85.85 0 00.84.67h.63v-.95h-.36c-.08 0-.09-.05-.09-.11zm-1-1.64a1.64 1.64 0 11-1.62-1.9 1.68 1.68 0 011.61 1.9z" id="path14"/><path class="cls-1" id="polygon16" transform="translate(-2.58 -2.65)" d="M29.16 49.42h1.04v5.88h-1.04v.93h3.1v-.93h-1.03v-6.81h-2.07z"/><path class="cls-1" d="M31.77 46.63h-1v1.51h-1v.92h1v2.92a1.48 1.48 0 001.65 1.6h.85v-.94h-.85c-.47 0-.64-.18-.64-.67v-2.91h1.58v-.92h-1.59z" id="path18"/><path class="cls-1" d="M36.16 50.28c-.72-.14-1.16-.24-1.16-.7 0-.46.37-.64.93-.64a1 1 0 011.11.87v.15l.92-.27v-.11a1.88 1.88 0 00-2-1.57c-1.17 0-2 .65-2 1.57 0 1.22 1 1.43 1.83 1.59.83.16 1.24.28 1.24.82 0 .54-.41.79-1.07.79-.51 0-1.13-.16-1.2-1v-.15l-1 .24v.11a1.93 1.93 0 002.11 1.68c1.27 0 2.12-.71 2.12-1.76.09-1.26-.98-1.46-1.83-1.62z" id="path20"/><path class="cls-1" d="M41.68 48.01a2.14 2.14 0 00-1.69.78v-2.95h-1v7.75h1v-.64a2.07 2.07 0 001.66.78 2.66 2.66 0 002.63-2.84 2.62 2.62 0 00-2.6-2.88zm1.52 2.87a1.64 1.64 0 11-1.61-1.9 1.69 1.69 0 011.61 1.9z" id="path22"/><path class="cls-1" d="M48.01 47.35a.64.64 0 100-1.28.64.64 0 000 1.28z" id="path24"/><path class="cls-1" d="M48.42 51.35a1.31 1.31 0 01-1.31 1.36 1.18 1.18 0 01-1.2-1.24v-3.33h-1v3.39a2 2 0 002 2.18 1.84 1.84 0 001.5-.67v.54h1v-5.45h-.99z" id="path26"/><circle class="cls-1" cx="46.36" cy="46.72" r=".64" id="circle28"/><path class="cls-1" d="M51.51 48.73v-.59h-1v5.45h1v-2.9c0-.61.16-1.63 1.2-1.63h.59v-1h-.46a1.59 1.59 0 00-1.33.67z" id="path30"/><path class="cls-1" d="M56.16 48.01a2.77 2.77 0 00-2.81 2.85 2.73 2.73 0 002.8 2.85 2.85 2.85 0 000-5.7zm0 4.73a1.74 1.74 0 01-1.74-1.88 1.76 1.76 0 111.75 1.88z" id="path32"/><path class="cls-1" d="M42.56 16.35v-6.24a1.65 1.65 0 00-.78-1.41l-3.55-2.2-.91 1.46 3.52 2.18v6.21H15.69v4.5A2 2 0 0016 21.9l2 3.07v10.82a2.12 2.12 0 002.14 2.09h20.63a2.14 2.14 0 001.54-.64 2 2 0 00.6-1.46V25.11l2-3.12a1.88 1.88 0 00.33-1.08v-4.56zm1 4.55a.19.19 0 010 .12l-2.27 3.57v11.18a.32.32 0 01-.1.24.44.44 0 01-.32.13H20.13a.39.39 0 01-.42-.37V24.45l-2.29-3.49a.2.2 0 010-.11v-2.77h26.1v2.82z" id="path34"/><path class="cls-1" d="M29.6 7.24a3.62 3.62 0 10-3.62-3.62 3.63 3.63 0 003.62 3.62zm0-5.51a1.89 1.89 0 11-1.89 1.89 1.89 1.89 0 011.89-1.89z" id="path36"/><path class="cls-1" d="M23.54 15.28v-2.93a.12.12 0 010-.08l3.88-2.51 1.34 1.11a1.29 1.29 0 001.59.05l1.67-1.22 3.8 2.24a.1.1 0 01.06.09v3.32h1.72v-3.3a1.82 1.82 0 00-.92-1.58l-4.09-2.41a1.25 1.25 0 00-1.33.08L29.6 9.35l-1.37-1.13a1.22 1.22 0 00-1.46-.08l-4.16 2.7a1.79 1.79 0 00-.82 1.51v2.94z" id="path38"/><path class="cls-1" id="rect40" d="M21.27 21.29h17.57v1.72H21.27z"/><path class="cls-1" d="M29.35 31.35h8.33v-5.63h-8.33zm1.73-3.9h4.88v2.18h-4.88z" id="path42"/></svg>