<?xml version="1.0" encoding="UTF-8" standalone="no"?>
<svg
   xmlns:dc="http://purl.org/dc/elements/1.1/"
   xmlns:cc="http://creativecommons.org/ns#"
   xmlns:rdf="http://www.w3.org/1999/02/22-rdf-syntax-ns#"
   xmlns:svg="http://www.w3.org/2000/svg"
   xmlns="http://www.w3.org/2000/svg"
   xmlns:sodipodi="http://sodipodi.sourceforge.net/DTD/sodipodi-0.dtd"
   xmlns:inkscape="http://www.inkscape.org/namespaces/inkscape"
   id="图层_1"
   data-name="图层 1"
   version="1.1"
   width="29.550068"
   height="37.880096"
   sodipodi:docname="lawyer_icon.svg"
   inkscape:version="1.0.1 (3bc2e813f5, 2020-09-07)">
  <metadata
     id="metadata25">
    <rdf:RDF>
      <cc:Work
         rdf:about="">
        <dc:format>image/svg+xml</dc:format>
        <dc:type
           rdf:resource="http://purl.org/dc/dcmitype/StillImage" />
        <dc:title></dc:title>
      </cc:Work>
    </rdf:RDF>
  </metadata>
  <defs
     id="defs23" />
  <sodipodi:namedview
     pagecolor="#ffffff"
     bordercolor="#666666"
     borderopacity="1"
     objecttolerance="10"
     gridtolerance="10"
     guidetolerance="10"
     inkscape:pageopacity="0"
     inkscape:pageshadow="2"
     inkscape:window-width="1680"
     inkscape:window-height="987"
     id="namedview21"
     showgrid="false"
     fit-margin-top="0"
     fit-margin-left="0"
     fit-margin-right="0"
     fit-margin-bottom="0"
     inkscape:zoom="13.679509"
     inkscape:cx="13.81"
     inkscape:cy="21.016837"
     inkscape:window-x="-8"
     inkscape:window-y="-8"
     inkscape:window-maximized="1"
     inkscape:current-layer="图层_1" />
  <path
     d="M 26.87,16.35 V 10.11 A 1.65,1.65 0 0 0 26.09,8.7 l -3.55,-2.2 -0.91,1.46 3.52,2.18 v 6.21 H 0 v 4.5 a 2,2 0 0 0 0.31,1.05 l 2,3.07 v 10.82 a 2.12,2.12 0 0 0 2.14,2.09 h 20.63 a 2.14,2.14 0 0 0 1.54,-0.64 2,2 0 0 0 0.6,-1.46 V 25.11 l 2,-3.12 a 1.88,1.88 0 0 0 0.33,-1.08 v -4.56 z m 1,4.55 a 0.19,0.19 0 0 1 0,0.12 l -2.27,3.57 v 11.18 a 0.32,0.32 0 0 1 -0.1,0.24 0.44,0.44 0 0 1 -0.32,0.13 H 4.44 A 0.39,0.39 0 0 1 4.02,35.77 V 24.45 L 1.73,20.96 a 0.2,0.2 0 0 1 0,-0.11 v -2.77 h 26.1 v 2.82 z"
     id="path34" />
  <path
     d="m 13.91,7.24 a 3.62,3.62 0 1 0 -3.62,-3.62 3.63,3.63 0 0 0 3.62,3.62 z m 0,-5.51 a 1.89,1.89 0 1 1 -1.89,1.89 1.89,1.89 0 0 1 1.89,-1.89 z"
     id="path36" />
  <path
     d="m 7.85,15.28 v -2.93 a 0.12,0.12 0 0 1 0,-0.08 l 3.88,-2.51 1.34,1.11 a 1.29,1.29 0 0 0 1.59,0.05 l 1.67,-1.22 3.8,2.24 a 0.1,0.1 0 0 1 0.06,0.09 v 3.32 h 1.72 v -3.3 A 1.82,1.82 0 0 0 20.99,10.47 L 16.9,8.06 A 1.25,1.25 0 0 0 15.57,8.14 L 13.91,9.35 12.54,8.22 A 1.22,1.22 0 0 0 11.08,8.14 l -4.16,2.7 A 1.79,1.79 0 0 0 6.1,12.35 v 2.94 z"
     id="path38" />
  <path
     id="rect40"
     d="m 5.58,21.29 h 17.57 v 1.72 H 5.58 Z" />
  <path
     d="m 13.66,31.35 h 8.33 v -5.63 h -8.33 z m 1.73,-3.9 h 4.88 v 2.18 h -4.88 z"
     id="path42" />
</svg>
