<svg id="图层_1" data-name="图层 1" xmlns="http://www.w3.org/2000/svg" viewBox="0 0 111.64 80.11"><defs><style>.cls-1{fill:#5fbf44;}</style></defs><title>未标题-2</title><path class="cls-1" d="M27.86,23.59A11.8,11.8,0,1,0,16,11.8,11.85,11.85,0,0,0,27.86,23.59Zm0-18.45a6.66,6.66,0,1,1-6.71,6.66A6.68,6.68,0,0,1,27.86,5.14Z"/><path class="cls-1" d="M105,14.63H93.22L86.69,6.71a5.41,5.41,0,0,0-4.2-2h0a5.42,5.42,0,0,0-4.2,2l-6.41,7.89H59.64A6.65,6.65,0,0,0,53,21.27v8.32h5.27V21.27a1.38,1.38,0,0,1,1.37-1.37H105a1.37,1.37,0,0,1,1.36,1.37V70.91A1.36,1.36,0,0,1,105,72.28H59.64a1.37,1.37,0,0,1-1.37-1.37V53.49H53V70.91a6.65,6.65,0,0,0,6.64,6.64H105a6.65,6.65,0,0,0,6.64-6.64V21.27A6.65,6.65,0,0,0,105,14.63Zm-26.35,0,3.71-4.57a.16.16,0,0,1,.13-.06h3c.08,0-2.88,0-2.87.06l3.77,4.57Z"/><path class="cls-1" d="M71.4,48l13.22-12-3.54-3.91-13.22,12a4.26,4.26,0,0,1-5.81-.05l-7-6.49-4.61-4.2a19.57,19.57,0,0,0-13.2-5.15H19.84a19.4,19.4,0,0,0-11.69,3.9A20.48,20.48,0,0,0,0,48.49V77.65H5.27V48.49a15.19,15.19,0,0,1,6-12.15,14.15,14.15,0,0,1,8.54-2.85H37.26a14.33,14.33,0,0,1,9.65,3.76l4.59,4.19,7,6.47A9.52,9.52,0,0,0,71.4,48Z"/><path class="cls-1" d="M40.43,70.61a1.39,1.39,0,0,1-.3.87l-2.42,3.09a1.39,1.39,0,0,1-1.11.54H18.8a1.39,1.39,0,0,1-1.11-.54l-2.42-3.09a1.39,1.39,0,0,1-.3-.87V53.49H10V70.61a6.41,6.41,0,0,0,1.36,4l2.43,3.1a6.36,6.36,0,0,0,5,2.45H36.6a6.36,6.36,0,0,0,5-2.45l2.43-3.09a6.46,6.46,0,0,0,1.36-4V53.49h-5Z"/></svg>