<svg id="图层_1" data-name="图层 1" xmlns="http://www.w3.org/2000/svg" viewBox="0 0 321.73 74.3"><defs><style>.cls-1{fill:#5fbf44;stroke-width:0.35px;}.cls-1,.cls-2{stroke:#5fbf44;stroke-miterlimit:10;}.cls-2{fill:none;}</style></defs><title>警察部分说明</title><path class="cls-1" d="M29,4.36l.05,0q3,11.34,6.07,22.69c2.08,0,4.1,0,6.13,0,.13,0,.32-.24.36-.39q3-10.93,5.92-21.88c0-.12.09-.24.15-.41V27H53V.16H43.81C42,7.21,40.18,14.25,38.45,21,36.71,14.25,34.89,7.21,33.07.17h-9.3V27H29Z"/><path class="cls-1" d="M98,26.61c0-6.06,0-12.12,0-18.17V7.87H92.64v2.19h-.09l-.25-.29a5.84,5.84,0,0,0-2.8-2A8,8,0,0,0,79.82,12a11.89,11.89,0,0,0-.77,7.9c.85,4,3.81,7,8,7a5.83,5.83,0,0,0,5.39-2.67s.07-.05.25-.16c-.1,1.52-.09,2.95-.3,4.35A2.88,2.88,0,0,1,89.69,31a8.31,8.31,0,0,1-2.17-.07,2.67,2.67,0,0,1-2.38-2.24c0-.19-.09-.37-.13-.57l-5.19.34a4.5,4.5,0,0,0,0,.52,5.88,5.88,0,0,0,3.71,5,13.44,13.44,0,0,0,7.6.77C95.36,34,98.06,31.36,98,26.61Zm-5.67-6.42a3.93,3.93,0,0,1-5.89,2.32A3.56,3.56,0,0,1,84.9,20a13.46,13.46,0,0,1,0-5.79,3.49,3.49,0,0,1,3.63-3,4,4,0,0,1,2.51.59,4,4,0,0,1,1.46,2.4A32.07,32.07,0,0,1,92.62,19,10.89,10.89,0,0,1,92.37,20.19Z"/><path class="cls-1" d="M147.71,26.37c0-3.29,0-6.59,0-9.89a10.77,10.77,0,0,1,.12-1.6,3.66,3.66,0,0,1,4.44-3.33,2.84,2.84,0,0,1,2.35,2.17,9.26,9.26,0,0,1,.18,1.74c0,3.67,0,7.34,0,11V27l.29,0h5.09V26.4c0-3.48,0-6.95,0-10.43,0-1.16-.08-2.33-.18-3.49a5.45,5.45,0,0,0-4.37-4.86,11.08,11.08,0,0,0-2.22-.23c-2.37,0-4.37.71-5.6,2.92,0,0-.08.07-.19.17V.18h-5.26V27h5.35Z"/><path class="cls-1" d="M182.69,18.82a14.25,14.25,0,0,0-1.42-7A7.68,7.68,0,0,0,176.6,7.9a11.71,11.71,0,0,0-7.1,0,8,8,0,0,0-5.56,5.41,13.17,13.17,0,0,0-.31,7.07,8.42,8.42,0,0,0,5.65,6.53,12.19,12.19,0,0,0,6.11.41,7.91,7.91,0,0,0,6.86-5.86,3.32,3.32,0,0,0,.08-.41l-5.15-.45c-.68,3.13-3.38,3.45-5.77,2.86-2-.49-2.89-2.66-2.7-4.63Zm-10.31-7.69c3.22-.24,4.71,1.46,4.79,4h-8.44A3.91,3.91,0,0,1,172.38,11.13Z"/><path class="cls-1" d="M61.76,26.57a11.76,11.76,0,0,0,4.81.93c.33,0,.74,0,1.14-.07a8.93,8.93,0,0,0,7.6-4.86,10.86,10.86,0,0,0,1-7.34,9,9,0,0,0-6.44-7.4,11.51,11.51,0,0,0-4.48-.39,8.88,8.88,0,0,0-7.56,4.77,11.54,11.54,0,0,0-.61,9.26A8.17,8.17,0,0,0,61.76,26.57Zm.89-12.34a3.44,3.44,0,0,1,3.59-3,6.1,6.1,0,0,1,1.21,0,3.46,3.46,0,0,1,3,3.15c.17,1,.25,2,.37,3.06-.13,1-.21,2.14-.44,3.22a3.34,3.34,0,0,1-3.53,2.91,7,7,0,0,1-1.21-.05,3.33,3.33,0,0,1-2.95-2.84A14.31,14.31,0,0,1,62.65,14.23Z"/><path class="cls-1" d="M133.87,21.23a3.29,3.29,0,0,1-3.16,2.25,3.33,3.33,0,0,1-3.06-1.12,5.23,5.23,0,0,1-.85-1.93,14.61,14.61,0,0,1,0-6.14,3.19,3.19,0,0,1,1.9-2.55,5.47,5.47,0,0,1,1.79-.35,2.91,2.91,0,0,1,3.13,1.9c.23.61.45,1.23.69,1.9l5-.86c-.07-.32-.11-.59-.19-.85-.84-2.8-2.46-4.89-5.38-5.71a12.24,12.24,0,0,0-5.45-.21,8.46,8.46,0,0,0-6.79,5.34,12.31,12.31,0,0,0-.29,8.44A8,8,0,0,0,126.8,27a12.09,12.09,0,0,0,6.82.14,7.68,7.68,0,0,0,5.67-5.61,7.52,7.52,0,0,0,.15-.77l-5.19-.53C134.11,20.59,134,20.92,133.87,21.23Z"/><path class="cls-1" d="M107.65.18h-5.3V27h5.3Z"/><path class="cls-1" d="M117.34,7.86H112V27h5.32Z"/><path class="cls-1" d="M117.33-.19H112V5.29h5.31Z"/><path class="cls-1" d="M42.25,52.66c-.3-.15-.61-.27-1-.43l.3-.17a6,6,0,0,0,3.32-5.2c.16-3.34-1.13-5.75-4.51-6.87A14.63,14.63,0,0,0,36,39.23c-3.9-.06-7.79-.06-11.69-.09a1.67,1.67,0,0,0-.29,0V66l.19,0c4.35,0,8.7,0,13-.11a13.21,13.21,0,0,0,4.84-1,5.61,5.61,0,0,0,3.52-3.72,10.87,10.87,0,0,0,.35-2.73A6,6,0,0,0,42.25,52.66Zm-12.45-9h3c1.15,0,2.3,0,3.45.13,2.59.24,3.25,1.58,2.94,3.87a2.36,2.36,0,0,1-2.24,2.14,18.69,18.69,0,0,1-2.47.2c-1.54,0-3.08,0-4.66,0Zm10.34,15.6a2.54,2.54,0,0,1-2.66,2c-2.52.14-5,.12-7.58.17,0,0-.06,0-.1,0V54.59h.79c2.12,0,4.25.08,6.37.14A4.38,4.38,0,0,1,38.2,55a2.69,2.69,0,0,1,2.06,2.64A7.36,7.36,0,0,1,40.14,59.29Z"/><path class="cls-1" d="M321.53,47.22h-5.39v2.34c-1.86-2.59-4.34-3.19-7.18-2.65a7.73,7.73,0,0,0-5.63,4.45,11.72,11.72,0,0,0-.78,7.8c.81,4,3.78,7,8.08,7.07A5.85,5.85,0,0,0,316,63.58a.18.18,0,0,1,.08-.08c0,1.23.09,2.47,0,3.68a3.08,3.08,0,0,1-2.24,3,5.9,5.9,0,0,1-3,0A2.69,2.69,0,0,1,308.64,68l-.12-.52-5.17.34a1.08,1.08,0,0,0,0,.19,1.93,1.93,0,0,0,0,.24A5.88,5.88,0,0,0,307,73.3a13.32,13.32,0,0,0,7.79.73c4.52-.84,6.71-3.55,6.7-8.16V47.22ZM316,59.31c-.76,3.12-3.43,3.59-5.69,2.68a3.29,3.29,0,0,1-1.86-2.64,13.62,13.62,0,0,1,0-5.79,3.5,3.5,0,0,1,3.52-3,4.48,4.48,0,0,1,2.23.36,3.52,3.52,0,0,1,1.78,2.41,32,32,0,0,1,.13,5.34c0,.09,0,.14,0,.21A2.7,2.7,0,0,1,316,59.31Z"/><path class="cls-1" d="M92.49,46.85c-1,4.93-1.95,9.85-2.92,14.72L86.43,46.86h-5.5c-1.11,4.93-2.22,9.84-3.29,14.58-.92-4.74-1.88-9.66-2.84-14.58H69.25a1.88,1.88,0,0,0,0,.22l2.55,9q1.35,4.77,2.72,9.54c.05.16.23.4.35.41,1.83,0,3.66,0,5.57,0L83.6,51.69,86.75,66h5.83Q95.3,56.42,98,46.85Z"/><path class="cls-1" d="M218.49,51.6a5.58,5.58,0,0,0-4.54-5c-.54-.08-1.09-.13-1.64-.16-2.6-.14-4.77.59-6.21,3V39.18h-5.29V66h5.35V55.75c0-.51,0-1,.08-1.51.2-2.08,1.51-4.05,4.32-3.72a2.89,2.89,0,0,1,2.57,2.35,10.67,10.67,0,0,1,.12,1.6q0,5.51,0,11V66h5.38v-.61c0-3.64,0-7.28,0-10.91C218.63,53.51,218.55,52.56,218.49,51.6Z"/><path class="cls-1" d="M67.68,57.81c0-3-.36-5.86-2.24-8.29a7.56,7.56,0,0,0-4-2.67,11.82,11.82,0,0,0-6.72-.05,8.22,8.22,0,0,0-6,6,13.5,13.5,0,0,0-.19,6.41,8.39,8.39,0,0,0,6,6.79,12.32,12.32,0,0,0,7.24,0,7.74,7.74,0,0,0,5.41-5.46c0-.15.06-.3.1-.48l-5.14-.45c-.75,3.2-3.43,3.41-5.71,2.89-2-.47-2.95-2.55-2.79-4.66ZM58,50.1c2.56,0,4.05,1.37,4.21,4H53.69A4,4,0,0,1,58,50.1Z"/><path class="cls-1" d="M111.69,66.3a7.92,7.92,0,0,0,6.87-5.86c0-.11,0-.24.09-.41l-5.16-.45c-.69,3-3,3.36-5.38,3s-3.18-2.32-3.14-4.72h.61c4.3,0,8.61,0,12.91,0,.41,0,.53-.12.52-.52a16.4,16.4,0,0,0-.61-4.57A8.08,8.08,0,0,0,113.15,47a11.53,11.53,0,0,0-7.56,0,8,8,0,0,0-5.34,5.33,13.27,13.27,0,0,0-.31,7.07,8.43,8.43,0,0,0,5.64,6.53A12.19,12.19,0,0,0,111.69,66.3Zm-2.41-16.21c2.64,0,4.15,1.49,4.19,4H105A3.92,3.92,0,0,1,109.28,50.09Z"/><path class="cls-1" d="M241.15,57.19a14.72,14.72,0,0,0-.56-4.33,8.14,8.14,0,0,0-5.49-6,11.61,11.61,0,0,0-7.14,0,8.09,8.09,0,0,0-5.53,5.32,13.46,13.46,0,0,0-.4,6.87A8.6,8.6,0,0,0,226,65a10,10,0,0,0,5.28,1.45A11.25,11.25,0,0,0,237,65.25,8,8,0,0,0,240.84,60l-5.2-.45c-.68,2.89-2.8,3.38-5.35,3-2.21-.35-3.23-2.27-3.15-4.72h14C241.13,57.57,241.15,57.38,241.15,57.19Zm-14-3.1a3.86,3.86,0,0,1,3.5-3.94,8.59,8.59,0,0,1,2,.09c1.83.34,2.87,1.76,2.91,3.85Z"/><path class="cls-1" d="M299,52.63a5.74,5.74,0,0,0-2.78-5,6.92,6.92,0,0,0-3.79-.89c-2.42,0-4.54.65-5.72,3,0,0-.05,0-.14.05v-2.6H281.3V66.35h5.34v-.57c0-3.25,0-6.49,0-9.74a13,13,0,0,1,.1-1.65c.22-1.87,1.41-3.78,4.14-3.52a2.76,2.76,0,0,1,2.68,2.48,13.7,13.7,0,0,1,.11,1.69c0,3.61,0,7.21,0,10.82v.49h5.43c0-3.53,0-7,0-10.51C299.11,54.77,299.06,53.7,299,52.63Z"/><path class="cls-1" d="M271.65,47.78c0,3.3,0,6.59,0,9.89a12,12,0,0,1-.12,1.69c-.28,2-1.42,3.22-3.17,3.4-2.05.22-3.41-.8-3.61-2.7a19,19,0,0,1-.11-2c0-3.42,0-6.85,0-10.27v-.58h-5.49v.52c0,2.42,0,4.84,0,7.26,0,1.88,0,3.76.12,5.64a6.08,6.08,0,0,0,2.61,5,7.39,7.39,0,0,0,4.33,1.23A5.59,5.59,0,0,0,271.6,64s.06,0,.15-.11v2.47h5.18V47.22h-5.28Z"/><path class="cls-1" d="M160.85,62.57a5.58,5.58,0,0,1-3.63.1,2.93,2.93,0,0,1-2.12-2.43c0-.21-.06-.41-.09-.67l-5.08.65a5.92,5.92,0,0,0,3.79,5.29,13.36,13.36,0,0,0,9.38.33c3.15-1,4.5-3.19,4.07-6.44a4.81,4.81,0,0,0-3.12-3.87,33.94,33.94,0,0,0-3.74-1.2c-1.22-.37-2.46-.68-3.67-1.09a1.43,1.43,0,0,1-1-1.5,1.62,1.62,0,0,1,1.15-1.52,4.72,4.72,0,0,1,2.73-.2,2.64,2.64,0,0,1,2.21,2.29l.13.69,4.89-.83a5.44,5.44,0,0,0-2.39-4.32,8,8,0,0,0-3.39-1.26,12.16,12.16,0,0,0-7.2.71c-2.65,1.21-3.54,3.36-3.1,6.1a4.46,4.46,0,0,0,2.88,3.43c1.44.61,3,1,4.46,1.49,1,.34,2.09.6,3.1,1a1.53,1.53,0,0,1,.88,2.16A1.79,1.79,0,0,1,160.85,62.57Z"/><path class="cls-1" d="M145.72,56.06a6.33,6.33,0,0,0-1.41-.74c-1.08-.38-2.2-.67-3.3-1s-2.49-.69-3.71-1.12a1.39,1.39,0,0,1-1-1.49,1.45,1.45,0,0,1,1-1.43,7.34,7.34,0,0,1,2.13-.33,2.78,2.78,0,0,1,3,2.72c0,.09,0,.19,0,.33l4.9-.83a1,1,0,0,0,0-.23,5.56,5.56,0,0,0-3.78-4.81,13.07,13.07,0,0,0-7.43-.44,6.7,6.7,0,0,0-3.81,2.1,5.2,5.2,0,0,0,1.31,7.79,6.28,6.28,0,0,0,1.23.58c1.25.41,2.51.78,3.76,1.17,1,.29,1.93.56,2.88.89a1.56,1.56,0,0,1,1.19,1.28,1.9,1.9,0,0,1-1.29,2.1,5.56,5.56,0,0,1-3.35.12A3,3,0,0,1,135.79,60c0-.13,0-.25-.06-.41l-5,.65v.29a5.92,5.92,0,0,0,4,5.09,13.4,13.4,0,0,0,10-.06,4.89,4.89,0,0,0,3.29-4.23C148.15,59.16,147.66,57.3,145.72,56.06Z"/><path class="cls-1" d="M192.58,59.56c-.74,2.32-2.2,3.23-4.59,2.85a3.2,3.2,0,0,1-2.7-2.88,14.85,14.85,0,0,1,0-6.33,3.19,3.19,0,0,1,1.82-2.45,5.07,5.07,0,0,1,1.55-.35c1.66-.1,2.76.27,3.44,1.91.25.61.44,1.24.67,1.88l5-.87c-.05-.26-.07-.49-.13-.7-.81-2.87-2.43-5-5.41-5.86a12.21,12.21,0,0,0-5.41-.21,8.46,8.46,0,0,0-6.73,5.07,12.3,12.3,0,0,0-.48,8.43A8.09,8.09,0,0,0,185,65.88a12.65,12.65,0,0,0,5.15.55,8.4,8.4,0,0,0,6.05-2.91,7.41,7.41,0,0,0,1.72-3.8l-5.2-.53C192.66,59.35,192.62,59.45,192.58,59.56Z"/><path class="cls-1" d="M250.13,50.5l-.1-.07V47.21h-5.25V66.36h5.34v-.52c0-2.69,0-5.38,0-8.08a13.17,13.17,0,0,1,.2-2.17,4.36,4.36,0,0,1,3.9-3.94,20.08,20.08,0,0,1,2.53-.18V46.74C253.8,46.65,251.33,47.41,250.13,50.5Z"/><path class="cls-1" d="M122.27,66h5.31V46.86h-5.31Z"/><path class="cls-1" d="M170.49,66h5.31V46.86h-5.31Z"/><path class="cls-1" d="M127.57,38.78h-5.31v5.48h5.31Z"/><path class="cls-1" d="M170.49,44.27h5.32V38.79h-5.32Z"/><path class="cls-1" d="M72.6.29H67.75v5H72.6Z"/><path class="cls-1" d="M65.24.58c0-.32-.19-.32-.41-.32-.83,0-1.66,0-2.48,0h-2v5h4.87C65.23,3.69,65.23,2.14,65.24.58Z"/><path class="cls-2" d="M11.1,12.58H1.85a.83.83,0,0,1-.59-.25L.83,11.9a.83.83,0,0,1-.25-.59V3.07"/><polyline class="cls-2" points="6.84 8.38 11.1 12.58 6.84 16.57"/></svg>