<?xml version="1.0" encoding="UTF-8" standalone="no"?>
<svg
   xmlns:dc="http://purl.org/dc/elements/1.1/"
   xmlns:cc="http://creativecommons.org/ns#"
   xmlns:rdf="http://www.w3.org/1999/02/22-rdf-syntax-ns#"
   xmlns:svg="http://www.w3.org/2000/svg"
   xmlns="http://www.w3.org/2000/svg"
   xmlns:sodipodi="http://sodipodi.sourceforge.net/DTD/sodipodi-0.dtd"
   xmlns:inkscape="http://www.inkscape.org/namespaces/inkscape"
   id="图层_1"
   data-name="图层 1"
   viewBox="0 0 167.24696 15.046747"
   version="1.1"
   sodipodi:docname="link_110_inactive.svg"
   width="167.24696"
   height="15.046747"
   inkscape:version="1.0.1 (3bc2e813f5, 2020-09-07)">
  <metadata
     id="metadata27">
    <rdf:RDF>
      <cc:Work
         rdf:about="">
        <dc:format>image/svg+xml</dc:format>
        <dc:type
           rdf:resource="http://purl.org/dc/dcmitype/StillImage" />
        <dc:title>警察部分说明</dc:title>
      </cc:Work>
    </rdf:RDF>
  </metadata>
  <sodipodi:namedview
     objecttolerance="10"
     gridtolerance="10"
     guidetolerance="10"
     inkscape:pageopacity="0"
     inkscape:pageshadow="2"
     inkscape:window-width="1120"
     inkscape:window-height="637"
     id="namedview25"
     showgrid="false"
     fit-margin-top="0"
     fit-margin-left="0"
     fit-margin-right="0"
     fit-margin-bottom="0"
     inkscape:zoom="1.8089816"
     inkscape:cx="42.484221"
     inkscape:cy="-15.275995"
     inkscape:window-x="-8"
     inkscape:window-y="686"
     inkscape:window-maximized="1"
     inkscape:current-layer="图层_1"
     inkscape:document-rotation="0" />
  <defs
     id="defs4">
    <style
       id="style2">.cls-2{fill:none;}.cls-2,.cls-3{stroke:#606060;stroke-miterlimit:10;}.cls-3{font-size:16px;fill:#606060;stroke-width:0.5px;font-family:Archia-Regular, Archia;letter-spacing:-0.03em;}.cls-4{letter-spacing:-0.04em;}.cls-5{letter-spacing:-0.04em;}</style>
  </defs>
  <path
     class="cls-2"
     d="M 11,9.33 H 1.7700002 a 0.86,0.86 0 0 1 -0.6,-0.25 L 0.75000016,8.65 a 0.82,0.82 0 0 1 -0.25,-0.59 V 0"
     id="path10" />
  <polyline
     class="cls-2"
     points="6.76 5.13 11.02 9.33 6.76 13.32"
     id="polyline12" />
  <g
     aria-label="Notruf 110 wählen   "
     transform="scale(0.99498744,1.0050378)"
     id="text22"
     style="font-size:16px;font-family:Archia-Regular, Archia;letter-spacing:-0.03em;fill:#606060;stroke:#606060;stroke-width:0.5px;stroke-miterlimit:10"
     class="cls-3">
    <path
       d="m 22.806299,14.516867 h 1.296 V 4.5008667 h 0.096 l 4.992,10.0160003 h 2.176 V 3.3168667 h -1.28 V 13.332867 h -0.096 l -5.056,-10.0160003 h -2.128 z"
       style="font-size:16px;font-family:Archia-Regular, Archia;letter-spacing:-0.03em;fill:#606060;stroke:#606060;stroke-width:0.5px;stroke-miterlimit:10"
       id="path1806" />
    <path
       d="m 37.622279,14.724867 c 2.496,0 4.352,-1.872 4.352,-4.368 0,-2.4960003 -1.824,-4.3680003 -4.336,-4.3680003 -2.48,0 -4.352,1.856 -4.352,4.3680003 0,2.528 1.84,4.368 4.336,4.368 z m 0,-1.152 c -1.776,0 -3.04,-1.344 -3.04,-3.216 0,-1.8240003 1.248,-3.2160003 3.04,-3.2160003 1.792,0 3.056,1.376 3.056,3.2160003 0,1.856 -1.264,3.216 -3.056,3.216 z"
       style="font-size:16px;font-family:Archia-Regular, Archia;letter-spacing:-0.03em;fill:#606060;stroke:#606060;stroke-width:0.5px;stroke-miterlimit:10"
       id="path1808" />
    <path
       d="m 47.030273,14.516867 h 1.184 v -1.104 h -1.2 c -0.88,0 -1.248,-0.384 -1.248,-1.28 V 7.2688667 h 2.56 v -1.072 h -2.56 v -2.416 h -1.184 v 2.416 h -1.648 v 1.072 h 1.568 v 4.8800003 c 0,1.68 1.008,2.368 2.528,2.368 z"
       style="font-size:16px;font-family:Archia-Regular, Archia;letter-spacing:-0.03em;fill:#606060;stroke:#606060;stroke-width:0.5px;stroke-miterlimit:10"
       id="path1810" />
    <path
       d="m 50.166259,14.516867 h 1.264 v -4.448 c 0,-1.5840003 0.624,-2.8160003 2.144,-2.8160003 h 0.752 v -1.264 h -0.544 c -1.216,0 -2.032,0.896 -2.272,1.6 h -0.096 v -1.392 h -1.248 z"
       style="font-size:16px;font-family:Archia-Regular, Archia;letter-spacing:-0.03em;fill:#606060;stroke:#606060;stroke-width:0.5px;stroke-miterlimit:10"
       id="path1812" />
    <path
       d="m 58.870252,14.724867 c 1.296,0 2.192,-0.672 2.544,-1.424 h 0.096 v 1.216 h 1.264 V 6.1968667 h -1.264 v 4.9920003 c 0,1.376 -1.024,2.384 -2.336,2.384 -1.168,0 -2.144,-0.864 -2.144,-2.192 V 6.1968667 h -1.264 v 5.2320003 c 0,1.84 1.168,3.296 3.104,3.296 z"
       style="font-size:16px;font-family:Archia-Regular, Archia;letter-spacing:-0.03em;fill:#606060;stroke:#606060;stroke-width:0.5px;stroke-miterlimit:10"
       id="path1814" />
    <path
       d="m 65.622242,14.516867 h 1.264 V 7.2688667 h 2.432 v -1.072 h -2.432 v -1.296 c 0,-0.896 0.368,-1.28 1.248,-1.28 h 1.12 v -1.104 h -1.104 c -1.52,0 -2.528,0.688 -2.528,2.368 v 1.312 h -1.568 v 1.072 h 1.568 z"
       style="font-size:16px;font-family:Archia-Regular, Archia;letter-spacing:-0.03em;fill:#606060;stroke:#606060;stroke-width:0.5px;stroke-miterlimit:10"
       id="path1816" />
    <path
       d="m 75.446212,14.516867 h 5.68 v -1.184 h -2.112 V 3.3168667 h -1.536 l -2.48,1.28 v 1.264 l 2.624,-1.36 h 0.096 v 8.8320003 h -2.272 z"
       style="font-size:16px;font-family:Archia-Regular, Archia;letter-spacing:-0.03em;fill:#606060;stroke:#606060;stroke-width:0.5px;stroke-miterlimit:10"
       id="path1818" />
    <path
       d="m 83.414211,14.516867 h 5.68 v -1.184 h -2.112 V 3.3168667 h -1.536 l -2.48,1.28 v 1.264 l 2.624,-1.36 h 0.096 v 8.8320003 h -2.272 z"
       style="font-size:16px;font-family:Archia-Regular, Archia;letter-spacing:-0.03em;fill:#606060;stroke:#606060;stroke-width:0.5px;stroke-miterlimit:10"
       id="path1820" />
    <path
       d="m 94.470209,14.724867 c 1.824,0 3.616,-1.328 3.616,-3.552 V 6.6608667 c 0,-2.224 -1.792,-3.552 -3.616,-3.552 -1.824,0 -3.616,1.328 -3.616,3.552 v 4.5120003 c 0,2.224 1.792,3.552 3.616,3.552 z m 0,-1.232 c -1.36,0 -2.336,-1.024 -2.336,-2.4 V 6.7408667 c 0,-1.36 0.992,-2.4 2.336,-2.4 1.344,0 2.336,1.04 2.336,2.4 v 4.3520003 c 0,1.376 -0.976,2.4 -2.336,2.4 z"
       style="font-size:16px;font-family:Archia-Regular, Archia;letter-spacing:-0.03em;fill:#606060;stroke:#606060;stroke-width:0.5px;stroke-miterlimit:10"
       id="path1822" />
    <path
       d="m 106.32496,14.516867 h 1.76 l 2.016,-7.1360003 h 0.096 l 2,7.1360003 h 1.76 l 2.608,-8.3200003 h -1.376 l -2.048,7.1360003 h -0.096 l -2.016,-7.1360003 h -1.76 l -2.032,7.1360003 h -0.096 l -2.032,-7.1360003 h -1.376 z"
       style="letter-spacing:-0.04em;stroke-width:0.497494px"
       id="path1824" />
    <path
       d="m 120.1667,4.5648667 c 0.496,0 0.832,-0.352 0.832,-0.832 0,-0.464 -0.336,-0.832 -0.832,-0.832 -0.464,0 -0.832,0.368 -0.832,0.832 0,0.48 0.368,0.832 0.832,0.832 z m 2.688,0 c 0.464,0 0.832,-0.352 0.832,-0.832 0,-0.464 -0.368,-0.832 -0.832,-0.832 -0.496,0 -0.832,0.352 -0.832,0.832 0,0.48 0.336,0.832 0.832,0.832 z m -1.584,10.1600003 c 1.808,0 2.576,-1.184 2.784,-1.52 h 0.096 v 0.08 c 0.016,0.72 0.528,1.232 1.216,1.232 h 0.816 v -1.12 h -0.384 c -0.256,0 -0.416,-0.128 -0.416,-0.384 V 6.1968667 h -1.28 v 1.344 h -0.096 c -0.24,-0.432 -1.104,-1.552 -2.832,-1.552 -2.368,0 -3.968,1.824 -3.968,4.3840003 0,2.544 1.68,4.352 4.064,4.352 z m 0.064,-1.136 c -1.6,0 -2.832,-1.264 -2.832,-3.2 0,-1.9040003 1.184,-3.2480003 2.816,-3.2480003 1.552,0 2.832,1.184 2.832,3.2480003 0,1.744 -1.072,3.2 -2.816,3.2 z"
       style="stroke-width:0.497494px"
       id="path1826" />
    <path
       d="m 128.10269,14.516867 h 1.264 V 9.4608667 c 0,-1.344 1.088,-2.288 2.368,-2.288 1.168,0 2.176,0.864 2.176,2.192 v 5.1520003 h 1.264 V 9.2848667 c 0,-1.84 -1.2,-3.296 -3.136,-3.296 -1.296,0 -2.224,0.672 -2.576,1.424 h -0.096 v -4.896 h -1.264 z"
       style="stroke-width:0.497494px"
       id="path1828" />
    <path
       d="m 137.038,14.516867 h 4.624 v -1.088 h -1.68 V 2.5168667 h -2.944 v 1.088 h 1.68 v 9.8240003 h -1.68 z"
       style="letter-spacing:-0.04em;stroke-width:0.497494px"
       id="path1830" />
    <path
       d="m 146.53167,14.724867 c 1.92,0 3.296,-1.104 3.76,-2.656 l -1.232,-0.288 c -0.272,1.152 -1.344,1.824 -2.512,1.824 -1.728,0 -2.816,-1.04 -2.832,-2.896 h 6.688 v -0.464 c 0,-2.4960003 -1.44,-4.2560003 -3.952,-4.2560003 -2.208,0 -4.032,1.744 -4.032,4.4000003 0,2.56 1.584,4.336 4.112,4.336 z m -2.784,-5.0400003 c 0.096,-1.568 1.344,-2.56 2.704,-2.56 1.376,0 2.576,0.832 2.656,2.56 z"
       style="stroke-width:0.497494px"
       id="path1832" />
    <path
       d="m 152.16366,14.516867 h 1.264 V 9.5568667 c 0,-1.376 1.024,-2.384 2.336,-2.384 1.168,0 2.144,0.864 2.144,2.192 v 5.1520003 h 1.264 V 9.2848667 c 0,-1.84 -1.168,-3.296 -3.104,-3.296 -1.296,0 -2.192,0.672 -2.544,1.424 h -0.096 v -1.216 h -1.264 z"
       style="stroke-width:0.497494px"
       id="path1834" />
  </g>
</svg>
