<svg id="图层_1" data-name="图层 1" xmlns="http://www.w3.org/2000/svg" viewBox="0 0 293.15 74.01"><defs><style>.cls-1{fill:none;stroke:#5fbf44;stroke-miterlimit:10;}.cls-2{fill:#5fbf44;}</style></defs><title>未标题-2</title><path class="cls-1" d="M11,15.52H1.79a.85.85,0,0,1-.59-.24l-.43-.43a.83.83,0,0,1-.25-.59V6"/><polyline class="cls-1" points="6.78 11.33 11.04 15.52 6.78 19.51"/><path class="cls-2" d="M23.62,66.12V39.63a3.52,3.52,0,0,1,.64-.09c4.23.06,8.47.07,12.7.23a11.06,11.06,0,0,1,3.57.83,5.78,5.78,0,0,1,3.83,5.26A6.11,6.11,0,0,1,41.54,52l-.68.46a4.88,4.88,0,0,0,.47.26c4.38,1.8,4.93,6.39,3.23,9.76-1.08,2.14-3.16,2.87-5.34,3.26a23.81,23.81,0,0,1-3.86.38c-3.78,0-7.57,0-11.35,0A2.05,2.05,0,0,1,23.62,66.12Zm5.76-4.32c2.72-.13,5.39-.14,8-.41,1.66-.17,2.32-1.23,2.33-3s-.7-3-2.41-3.2c-2.61-.28-5.26-.29-8-.42Zm0-11.38c2.43-.11,4.76-.1,7.07-.36,1.66-.18,2.32-1.21,2.29-2.94S38,44.43,36.4,44.28c-2.31-.22-4.64-.24-7-.34Z"/><path class="cls-2" d="M175.15,63.35a6.76,6.76,0,0,1-3.53,2.48A8,8,0,0,1,162.3,61a11.8,11.8,0,0,1,0-9.53,8,8,0,0,1,8.72-4.68,6.11,6.11,0,0,1,3.29,1.74c.22.22.41.46.8.9V47.14h5.32V65.51c0,5-2.5,7.84-7.49,8.38a13.13,13.13,0,0,1-7-.88,6.11,6.11,0,0,1-3.68-5.41l5.13-.34c1,2.55,2.3,3.27,5,2.81,1.52-.27,2.49-1.42,2.67-3.37C175.23,65.65,175.15,64.59,175.15,63.35Zm-8-7.11c.11,1,.16,1.93.34,2.88A3.38,3.38,0,0,0,171,62.19a3.42,3.42,0,0,0,3.79-2.51,10.18,10.18,0,0,0,0-6.76,3.86,3.86,0,0,0-7.34.62C167.27,54.42,167.22,55.33,167.11,56.24Z"/><path class="cls-2" d="M101.61,66.19c-1.75,0-3.36,0-5,0-.19,0-.47-.31-.52-.52a14.74,14.74,0,0,1-.26-1.76l-.9.94c-2.49,2.53-7.37,2.09-9.58.54-2.78-2-3.36-7.66.78-9.21a62.05,62.05,0,0,1,6.91-1.81c.78-.19,1.58-.3,2.35-.44.37-2-.24-3.07-1.93-3.37-2.73-.48-4,.42-4.48,3.34l-5-.36a5.55,5.55,0,0,1,3.17-5.78,13.55,13.55,0,0,1,9.94-.3,5.28,5.28,0,0,1,3.68,5.28c0,2.53,0,5,0,7.57C100.78,62.25,100.57,64.24,101.61,66.19Zm-6.16-8.77c-1.58.36-3.09.69-4.6,1a4.26,4.26,0,0,0-.82.3A2,2,0,0,0,88.72,61a1.77,1.77,0,0,0,1.7,1.7,7.46,7.46,0,0,0,2.75-.2C95.21,61.88,95.93,60.18,95.45,57.42Z"/><path class="cls-2" d="M67,58h-14c-.2,2.4,1,4.28,3,4.65,2.86.52,4.66-.19,5.48-2.88L64,60c.84.07,1.67.17,2.61.26a7.26,7.26,0,0,1-3.76,5.16,11.51,11.51,0,0,1-9.6.45,8.07,8.07,0,0,1-5.12-6,13.25,13.25,0,0,1,.29-7.46,7.6,7.6,0,0,1,3.47-4.28,10.92,10.92,0,0,1,9.37-.76c3.53,1.22,5,4.08,5.52,7.56C66.89,55.89,66.91,56.89,67,58Zm-13.9-3.77h8.35c-.31-2.76-1.67-3.93-4.39-3.85A3.75,3.75,0,0,0,53.11,54.27Z"/><path class="cls-2" d="M140.59,66.13V47.19h5.24v2.57c2-3.19,4.82-3.39,7.82-2.84a5.26,5.26,0,0,1,4.42,5c.16,2.23.16,4.46.19,6.69,0,2.49,0,5,0,7.53h-5.41V55.19c0-.45,0-.9,0-1.36a2.94,2.94,0,0,0-2.27-3c-2-.32-3.59.4-4.15,2a9.43,9.43,0,0,0-.52,2.83c-.07,3.11,0,6.22,0,9.33v1.11Z"/><path class="cls-2" d="M118.61,47.19h5.46v1.08c0,3.17,0,6.35,0,9.52,0,.58,0,1.16,0,1.74.15,1.83,1,2.83,2.47,3,2.14.21,3.62-.61,4.09-2.39a11.59,11.59,0,0,0,.34-2.69c0-3,0-6.08,0-9.12V47.2h5.21V66.11h-5.1V63.79c-.22.19-.33.24-.37.32-1.89,3.63-9.2,3.35-11.19-.63a12.16,12.16,0,0,1-.87-3.14,11.61,11.61,0,0,1-.1-2.13C118.6,54.56,118.61,50.91,118.61,47.19Z"/><path class="cls-2" d="M106.31,41.91h5.27V47.1h3.86v4.2h-3.83V54c0,2.07,0,4.14,0,6.21a1.28,1.28,0,0,0,1.32,1.46c.76.06,1.54,0,2.38,0v4.41a11.16,11.16,0,0,1-5.39-.11c-2.48-.74-3.52-2.1-3.55-4.68,0-2.94,0-5.89,0-8.83V51.35h-2.67V47.16h2.64Z"/><path class="cls-2" d="M75.5,66.14H70.21v-19H75.4V49.9l.22.12c1.33-2.7,3.62-3.45,6.42-3.28v4.68H81.1c-3.65,0-5.49,1.79-5.58,5.48-.07,2.65,0,5.31,0,8Z"/><path class="cls-2" d="M181.64,28.39l5-.32c.89,2.55,2.69,3.44,5.27,2.74A3.05,3.05,0,0,0,194.2,28a28.3,28.3,0,0,0,0-3.57s-.1,0-.12,0c-2.53,3.71-8.84,3-11.53-.61a12.15,12.15,0,0,1-.54-12.5c2.43-4,8.67-5.4,12.22-1.2L194.4,8h5.28V26.32c0,5-2.53,7.83-7.52,8.38a13.23,13.23,0,0,1-7-.92A5.82,5.82,0,0,1,181.64,28.39Zm13-11.41a26.79,26.79,0,0,0-.73-3.33,3.25,3.25,0,0,0-3.67-2.34,3.46,3.46,0,0,0-3.56,2.83,13.22,13.22,0,0,0,0,5.87,3.39,3.39,0,0,0,3.6,3,3.5,3.5,0,0,0,3.75-2.6A30.81,30.81,0,0,0,194.62,17Z"/><path class="cls-2" d="M29.61,17.28v9.66H23.9V.42a2.26,2.26,0,0,1,.39-.08c4.27.07,8.54.1,12.8.22a9.74,9.74,0,0,1,2.65.53,6.75,6.75,0,0,1,5.08,6.38,13.43,13.43,0,0,1-.13,3.47,6.6,6.6,0,0,1-5.59,5.71,61.85,61.85,0,0,1-7.22.62C31.17,17.32,30.46,17.28,29.61,17.28ZM29.71,5v7.58c2.18,0,4.28.07,6.37,0A2.91,2.91,0,0,0,39,9.76a8.36,8.36,0,0,0,0-2.12,2.61,2.61,0,0,0-2.55-2.58C34.22,5,32,5,29.71,5Z"/><path class="cls-2" d="M106.25.37h5.17V10.48c.51-.61.85-1.06,1.24-1.46,2.07-2.16,8.31-2.31,10.17,1.11a6.92,6.92,0,0,1,.9,3c.1,4.58,0,9.17,0,13.8h-5.23v-1c0-3.33,0-6.67,0-10,0-.45,0-.91-.06-1.36a2.92,2.92,0,0,0-2.36-2.91c-1.89-.27-3.47.42-4,1.94a8.79,8.79,0,0,0-.56,2.82c-.07,3.14,0,6.28,0,9.42v1.11h-5.24Z"/><path class="cls-2" d="M270.94,26.94h-5.41V25.88c0-3.47,0-6.93,0-10.39A6.33,6.33,0,0,0,265,13c-.62-1.28-1.88-1.47-3.18-1.36a3.06,3.06,0,0,0-2.75,2,8.49,8.49,0,0,0-.52,2.83c-.06,3.14,0,6.28,0,9.42V27h-5.3V.41h5.22v9.82c2.1-2.9,5-3.05,8-2.48a5,5,0,0,1,4.18,4.52C270.83,17.13,270.84,22,270.94,26.94Z"/><path class="cls-2" d="M293.14,18.85H279.37c-.27,2.29.86,4.24,2.81,4.62,2.79.54,4.69,0,5.63-2.88l5,.45a7.36,7.36,0,0,1-2.38,4.17c-3.36,2.7-7.14,2.78-11,1.44a7.85,7.85,0,0,1-5-5.75,13.11,13.11,0,0,1,0-6.81c1.08-4.24,4.48-6.63,9.33-6.59,5.63.06,9,3.37,9.42,9.2C293.18,17.37,293.14,18,293.14,18.85Zm-5.49-3.74c.07-2.54-1.57-4-4.36-3.89-2.39.08-4.07,1.76-3.85,3.89Z"/><path class="cls-2" d="M74.05,20.8c1.2-4.08,2.38-8,3.49-12a1.05,1.05,0,0,1,1.27-.92c1.48.06,3,0,4.55,0-.14.45-.23.79-.34,1.12Q79.63,19,76.23,29c-.17.52-.41,1-.62,1.52-1.56,3.68-4.5,5.22-9.41,3.76V29.71c.68.12,1.28.26,1.88.33a2.78,2.78,0,0,0,3-3.92q-3.27-8.61-6.56-17.21c-.11-.29-.21-.59-.34-1,1.85,0,3.59,0,5.34,0,.24,0,.59.42.68.71,1.22,3.85,2.4,7.71,3.58,11.57C73.86,20.37,73.92,20.49,74.05,20.8Z"/><path class="cls-2" d="M168.33,27.43c-6.25-.07-9.88-3.85-9.82-10.22.06-5.82,4.17-9.78,10.05-9.7,6,.08,9.81,4.08,9.75,10.37C178.25,23.59,174.18,27.49,168.33,27.43Zm4.35-10c-.14-1.06-.21-2.16-.44-3.22a4,4,0,0,0-7.61-.09,13.73,13.73,0,0,0,0,6.71,3.5,3.5,0,0,0,3.88,2.78,3.44,3.44,0,0,0,3.73-3C172.46,19.62,172.54,18.55,172.68,17.45Z"/><path class="cls-2" d="M136.75,27.43c-6.33-.08-9.85-3.79-9.78-10.32,0-5.76,4.14-9.68,10-9.61s9.83,4.14,9.76,10.19C146.68,23.58,142.66,27.49,136.75,27.43Zm4.38-10a31.58,31.58,0,0,0-.58-3.57,3.44,3.44,0,0,0-3.83-2.58c-2,.08-3.24,1-3.68,2.81a14.27,14.27,0,0,0,0,6.72,3.53,3.53,0,0,0,3.79,2.81c2,0,3.29-.84,3.75-2.68C140.87,19.84,141,18.67,141.13,17.45Z"/><path class="cls-2" d="M46.37,21.23l4.87-.63c.82,2.85,2.61,3.85,5.44,3.1a2,2,0,0,0,1.68-1.77c.1-1-.58-1.52-1.45-1.78-1.61-.49-3.23-.92-4.84-1.42a17.9,17.9,0,0,1-2.33-.92,4.68,4.68,0,0,1-2.85-4.57,4.84,4.84,0,0,1,2.89-4.67,11.71,11.71,0,0,1,10,0A5.35,5.35,0,0,1,63,13.23l-4.76.82a10.08,10.08,0,0,0-.73-1.84c-.89-1.37-3.9-1.62-5.08-.48a1.54,1.54,0,0,0,.52,2.55c1.1.45,2.28.7,3.42,1.05s2.57.67,3.79,1.17a4.94,4.94,0,0,1,3.32,5.25,5,5,0,0,1-3.61,4.88A13.36,13.36,0,0,1,50,26.45a6,6,0,0,1-3.52-4,3.88,3.88,0,0,1-.14-.66C46.33,21.62,46.36,21.46,46.37,21.23Z"/><path class="cls-2" d="M229,13.24l-4.82.81c-.84-2.72-2.66-3.69-5-2.78a1.66,1.66,0,0,0-1.24,1.56,1.47,1.47,0,0,0,1.12,1.52c1.35.43,2.74.76,4.1,1.18a22.85,22.85,0,0,1,3.46,1.21,4.88,4.88,0,0,1,2.85,4.88,4.88,4.88,0,0,1-3.07,4.76,12.87,12.87,0,0,1-10.64-.05,5.83,5.83,0,0,1-3.49-5.09l4.85-.63a11.15,11.15,0,0,0,1.07,2.19c1,1.24,4,1.48,5.33.54a1.67,1.67,0,0,0-.32-3.06c-1.54-.57-3.16-.93-4.72-1.43a23.13,23.13,0,0,1-2.8-1.08,4.56,4.56,0,0,1-2.79-4,4.82,4.82,0,0,1,2.52-5,11.38,11.38,0,0,1,10.89,0A5.34,5.34,0,0,1,229,13.24Z"/><path class="cls-2" d="M103.28,20.74a7.89,7.89,0,0,1-7.35,6.63,12.58,12.58,0,0,1-5.74-.64c-3.58-1.43-5.14-4.28-5.45-7.93-.33-4,.54-7.72,4.3-9.91A10.31,10.31,0,0,1,99.69,8.8c2,1.14,3,3.17,3.5,5.58l-4.93.86c-.3-.76-.58-1.43-.84-2.11-1-2.45-5.27-2-6-.22a7.85,7.85,0,0,0-.77,2.66,26.56,26.56,0,0,0,.26,5.2,2.92,2.92,0,0,0,2.89,2.66,3.4,3.4,0,0,0,3.82-1.85c.23-.41.4-.87.62-1.37Z"/><path class="cls-2" d="M250.16,14.38l-4.95.86c-.21-.58-.38-1.13-.6-1.65a3.06,3.06,0,0,0-3.51-2.12,3.26,3.26,0,0,0-3.29,2.64,14.33,14.33,0,0,0,0,6.64,3.08,3.08,0,0,0,2.91,2.68,3.39,3.39,0,0,0,3.83-1.83c.24-.42.41-.87.64-1.39l5.06.53a6.91,6.91,0,0,1-3.63,5.4,10.93,10.93,0,0,1-11.43-.48,6.94,6.94,0,0,1-2.73-3.57,12.44,12.44,0,0,1-.14-8.65c1.3-3.66,4-5.51,7.81-5.87a12.94,12.94,0,0,1,3.29.06C247.11,8.22,249.33,10.44,250.16,14.38Z"/><path class="cls-2" d="M155.25,26.94H150V.42h5.25Z"/><path class="cls-2" d="M204,26.94V8h5.21v19Z"/><path class="cls-2" d="M204,0h5.18V5.37H204Z"/></svg>