<?xml version="1.0" encoding="UTF-8" standalone="no"?>
<svg
   xmlns:dc="http://purl.org/dc/elements/1.1/"
   xmlns:cc="http://creativecommons.org/ns#"
   xmlns:rdf="http://www.w3.org/1999/02/22-rdf-syntax-ns#"
   xmlns:svg="http://www.w3.org/2000/svg"
   xmlns="http://www.w3.org/2000/svg"
   xmlns:sodipodi="http://sodipodi.sourceforge.net/DTD/sodipodi-0.dtd"
   xmlns:inkscape="http://www.inkscape.org/namespaces/inkscape"
   id="图层_1"
   data-name="图层 1"
   viewBox="0 0 203.58006 66.090953"
   version="1.1"
   sodipodi:docname="link_110_active.svg"
   width="203.58006"
   height="66.09095"
   inkscape:version="1.0.1 (3bc2e813f5, 2020-09-07)">
  <metadata
     id="metadata49">
    <rdf:RDF>
      <cc:Work
         rdf:about="">
        <dc:format>image/svg+xml</dc:format>
        <dc:type
           rdf:resource="http://purl.org/dc/dcmitype/StillImage" />
        <dc:title>警察部分说明</dc:title>
      </cc:Work>
    </rdf:RDF>
  </metadata>
  <sodipodi:namedview
     pagecolor="#ffffff"
     bordercolor="#666666"
     borderopacity="1"
     objecttolerance="10"
     gridtolerance="10"
     guidetolerance="10"
     inkscape:pageopacity="0"
     inkscape:pageshadow="2"
     inkscape:window-width="1120"
     inkscape:window-height="637"
     id="namedview47"
     showgrid="false"
     fit-margin-top="0"
     fit-margin-left="0"
     fit-margin-right="0"
     fit-margin-bottom="0"
     inkscape:zoom="5.6185845"
     inkscape:cx="101.77506"
     inkscape:cy="32.871422"
     inkscape:window-x="-8"
     inkscape:window-y="686"
     inkscape:window-maximized="1"
     inkscape:current-layer="图层_1" />
  <defs
     id="defs4">
    <style
       id="style2">.cls-1{fill:#5fbf44;}.cls-2{fill:none;stroke:#5fbf44;stroke-miterlimit:10;}</style>
  </defs>
  <title
     id="title6">警察部分说明</title>
  <path
     class="cls-1"
     d="m 39.900064,19.921423 c -0.38,-6.63 -0.16,-13.1499998 -0.24,-19.70999979 h 5.36 V 26.651423 h -0.31 -5.91 a 0.46,0.46 0 0 1 -0.48,-0.26 q -4.26,-8.21 -8.53,-16.4599998 c -0.4,-0.78 -0.71,-1.61 -1.06,-2.42 0,-0.09 -0.09,-0.18 -0.08,-0.17 0.05,6.3699998 0.1,12.8199998 0.14,19.2999998 h -5.4 V 0.18142321 h 0.41 5.79 a 0.53,0.53 0 0 1 0.55,0.34 c 2.7,5.27999999 5.42,10.54999979 8.11,15.82999979 0.58,1.13 1.07,2.3 1.65,3.57 z"
     id="path8" />
  <path
     class="cls-1"
     d="m 58.530064,27.181423 a 12,12 0 0 1 -4,-0.69 8.25,8.25 0 0 1 -5.37,-6.13 11.56,11.56 0 0 1 0.58,-7.69 8.67,8.67 0 0 1 7,-5.1899998 11,11 0 0 1 5.78,0.51 8.86,8.86 0 0 1 5.7,6.9999998 11.08,11.08 0 0 1 -0.73,6.81 8.75,8.75 0 0 1 -7,5.18 c -0.69,0.1 -1.33,0.12 -1.96,0.2 z m 4.2,-10.35 c 0,-0.49 -0.11,-1.41 -0.26,-2.32 -0.34,-2.09 -1.39,-3.18 -3.28,-3.35 -2.65,-0.23 -3.91,0.79 -4.39,2.78 a 13.57,13.57 0 0 0 0,6.73 3.17,3.17 0 0 0 2.62,2.51 7.39,7.39 0 0 0 1.82,0.08 3.18,3.18 0 0 0 3,-2.47 15,15 0 0 0 0.49,-3.99 z"
     id="path10" />
  <path
     class="cls-1"
     d="m 116.60006,26.651423 h -5.1 v -2.53 c -0.13,0.19 -0.2,0.28 -0.26,0.38 a 5.21,5.21 0 0 1 -4.41,2.58 8.07,8.07 0 0 1 -3.68,-0.45 5.91,5.91 0 0 1 -3.899996,-5.3 c -0.08,-1 -0.15,-2.06 -0.16,-3.09 0,-3.31 0,-6.63 0,-9.9399998 v -0.51 h 5.409996 v 0.49 c 0,3.2499998 0,6.4999998 0,9.7399998 0,0.83 0.06,1.66 0.13,2.48 a 2.65,2.65 0 0 0 2.34,2.55 3.45,3.45 0 0 0 4.23,-3 10.53,10.53 0 0 0 0.18,-1.94 c 0,-3.3 0,-6.6 0,-9.8999998 v -0.43 h 5.19 z"
     id="path12" />
  <path
     class="cls-1"
     d="m 127.73006,26.661423 h -5.3 v -14.73 h -2.7 V 7.7614232 h 2.68 c 0,-0.45 0,-0.87 0,-1.28 a 10.11,10.11 0 0 1 0.33,-3.19 4.09,4.09 0 0 1 2.61,-2.70999999 10.53,10.53 0 0 1 4.49,-0.53 12.9,12.9 0 0 1 1.38,0.14 c 0.1,0 0.27,0.16 0.27,0.25 0,1.28999999 0,2.56999999 0,3.90999999 -0.48,0 -0.85,-0.13 -1.23,-0.13 a 14.22,14.22 0 0 0 -1.73,0.09 0.82,0.82 0 0 0 -0.76,0.83 c 0,0.85 0,1.71 0,2.6 h 3.78 v 4.1599998 h -3.82 z"
     id="path14" />
  <path
     class="cls-1"
     d="m 90.200064,26.651423 h -5.23 V 7.7914232 h 5.18 v 3.1899998 l 0.08,0.08 c 1.14,-3.0899998 3.59,-3.8799998 6.52,-3.7399998 v 4.7399998 c -0.67,0 -1.28,0 -1.88,0 a 4.44,4.44 0 0 0 -4.5,4.12 15.89,15.89 0 0 0 -0.16,2.07 c 0,2.65 0,5.29 0,7.94 z"
     id="path16" />
  <path
     class="cls-1"
     d="m 81.620064,11.921423 h -3.81 v 8.86 c 0,0.95 0.28,1.33 1.23,1.42 0.79,0.07 1.6,0 2.46,0 v 4.41 c -0.35,0.05 -0.75,0.13 -1.15,0.16 a 11.64,11.64 0 0 1 -4.16,-0.27 4.45,4.45 0 0 1 -3.61,-4.8 v -9.77 h -2.7 V 7.7614232 h 2.69 v -5.23 h 5.22 v 5.21 h 3.83 z"
     id="path18" />
  <path
     class="cls-1"
     d="m 81.810064,46.681423 h 5.48 l 2.8,14.37 3.25,-14.38 h 4.63 c 0.78,0 0.79,0 1,0.74 q 1.419996,6.74 2.839996,13.45 c 0,0.15 0.07,0.29 0.11,0.46 1,-4.9 1.93,-9.76 2.9,-14.63 h 5.44 q -2.68,9.45 -5.36,18.87 h -5.829996 l -3.17,-14.38 c -0.11,0.64 -0.2,1.37 -0.35,2.08 -0.67,3.14 -1.36,6.28 -2,9.42 -0.19,0.86 -0.41,1.72 -0.59,2.58 0,0.23 -0.12,0.32 -0.37,0.31 -1.69,0 -3.39,0 -5.09,0 -0.32,0 -0.34,-0.19 -0.4,-0.4 q -1.77,-6.21 -3.53,-12.44 c -0.6,-1.99 -1.18,-3.99 -1.76,-6.05 z"
     id="path20" />
  <path
     class="cls-1"
     d="m 151.09006,65.561423 h -5.3 v -0.5 c 0,-3.64 0,-7.28 0,-10.92 a 10.45,10.45 0 0 0 -0.16,-1.57 2.79,2.79 0 0 0 -2.37,-2.25 c -2.61,-0.4 -4.13,1.31 -4.38,3.57 a 12.62,12.62 0 0 0 -0.08,1.51 q 0,4.81 0,9.65 v 0.51 h -5.26 v -26.44 h 5.22 v 10.06 h 0.08 a 0.87,0.87 0 0 0 0.09,-0.11 5.37,5.37 0 0 1 4.32,-2.82 10.16,10.16 0 0 1 3.8,0.26 5.52,5.52 0 0 1 3.88,4.7 c 0.07,1 0.16,2.06 0.16,3.09 0,3.57 0,7.14 0,10.72 z"
     id="path22" />
  <path
     class="cls-1"
     d="m 124.22006,53.321423 c 0,-0.52 0,-1.06 -0.11,-1.57 a 1.87,1.87 0 0 0 -1.38,-1.57 5.47,5.47 0 0 0 -3.44,0.09 2,2 0 0 0 -1.32,1.56 c -0.11,0.49 -0.16,1 -0.24,1.53 l -2.71,-0.18 c -0.68,-0.05 -1.36,-0.12 -2,-0.14 -0.32,0 -0.41,-0.13 -0.4,-0.44 a 5.7,5.7 0 0 1 4.4,-5.8 14.06,14.06 0 0 1 8.42,0 5.43,5.43 0 0 1 3.94,5.54 c 0,3.21 0,6.41 0,9.62 a 7.46,7.46 0 0 0 0.59,3.22 c 0.05,0.12 0.08,0.25 0.14,0.42 h -2 c -1,0 -2,0 -2.94,0 -0.27,0 -0.38,-0.08 -0.42,-0.35 -0.08,-0.68 -0.18,-1.34 -0.28,-2 a 0.49,0.49 0 0 0 -0.12,0.13 6.39,6.39 0 0 1 -4.91,2.66 8.82,8.82 0 0 1 -4.34,-0.66 5.41,5.41 0 0 1 -3.13,-5.76 4.7,4.7 0 0 1 2.9,-4.06 19.48,19.48 0 0 1 5,-1.39 c 1.37,-0.26 2.75,-0.5 4.12,-0.75 z m 0,3.51 c -1.28,0.29 -2.47,0.53 -3.65,0.82 a 15.36,15.36 0 0 0 -2.12,0.67 1.86,1.86 0 0 0 -1.11,2.07 1.81,1.81 0 0 0 1.39,1.71 5,5 0 0 0 3.19,-0.18 3,3 0 0 0 2.13,-2.49 c 0.15,-0.84 0.14,-1.7 0.19,-2.6 z"
     id="path24" />
  <path
     class="cls-1"
     d="m 182.79006,57.491423 h -13.82 c -0.11,2.74 1.24,4.65 3.78,4.75 a 9.19,9.19 0 0 0 1.74,-0.08 3.2,3.2 0 0 0 2.73,-2.51 c 0,-0.13 0.06,-0.26 0.1,-0.43 l 5.14,0.46 a 7.56,7.56 0 0 1 -3.81,5.14 11.43,11.43 0 0 1 -9.28,0.53 8.16,8.16 0 0 1 -5.4,-6.51 13.14,13.14 0 0 1 0.33,-6.76 7.93,7.93 0 0 1 5.25,-5.28 11.47,11.47 0 0 1 7.52,0 7.57,7.57 0 0 1 4.53,4.13 14.46,14.46 0 0 1 1.19,6.56 z m -13.76,-3.68 h 8.37 c 0,-0.2 0,-0.38 -0.07,-0.55 a 3.56,3.56 0 0 0 -2.36,-3.14 6.17,6.17 0 0 0 -2.42,-0.19 3.85,3.85 0 0 0 -3.52,3.88 z"
     id="path26" />
  <path
     class="cls-1"
     d="m 203.58006,65.561423 h -5.34 v -0.51 c 0,-3.58 0,-7.17 0,-10.75 a 12.77,12.77 0 0 0 -0.14,-1.75 2.62,2.62 0 0 0 -2.33,-2.21 5.48,5.48 0 0 0 -1.81,0.07 3.43,3.43 0 0 0 -2.51,3 10.09,10.09 0 0 0 -0.16,1.9 c 0,3.25 0,6.5 0,9.74 v 0.51 h -5.32 v -18.87 h 5.23 v 2.67 a 1.3,1.3 0 0 0 0.15,-0.19 5.25,5.25 0 0 1 4.56,-2.9 8.22,8.22 0 0 1 3.78,0.35 5.37,5.37 0 0 1 3.68,4.78 c 0.09,1 0.16,2 0.16,3 0,3.54 0,7.09 0,10.63 z"
     id="path28" />
  <path
     class="cls-1"
     d="m 155.20006,39.121423 h 5.24 v 26.44 h -5.24 z"
     id="path30" />
  <path
     class="cls-1"
     d="m 119.90006,44.181423 h -4.8 v -4.92 h 4.8 z"
     id="path32" />
  <path
     class="cls-1"
     d="m 127.20006,44.181423 h -4.79 v -4.94 h 4.79 z"
     id="path34" />
  <path
     class="cls-1"
     d="m 73.970064,52.631423 a 20.51,20.51 0 0 1 -1.15,7.09 9,9 0 0 1 -9.12,6.3 10.33,10.33 0 0 1 -4.24,-0.84 8.72,8.72 0 0 1 -4.68,-5.35 20,20 0 0 1 -1.08,-6.31 21,21 0 0 1 1.16,-8.09 9.85,9.85 0 0 1 13.6,-5.17 9.77,9.77 0 0 1 4.51,5.74 21,21 0 0 1 1,6.63 z m -5.8,0 c 0,-0.91 0.07,-1.82 0,-2.72 a 20.49,20.49 0 0 0 -0.57,-3.49 3.94,3.94 0 0 0 -7.48,-0.24 8.38,8.38 0 0 0 -0.36,1.37 34.85,34.85 0 0 0 -0.29,7.36 15.41,15.41 0 0 0 0.77,4.51 3.1,3.1 0 0 0 2.39,2.16 7.11,7.11 0 0 0 1.9,0.06 3.09,3.09 0 0 0 2.6,-1.78 7.12,7.12 0 0 0 0.6,-1.59 21.27,21.27 0 0 0 0.41,-5.67 z"
     id="path36" />
  <path
     class="cls-1"
     d="m 44.330064,47.601423 a 8.7,8.7 0 0 1 -6.22,1.51 v -4.69 c 0.48,0 1,-0.06 1.5,-0.11 a 7.31,7.31 0 0 0 3,-0.91 5.11,5.11 0 0 0 2.28,-3.33 c 0,-0.13 0.07,-0.26 0.1,-0.39 h 4.57 v 25.87 h -5.23 z"
     id="path38" />
  <path
     class="cls-1"
     d="m 34.720064,39.711423 v 25.84 h -5.26 v -17.93 a 8.66,8.66 0 0 1 -6.21,1.48 v -4.68 c 0.48,0 1,-0.06 1.47,-0.11 a 6.48,6.48 0 0 0 3.74,-1.43 5.45,5.45 0 0 0 1.61,-2.91 c 0,-0.18 0.08,-0.31 0.32,-0.31 h 4.2 a 0.46,0.46 0 0 1 0.13,0.05 z"
     id="path40" />
  <path
     class="cls-2"
     d="M 10.970064,14.591423 H 1.7600644 a 0.87,0.87 0 0 1 -0.59,-0.24 l -0.43000003,-0.43 a 0.82,0.82 0 0 1 -0.24,-0.59 V 5.0914232"
     id="path42" />
  <polyline
     class="cls-2"
     points="6.79 10.22 11.04 14.41 6.79 18.4"
     id="polyline44"
     transform="translate(-0.02993563,0.18142321)" />
</svg>
