<?xml version="1.0" encoding="UTF-8" standalone="no"?>
<svg
   xmlns:dc="http://purl.org/dc/elements/1.1/"
   xmlns:cc="http://creativecommons.org/ns#"
   xmlns:rdf="http://www.w3.org/1999/02/22-rdf-syntax-ns#"
   xmlns:svg="http://www.w3.org/2000/svg"
   xmlns="http://www.w3.org/2000/svg"
   xmlns:sodipodi="http://sodipodi.sourceforge.net/DTD/sodipodi-0.dtd"
   xmlns:inkscape="http://www.inkscape.org/namespaces/inkscape"
   id="图层_1"
   data-name="图层 1"
   viewBox="0 0 229.85223 19.428746"
   version="1.1"
   sodipodi:docname="link_police_inactive.svg"
   width="229.85223"
   height="19.428747"
   inkscape:version="1.0.1 (3bc2e813f5, 2020-09-07)">
  <metadata
     id="metadata25">
    <rdf:RDF>
      <cc:Work
         rdf:about="">
        <dc:format>image/svg+xml</dc:format>
        <dc:type
           rdf:resource="http://purl.org/dc/dcmitype/StillImage" />
        <dc:title>警察部分说明</dc:title>
      </cc:Work>
    </rdf:RDF>
  </metadata>
  <sodipodi:namedview
     objecttolerance="10"
     gridtolerance="10"
     guidetolerance="10"
     inkscape:pageopacity="0"
     inkscape:pageshadow="2"
     inkscape:window-width="1120"
     inkscape:window-height="637"
     id="namedview23"
     showgrid="false"
     fit-margin-top="0"
     fit-margin-left="0"
     fit-margin-right="0"
     fit-margin-bottom="0"
     inkscape:zoom="5.1741292"
     inkscape:cx="38.224353"
     inkscape:cy="6.5354546"
     inkscape:window-x="-8"
     inkscape:window-y="686"
     inkscape:window-maximized="1"
     inkscape:current-layer="图层_1"
     inkscape:document-rotation="0" />
  <defs
     id="defs4">
    <style
       id="style2">.cls-1{font-size:16px;fill:#606060;stroke-width:0.5px;font-family:Archia-Regular, Archia;letter-spacing:-0.03em;}.cls-1,.cls-4{stroke:#606060;stroke-miterlimit:10;}.cls-2{letter-spacing:-0.05em;}.cls-3{letter-spacing:-0.04em;}.cls-4{fill:none;}</style>
  </defs>
  <title
     id="title6">警察部分说明</title>
  <g
     aria-label="Mögliche Beweissicherung   "
     transform="scale(0.99498744,1.0050378)"
     id="text16"
     style="font-size:16px;font-family:Archia-Regular, Archia;letter-spacing:-0.03em;fill:#606060;stroke:#606060;stroke-width:0.5px;stroke-miterlimit:10"
     class="cls-1">
    <path
       d="m 20.394207,15.422305 h 1.248 V 5.4063051 h 0.096 l 3.248,10.0159999 h 1.792 l 3.248,-10.0159999 h 0.096 V 15.422305 h 1.248 V 4.2223051 h -2.224 l -3.216,10.0159999 h -0.096 l -3.216,-10.0159999 h -2.224 z"
       style="font-size:16px;font-family:Archia-Regular, Archia;letter-spacing:-0.03em;fill:#606060;stroke:#606060;stroke-width:0.5px;stroke-miterlimit:10"
       id="path838" />
    <path
       d="m 36.250202,5.4703051 c 0.496,0 0.832,-0.352 0.832,-0.832 0,-0.464 -0.336,-0.832 -0.832,-0.832 -0.464,0 -0.832,0.368 -0.832,0.832 0,0.48 0.368,0.832 0.832,0.832 z m 2.688,0 c 0.464,0 0.832,-0.352 0.832,-0.832 0,-0.464 -0.368,-0.832 -0.832,-0.832 -0.496,0 -0.832,0.352 -0.832,0.832 0,0.48 0.336,0.832 0.832,0.832 z m -1.312,10.1599999 c 2.496,0 4.352,-1.872 4.352,-4.368 0,-2.4959999 -1.824,-4.3679999 -4.336,-4.3679999 -2.48,0 -4.352,1.856 -4.352,4.3679999 0,2.528 1.84,4.368 4.336,4.368 z m 0,-1.152 c -1.776,0 -3.04,-1.344 -3.04,-3.216 0,-1.8239999 1.248,-3.2159999 3.04,-3.2159999 1.792,0 3.056,1.376 3.056,3.2159999 0,1.856 -1.264,3.216 -3.056,3.216 z"
       style="font-size:16px;font-family:Archia-Regular, Archia;letter-spacing:-0.03em;fill:#606060;stroke:#606060;stroke-width:0.5px;stroke-miterlimit:10"
       id="path840" />
    <path
       d="m 45.146197,19.102305 h 3.6 c 1.52,0 2.528,-0.688 2.528,-2.368 V 7.1023051 h -1.216 v 1.312 h -0.096 c -0.208,-0.304 -0.992,-1.52 -2.8,-1.52 -2.368,0 -4.064,1.808 -4.064,4.3519999 0,2.576 1.616,4.384 3.968,4.384 1.744,0 2.576,-1.04 2.848,-1.552 h 0.096 v 2.528 c 0,0.896 -0.368,1.328 -1.248,1.328 h -3.616 z m 2.064,-4.624 c -1.632,0 -2.816,-1.328 -2.816,-3.232 0,-1.9519999 1.248,-3.1999999 2.848,-3.1999999 1.728,0 2.816,1.456 2.816,3.1999999 0,2.048 -1.28,3.232 -2.848,3.232 z"
       style="font-size:16px;font-family:Archia-Regular, Archia;letter-spacing:-0.03em;fill:#606060;stroke:#606060;stroke-width:0.5px;stroke-miterlimit:10"
       id="path842" />
    <path
       d="m 53.136439,15.422305 h 4.624 v -1.088 h -1.68 V 3.4223051 h -2.944 v 1.088 h 1.68 v 9.8239999 h -1.68 z"
       style="letter-spacing:-0.05em;stroke-width:0.497494px"
       id="path844" />
    <path
       d="m 60.710918,5.5983051 c 0.544,0 0.928,-0.4 0.928,-0.928 0,-0.512 -0.384,-0.912 -0.928,-0.912 -0.528,0 -0.912,0.4 -0.912,0.912 0,0.528 0.384,0.928 0.912,0.928 z m -0.624,9.8239999 h 1.264 V 7.1023051 h -2.832 v 1.072 h 1.568 z"
       style="stroke-width:0.497494px"
       id="path846" />
    <path
       d="m 67.670907,15.630305 c 1.808,0 3.424,-1.088 3.872,-2.944 l -1.248,-0.288 c -0.224,1.248 -1.28,2.08 -2.576,2.08 -1.744,0 -3.008,-1.344 -3.008,-3.216 0,-1.8079999 1.2,-3.2159999 2.976,-3.2159999 1.296,0 2.352,0.832 2.576,2.0799999 l 1.248,-0.2879999 c -0.448,-1.856 -2.048,-2.944 -3.856,-2.944 -2.448,0 -4.256,1.904 -4.256,4.3679999 0,2.464 1.76,4.368 4.272,4.368 z"
       style="stroke-width:0.497494px"
       id="path848" />
    <path
       d="m 73.302895,15.422305 h 1.264 v -5.056 c 0,-1.3439999 1.088,-2.2879999 2.368,-2.2879999 1.168,0 2.176,0.864 2.176,2.1919999 v 5.152 h 1.264 v -5.232 c 0,-1.8399999 -1.2,-3.2959999 -3.136,-3.2959999 -1.296,0 -2.224,0.672 -2.576,1.424 h -0.096 v -4.896 h -1.264 z"
       style="stroke-width:0.497494px"
       id="path850" />
    <path
       d="m 86.086887,15.630305 c 1.92,0 3.296,-1.104 3.76,-2.656 l -1.232,-0.288 c -0.272,1.152 -1.344,1.824 -2.512,1.824 -1.728,0 -2.816,-1.04 -2.832,-2.896 h 6.688 v -0.464 c 0,-2.4959999 -1.44,-4.2559999 -3.952,-4.2559999 -2.208,0 -4.032,1.744 -4.032,4.3999999 0,2.56 1.584,4.336 4.112,4.336 z m -2.784,-5.04 c 0.096,-1.5679999 1.344,-2.5599999 2.704,-2.5599999 1.376,0 2.576,0.832 2.656,2.5599999 z"
       style="stroke-width:0.497494px"
       id="path852" />
    <path
       d="m 95.558851,15.422305 h 4.991999 c 1.888,0 3.456,-1.168 3.456,-3.184 0,-1.584 -1.056,-2.3839999 -1.808,-2.6399999 v -0.096 c 0.896,-0.48 1.424,-1.312 1.424,-2.416 0,-1.632 -1.264,-2.864 -3.392,-2.864 h -4.671999 v 1.104 h 1.056 v 8.9919999 h -1.056 z m 2.352,-6.3519999 v -3.696 h 2.319999 c 1.2,0 2.064,0.704 2.064,1.808 0,1.136 -0.848,1.888 -2.112,1.888 z m 0,5.2159999 v -4.128 h 2.271999 c 1.296,0 2.48,0.576 2.48,2.048 0,1.44 -1.008,2.08 -2.336,2.08 z"
       style="stroke-width:0.497494px"
       id="path854" />
    <path
       d="m 109.38457,15.630305 c 1.92,0 3.296,-1.104 3.76,-2.656 l -1.232,-0.288 c -0.272,1.152 -1.344,1.824 -2.512,1.824 -1.728,0 -2.816,-1.04 -2.832,-2.896 h 6.688 v -0.464 c 0,-2.4959999 -1.44,-4.2559999 -3.952,-4.2559999 -2.208,0 -4.032,1.744 -4.032,4.3999999 0,2.56 1.584,4.336 4.112,4.336 z m -2.784,-5.04 c 0.096,-1.5679999 1.344,-2.5599999 2.704,-2.5599999 1.376,0 2.576,0.832 2.656,2.5599999 z"
       style="letter-spacing:-0.04em;stroke-width:0.497494px"
       id="path856" />
    <path
       d="m 116.32855,15.422305 h 1.76 l 2.016,-7.1359999 h 0.096 l 2,7.1359999 h 1.76 l 2.608,-8.3199999 h -1.376 l -2.048,7.1359999 h -0.096 l -2.016,-7.1359999 h -1.76 l -2.032,7.1359999 h -0.096 l -2.032,-7.1359999 h -1.376 z"
       style="letter-spacing:-0.04em;stroke-width:0.497494px"
       id="path858" />
    <path
       d="m 131.4932,15.630305 c 1.92,0 3.296,-1.104 3.76,-2.656 l -1.232,-0.288 c -0.272,1.152 -1.344,1.824 -2.512,1.824 -1.728,0 -2.816,-1.04 -2.832,-2.896 h 6.688 v -0.464 c 0,-2.4959999 -1.44,-4.2559999 -3.952,-4.2559999 -2.208,0 -4.032,1.744 -4.032,4.3999999 0,2.56 1.584,4.336 4.112,4.336 z m -2.784,-5.04 c 0.096,-1.5679999 1.344,-2.5599999 2.704,-2.5599999 1.376,0 2.576,0.832 2.656,2.5599999 z"
       style="stroke-width:0.497494px"
       id="path860" />
    <path
       d="m 138.83718,5.5983051 c 0.544,0 0.928,-0.4 0.928,-0.928 0,-0.512 -0.384,-0.912 -0.928,-0.912 -0.528,0 -0.912,0.4 -0.912,0.912 0,0.528 0.384,0.928 0.912,0.928 z m -0.624,9.8239999 h 1.264 V 7.1023051 h -2.832 v 1.072 h 1.568 z"
       style="stroke-width:0.497494px"
       id="path862" />
    <path
       d="m 144.91717,15.630305 c 1.936,0 3.232,-1.056 3.232,-2.624 0,-3.4399999 -4.992,-1.68 -4.992,-3.7919999 0,-0.72 0.672,-1.232 1.712,-1.232 1.088,0 1.888,0.592 2,1.568 l 1.104,-0.32 c -0.192,-1.504 -1.584,-2.336 -3.024,-2.336 -1.744,0 -3.008,0.912 -3.008,2.32 0,3.2959999 4.976,1.5199999 4.976,3.8559999 0,0.848 -0.688,1.456 -1.936,1.456 -1.264,0 -2.048,-0.576 -2.144,-1.696 l -1.152,0.288 c 0.192,1.488 1.36,2.512 3.232,2.512 z"
       style="stroke-width:0.497494px"
       id="path864" />
    <path
       d="m 152.90116,15.630305 c 1.936,0 3.232,-1.056 3.232,-2.624 0,-3.4399999 -4.992,-1.68 -4.992,-3.7919999 0,-0.72 0.672,-1.232 1.712,-1.232 1.088,0 1.888,0.592 2,1.568 l 1.104,-0.32 c -0.192,-1.504 -1.584,-2.336 -3.024,-2.336 -1.744,0 -3.008,0.912 -3.008,2.32 0,3.2959999 4.976,1.5199999 4.976,3.8559999 0,0.848 -0.688,1.456 -1.936,1.456 -1.264,0 -2.048,-0.576 -2.144,-1.696 l -1.152,0.288 c 0.192,1.488 1.36,2.512 3.232,2.512 z"
       style="stroke-width:0.497494px"
       id="path866" />
    <path
       d="m 159.84515,5.5983051 c 0.544,0 0.928,-0.4 0.928,-0.928 0,-0.512 -0.384,-0.912 -0.928,-0.912 -0.528,0 -0.912,0.4 -0.912,0.912 0,0.528 0.384,0.928 0.912,0.928 z m -0.624,9.8239999 h 1.264 V 7.1023051 h -2.832 v 1.072 h 1.568 z"
       style="stroke-width:0.497494px"
       id="path868" />
    <path
       d="m 166.80514,15.630305 c 1.808,0 3.424,-1.088 3.872,-2.944 l -1.248,-0.288 c -0.224,1.248 -1.28,2.08 -2.576,2.08 -1.744,0 -3.008,-1.344 -3.008,-3.216 0,-1.8079999 1.2,-3.2159999 2.976,-3.2159999 1.296,0 2.352,0.832 2.576,2.0799999 l 1.248,-0.2879999 c -0.448,-1.856 -2.048,-2.944 -3.856,-2.944 -2.448,0 -4.256,1.904 -4.256,4.3679999 0,2.464 1.76,4.368 4.272,4.368 z"
       style="stroke-width:0.497494px"
       id="path870" />
    <path
       d="m 172.43713,15.422305 h 1.264 v -5.056 c 0,-1.3439999 1.088,-2.2879999 2.368,-2.2879999 1.168,0 2.176,0.864 2.176,2.1919999 v 5.152 h 1.264 v -5.232 c 0,-1.8399999 -1.2,-3.2959999 -3.136,-3.2959999 -1.296,0 -2.224,0.672 -2.576,1.424 h -0.096 v -4.896 h -1.264 z"
       style="stroke-width:0.497494px"
       id="path872" />
    <path
       d="m 185.22112,15.630305 c 1.92,0 3.296,-1.104 3.76,-2.656 l -1.232,-0.288 c -0.272,1.152 -1.344,1.824 -2.512,1.824 -1.728,0 -2.816,-1.04 -2.832,-2.896 h 6.688 v -0.464 c 0,-2.4959999 -1.44,-4.2559999 -3.952,-4.2559999 -2.208,0 -4.032,1.744 -4.032,4.3999999 0,2.56 1.584,4.336 4.112,4.336 z m -2.784,-5.04 c 0.096,-1.5679999 1.344,-2.5599999 2.704,-2.5599999 1.376,0 2.576,0.832 2.656,2.5599999 z"
       style="stroke-width:0.497494px"
       id="path874" />
    <path
       d="m 190.85311,15.422305 h 1.264 v -4.448 c 0,-1.5839999 0.624,-2.8159999 2.144,-2.8159999 h 0.752 v -1.264 h -0.544 c -1.216,0 -2.032,0.896 -2.272,1.6 h -0.096 v -1.392 h -1.248 z"
       style="stroke-width:0.497494px"
       id="path876" />
    <path
       d="m 199.5571,15.630305 c 1.296,0 2.192,-0.672 2.544,-1.424 h 0.096 v 1.216 h 1.264 V 7.1023051 h -1.264 v 4.9919999 c 0,1.376 -1.024,2.384 -2.336,2.384 -1.168,0 -2.144,-0.864 -2.144,-2.192 V 7.1023051 h -1.264 v 5.2319999 c 0,1.84 1.168,3.296 3.104,3.296 z"
       style="stroke-width:0.497494px"
       id="path878" />
    <path
       d="m 205.70109,15.422305 h 1.264 v -4.96 c 0,-1.3759999 1.024,-2.3839999 2.336,-2.3839999 1.168,0 2.144,0.864 2.144,2.1919999 v 5.152 h 1.264 v -5.232 c 0,-1.8399999 -1.168,-3.2959999 -3.104,-3.2959999 -1.296,0 -2.192,0.672 -2.544,1.424 h -0.096 v -1.216 h -1.264 z"
       style="stroke-width:0.497494px"
       id="path880" />
    <path
       d="m 216.35709,19.102305 h 3.6 c 1.52,0 2.528,-0.688 2.528,-2.368 V 7.1023051 h -1.216 v 1.312 h -0.096 c -0.208,-0.304 -0.992,-1.52 -2.8,-1.52 -2.368,0 -4.064,1.808 -4.064,4.3519999 0,2.576 1.616,4.384 3.968,4.384 1.744,0 2.576,-1.04 2.848,-1.552 h 0.096 v 2.528 c 0,0.896 -0.368,1.328 -1.248,1.328 h -3.616 z m 2.064,-4.624 c -1.632,0 -2.816,-1.328 -2.816,-3.232 0,-1.9519999 1.248,-3.1999999 2.848,-3.1999999 1.728,0 2.816,1.456 2.816,3.1999999 0,2.048 -1.28,3.232 -2.848,3.232 z"
       style="stroke-width:0.497494px"
       id="path882" />
  </g>
  <path
     class="cls-4"
     d="M 11,9.33 H 1.7700002 a 0.86,0.86 0 0 1 -0.6,-0.25 L 0.75000016,8.65 a 0.82,0.82 0 0 1 -0.25,-0.59 V 0"
     id="path18" />
  <polyline
     class="cls-4"
     points="6.76 5.13 11.02 9.33 6.76 13.32"
     id="polyline20" />
</svg>
