<svg xmlns="http://www.w3.org/2000/svg" id="图层_1" data-name="图层 1" version="1.1" width="300.89" height="61.265"><defs id="defs4"><style id="style2">.cls-1{fill:none;stroke:#5fbf44;stroke-miterlimit:10}.cls-2{fill:#5fbf44}</style></defs><path class="cls-1" d="M10.97 11.435H1.72a.82.82 0 01-.54-.23l-.43-.43a.83.83 0 01-.25-.59v-8.24" id="path8"/><path class="cls-1" id="polyline10" transform="translate(-3.82 -3.565)" d="M10.53 10.82l4.26 4.2-4.26 3.99"/><path class="cls-2" d="M111.44.565l4.65 17.93c.29-1.28.56-2.61.89-3.92q1.77-6.84 3.58-13.66c.06-.23.09-.43.42-.43h7.37a.47.47 0 01.14 0v23.01h-4.51V4.035c-.09.33-.14.53-.2.72q-2.49 9.18-5 18.37c-.08.32-.22.41-.54.41h-4.59c-.35 0-.48-.11-.57-.45q-2.4-9.13-4.9-18.28c-.06-.23-.14-.46-.25-.83v19.53h-4.5V.565z" id="path12"/><path class="cls-2" d="M225.51 7.105h4.56v2a5.21 5.21 0 014.94-2.42 4.57 4.57 0 014.44 3.09l.25-.36a5.1 5.1 0 014.4-2.67 11.09 11.09 0 013.16.3c2.27.66 3.25 2.44 3.53 4.67a14.67 14.67 0 01.1 1.75v10.02h-4.61v-.57-8.49q0-1-.09-1.92a2.44 2.44 0 00-2.63-2.31 2.78 2.78 0 00-2.9 2.39 8.81 8.81 0 00-.22 1.84V23.485h-4.6v-.57-8.43c0-.61-.06-1.21-.07-1.81a2.73 2.73 0 00-5.34-.52 9.53 9.53 0 00-.32 2.31V23.475h-4.56z" id="path14"/><path class="cls-2" d="M187.69 24.735l4.42-.28c0 .12 0 .18.06.25a2.48 2.48 0 002.48 2.22 6.84 6.84 0 001.43 0 2.47 2.47 0 002.36-2.11c.2-1.22.21-2.47.31-3.7h-.15a1.65 1.65 0 00-.22.24 5 5 0 01-4.6 2.08c-3.72-.12-6.13-2.69-6.84-6.27a10.1 10.1 0 01.65-6.32 6.85 6.85 0 018.29-3.82 5.8 5.8 0 012.74 2v-1.9h4.65v16.19c0 4.16-2.56 6.34-6.16 6.82a11.59 11.59 0 01-6.19-.65 5 5 0 01-3.21-4 3 3 0 010-.42 1.9 1.9 0 01-.02-.33zm11.17-9.7c-.11-.83-.16-1.56-.31-2.27a3.47 3.47 0 00-1.09-2.08 3.42 3.42 0 00-5.49 1.92 11.81 11.81 0 000 4.81 3.13 3.13 0 001.21 2.08 3.37 3.37 0 005.28-1.88c.2-.87.27-1.78.4-2.58z" id="path16"/><path class="cls-2" d="M147.73 23.505h-4.55l-.28-2a.66.66 0 00-.17.15 5.86 5.86 0 01-5.16 2.25 6.8 6.8 0 01-3.18-.78 4.66 4.66 0 01-2.42-4.58 4.1 4.1 0 012.65-3.79 19.68 19.68 0 014.83-1.28l3.13-.57c.26-1.28-.08-2.33-1-2.68a4.12 4.12 0 00-3.56.17 2.07 2.07 0 00-.92 1.72c0 .23 0 .45-.06.76l-2.61-.16c-.46 0-.92-.1-1.38-.1-.46 0-.54-.17-.51-.58a5 5 0 014-4.9 12 12 0 017.29.14 4.7 4.7 0 013.3 4.73v8.16a7 7 0 00.58 3.06 1.07 1.07 0 01.02.28zm-5-7.59c-.66.14-1.17.24-1.66.36-1.1.28-2.22.52-3.29.87a1.62 1.62 0 00-1.1 1.86 1.59 1.59 0 001.44 1.54 4.5 4.5 0 001.37.08c1.27-.16 2.45-.59 2.86-1.93a15.94 15.94 0 00.36-2.78z" id="path18"/><path class="cls-2" d="M173.87 12.895l-4.4-.31a4.76 4.76 0 012.49-4.85 10.76 10.76 0 013-.9 11.32 11.32 0 015.68.44 4.69 4.69 0 013.3 4.72v8a7.13 7.13 0 00.59 3.22 2.6 2.6 0 01.06.3h-4.34c-.11 0-.27-.21-.29-.34-.11-.54-.16-1.09-.25-1.7-.2.24-.37.45-.55.64a5.88 5.88 0 01-4.73 1.8 6.74 6.74 0 01-3.23-.79 4.63 4.63 0 01-2.43-4.37 4.14 4.14 0 012.68-4 20.73 20.73 0 014.83-1.27c.94-.17 1.89-.34 2.83-.54a.57.57 0 00.32-.4 3.57 3.57 0 000-.8 1.71 1.71 0 00-1.41-1.65 9 9 0 00-2.37 0 1.87 1.87 0 00-1.67 1.75c-.01.33-.06.66-.11 1.05zm5.61 3c-1.35.3-2.62.57-3.87.88a5.1 5.1 0 00-1.15.42 1.68 1.68 0 00-.88 1.84 1.44 1.44 0 001.14 1.4 4.73 4.73 0 001.67.16 3.1 3.1 0 002.79-1.77 6.33 6.33 0 00.3-2.89z" id="path20"/><path class="cls-2" d="M217.95 18.005l4.46.39a6.67 6.67 0 01-3.91 4.77 10.22 10.22 0 01-7.06.32 7.22 7.22 0 01-5.16-6 11.66 11.66 0 01.11-4.92 7.38 7.38 0 016.6-5.78 10.38 10.38 0 014.79.47 7.17 7.17 0 014.59 5.77c.22 1.13.27 2.28.41 3.48h-12.09c-.12 2.15.87 3.77 2.68 4.06 2.5.39 4.07-.34 4.58-2.56zm0-4.71c-.18-2.55-1.69-3.45-3.72-3.41a3.33 3.33 0 00-3.53 3.41z" id="path22"/><path class="cls-2" d="M270.18 16.495h-12a3.49 3.49 0 002.38 4c1.85.42 4.21.31 4.88-2.47l2.21.18 2.22.21a6.35 6.35 0 01-3.13 4.36 9.63 9.63 0 01-9.68-.15 7.25 7.25 0 01-3.4-5.65 12 12 0 01.19-4.39 7.39 7.39 0 016.68-5.82 10.37 10.37 0 014.88.55 7 7 0 014.22 4.84 12.56 12.56 0 01.55 4.34zm-4.69-3.21a3.16 3.16 0 00-1.53-2.9 4.13 4.13 0 00-4.36.16 3.66 3.66 0 00-1.42 2.74z" id="path24"/><path class="cls-2" d="M150.74 7.095h4.53v2.15a11.8 11.8 0 011.3-1.46 5.27 5.27 0 013.71-1.08 8.08 8.08 0 012.55.44 4.62 4.62 0 013.06 4.35c.06 1.1.1 2.2.1 3.3v8.69h-4.65v-.67c0-3.34 0-6.69-.06-10a2.42 2.42 0 00-1.74-2.47 3.15 3.15 0 00-4.11 2.68 10.54 10.54 0 00-.12 1.59V23.515h-4.57z" id="path26"/><path class="cls-2" d="M277.58 23.505h-4.59V7.125h4.51v2.14h.16c1-2 2.85-2.58 4.92-2.52a7.55 7.55 0 012.74.54 4.55 4.55 0 012.86 4.41c.08 3 .08 6.08.1 9.12v2.68h-4.67v-.6-9.18a5.76 5.76 0 00-.43-2.28c-.83-1.78-3.74-1.45-4.65-.3a4.4 4.4 0 00-.93 2.73v9z" id="path28"/><path class="cls-2" d="M300.86 10.705h-3.29v7.64c0 .94.33 1.29 1.27 1.33h2v3.55a.4.4 0 01-.28.28 10 10 0 01-4.55-.17 3.81 3.81 0 01-3-4.08V10.715h-2.32v-3.61H293v-4.58h4.56v4.55h3.33z" id="path30"/><path class="cls-2" d="M39.97 15.525l5.09 1.33c-.05.15-.07.26-.12.37a10.3 10.3 0 01-8.25 6.46 14.17 14.17 0 01-6.81-.47 9.4 9.4 0 01-6.44-6.78 15 15 0 01.34-9.69 10 10 0 018.45-6.55 12.6 12.6 0 017.89 1.16 9.28 9.28 0 014.79 6.41l-5 1c-.12-.41-.22-.8-.35-1.17a5 5 0 00-5.47-3.58l-1.32.12c-2.59.3-3.8 1.9-4.36 4.2a17.23 17.23 0 00-.1 7.15c.48 2.68 2.43 4.3 5.35 4.44a9.23 9.23 0 002.23-.13 5 5 0 003.82-3.51l.12-.35z" id="path32"/><path class="cls-2" d="M62.58 23.435h-4.62l-.27-2a.83.83 0 00-.17.15 5.86 5.86 0 01-5.16 2.25 6.68 6.68 0 01-3.18-.75 4.65 4.65 0 01-2.42-4.59 4.1 4.1 0 012.66-3.79 20.12 20.12 0 014.83-1.27l3.15-.58a11 11 0 000-1.29 1.7 1.7 0 00-1.48-1.54 7.49 7.49 0 00-2.06 0 2.06 2.06 0 00-2 2.15v.64h-1.15c-1-.06-1.91-.15-2.87-.19-.4 0-.51-.16-.48-.56a4.89 4.89 0 013.91-4.9 12 12 0 017.5.16 4.63 4.63 0 013.16 4.6v8.22a7 7 0 00.58 3.07c.02.03.03.12.07.22zm-5.17-7.56c-.52.12-1 .21-1.51.33-1.1.28-2.21.51-3.28.87a1.61 1.61 0 00-1.12 1.85 1.59 1.59 0 001.42 1.55 4.86 4.86 0 001.37.08 3.05 3.05 0 003.11-2.78 15 15 0 00.01-1.88z" id="path34"/><path class="cls-2" d="M93.85 16.435H81.76a3.49 3.49 0 002.42 4c1.94.42 4.13.27 4.84-2.49l4.42.39a6.38 6.38 0 01-3.18 4.41 9.72 9.72 0 01-9.41-.05 7.12 7.12 0 01-3.55-5.38 12.66 12.66 0 01.17-5 7.39 7.39 0 016.6-5.63 10.16 10.16 0 014.74.47 7.1 7.1 0 014.57 5.66c.26 1.19.32 2.37.47 3.62zm-12.08-3.2h7.25a3.26 3.26 0 00-3.57-3.41 3.37 3.37 0 00-3.68 3.41z" id="path36"/><path class="cls-2" d="M70.18 23.435h-4.61V7.055h4.48v2.65c1.18-2.47 3.26-3.16 5.79-3.06v4.15a13.39 13.39 0 00-2 0 3.85 3.85 0 00-3.56 3.7 13.08 13.08 0 00-.1 1.67v6.67z" id="path38"/><path class="cls-2" d="M71.39 60.805h-4.94v-23h4.92v8.87c.18-.18.3-.27.39-.38q3.78-4.06 7.53-8.16a1 1 0 01.87-.38h5.71l-9.18 9.68c3.06 4.47 6.1 8.9 9.21 13.42h-3.56a5.87 5.87 0 01-2.46-.11c-.64-.34-1-1.28-1.41-2l-4.83-7.31-.28-.4c-.63.58-1.25 1.13-1.84 1.72a.84.84 0 00-.13.54v7.48z" id="path40"/><path class="cls-2" d="M194.99 46.625a2.24 2.24 0 00.21-.26 5 5 0 014.76-2.37 7.59 7.59 0 011.43.11 4.76 4.76 0 014.23 4.73c.08 1.35.09 2.7.1 4.05V60.795h-4.61v-.65-9.24a3.88 3.88 0 00-.51-2.3 2.65 2.65 0 00-2.62-1.08 2.69 2.69 0 00-2.49 1.8 7.43 7.43 0 00-.44 2.28v9.19h-4.56v-23h4.24c.38 0 .29.29.29.5v6.78z" id="path42"/><path class="cls-2" d="M151.94 60.825h-5c-.15 0-.34-.22-.44-.38-1.28-2.11-2.54-4.24-3.81-6.36l-.35-.57c-.45.44-.88.85-1.29 1.28a.88.88 0 00-.1.5v5.51h-4.59v-23h4.57v11.75l.19.14a3.76 3.76 0 01.3-.47q2.15-2.26 4.31-4.52c.13-.13.3-.31.46-.31h5.67l-6.41 6.19z" id="path44"/><path class="cls-2" d="M109.58 58.765a5.68 5.68 0 01-3.09 2.2 7.39 7.39 0 01-5.44-.56 4.58 4.58 0 01-2.41-4.39 4.13 4.13 0 012.66-3.95 23 23 0 015.41-1.38l2.25-.43c.12 0 .3-.09.34-.18a2.19 2.19 0 00-.85-2.45 3.86 3.86 0 00-3.78.14 2.73 2.73 0 00-.79 1.26 5.47 5.47 0 00-.17 1.16l-2.21-.14-2.25-.17a5.43 5.43 0 011.37-4 6.06 6.06 0 013.45-1.66 12.47 12.47 0 016.47.35 4.66 4.66 0 013.27 4.69v5.55c0 1.85-.32 4 .72 6h-4.35a.56.56 0 01-.4-.33c-.06-.54-.12-1.1-.2-1.71zm-.17-5.59l-4.73 1.18a1.73 1.73 0 00-.39.18 1.71 1.71 0 00-.88 1.84 1.48 1.48 0 001.14 1.39 5.58 5.58 0 001.63.16 3 3 0 003-2.11 22.17 22.17 0 00.23-2.64z" id="path46"/><path class="cls-2" d="M213.6 50.195l-4.4-.31a4.71 4.71 0 012.48-4.84 10.79 10.79 0 013.09-.92 11.35 11.35 0 015.63.45 4.67 4.67 0 013.3 4.72v8.06a7 7 0 00.59 3.17 1.94 1.94 0 01.07.3h-4.35c-.1 0-.26-.21-.29-.34-.1-.54-.16-1.09-.24-1.7-.21.25-.39.47-.59.68a5.92 5.92 0 01-4.7 1.76 6.68 6.68 0 01-3.13-.74 4.64 4.64 0 01-2.53-4.42 4.16 4.16 0 012.73-4 23.15 23.15 0 015.36-1.35c.75-.15 1.5-.3 2.25-.42.28 0 .37-.16.35-.42-.02-.26 0-.53 0-.8a1.69 1.69 0 00-1.4-1.65 8.66 8.66 0 00-2.33 0 1.88 1.88 0 00-1.72 1.76c-.09.25-.12.62-.17 1.01zm5.6 3l-4.63 1.16a1.87 1.87 0 00-1.27 2 1.47 1.47 0 001.14 1.38 5 5 0 001.68.15 3.11 3.11 0 002.82-1.79 6.48 6.48 0 00.24-2.9z" id="path48"/><path class="cls-2" d="M168.77 53.785h-12c-.1 2.24.89 3.59 2.41 4 2.37.65 3.93-.12 4.9-2.49l4.41.39a7.54 7.54 0 01-1.81 3.36 6.64 6.64 0 01-3.31 1.83 10.67 10.67 0 01-5.85-.1 7.29 7.29 0 01-5.2-6.29 11.44 11.44 0 01.27-5.07 7.08 7.08 0 015.44-5.16 10.41 10.41 0 014.87 0 6.91 6.91 0 015.15 4.57 12.22 12.22 0 01.72 4.96zm-4.71-3.2a3.27 3.27 0 00-3.62-3.41 3.33 3.33 0 00-3.59 3.41z" id="path50"/><path class="cls-2" d="M117.46 44.435h4.52v2.22c.09 0 .14-.06.16-.09 1.05-2 2.86-2.54 4.92-2.53a6.18 6.18 0 012.8.55 4.62 4.62 0 012.7 3.77 17.62 17.62 0 01.16 2.18v10.31h-4.61v-.59-9.34a5.47 5.47 0 00-.42-2.16c-.83-1.73-3.8-1.45-4.73-.17a5.37 5.37 0 00-.88 3.24v9h-4.57z" id="path52"/><path class="cls-2" d="M186.84 60.795h-4.61v-.57-9.28a5.46 5.46 0 00-.39-2.17c-.83-1.81-3.83-1.51-4.75-.23a5.26 5.26 0 00-.89 3.23V60.805h-4.56v-16.37h4.54v2.15a11.5 11.5 0 011.29-1.47 5.35 5.35 0 013.7-1.1 6.23 6.23 0 012.85.55 4.63 4.63 0 012.72 3.81 20.58 20.58 0 01.15 2.07v9.93c-.03.12-.04.26-.05.42z" id="path54"/><path class="cls-2" d="M227.18 44.435h4.71v9.33c0 .62.05 1.25.12 1.87.18 1.54 1.62 2.43 3.36 2.08a2.76 2.76 0 002.26-2.15 9.76 9.76 0 00.26-2.22v-8.91h4.52v16.36h-4.42v-2l-.18-.13a1 1 0 01-.06.25 4.77 4.77 0 01-4.51 2.3 6.33 6.33 0 01-3.65-1 5.21 5.21 0 01-2.3-4.29c-.07-1.73-.1-3.45-.11-5.18v-6.31z" id="path56"/><path class="cls-2" d="M245.06 55.855l4.31-.55c.05.18.09.35.12.52a2.45 2.45 0 002.2 2.2 9 9 0 002.58-.12 1.52 1.52 0 001.21-1.56c0-.65-.29-1.1-1.12-1.38-1.21-.39-2.46-.68-3.67-1.08a19.74 19.74 0 01-3-1.19 3.92 3.92 0 01-2.09-4 4.32 4.32 0 012.58-3.86 8.88 8.88 0 013.93-.84 10.46 10.46 0 014.18.67 4.83 4.83 0 013.13 3.93v.36l-4.16.71c-.08-.32-.13-.59-.19-.86a2.09 2.09 0 00-1.4-1.56 3.86 3.86 0 00-2.91.11 1.3 1.3 0 00-.84 1.25 1.17 1.17 0 00.79 1.22c1 .36 2.1.64 3.15 1a31 31 0 013.15 1c2.92 1.24 3.37 3.85 2.51 6.29a3.93 3.93 0 01-2.34 2.25 11.4 11.4 0 01-8.88 0 5 5 0 01-3.24-4.51z" id="path58"/><path class="cls-2" d="M91.99 60.805h-4.58v-16.37h4.47v2.66c1.18-2.48 3.26-3.18 5.79-3.06v4.14a15.05 15.05 0 00-2 0 3.84 3.84 0 00-3.53 3.61 11.35 11.35 0 00-.15 1.65v6.77z" id="path60"/><path class="cls-2" d="M46.47 47.085a5.63 5.63 0 015.9-3.11 8.16 8.16 0 012 .36 5 5 0 013.36 4.42 10.71 10.71 0 01.12 1.38v10.61h-4.57v-.56-8.92a14.7 14.7 0 00-.1-1.75 2.44 2.44 0 00-2.69-2c-1.74.13-2.67 1-2.93 2.94a12.45 12.45 0 00-.11 1.49V60.795h-4.64v-.56-8.87c0-.49-.06-1-.08-1.49a2.47 2.47 0 00-3-2.34c-1.49.17-2.3 1.06-2.57 2.86a13.29 13.29 0 00-.11 1.54v8.85h-4.56v-16.42h4.56v2a5.25 5.25 0 015-2.42 4.6 4.6 0 014.42 3.14z" id="path62"/><path class="cls-2" d="M28.74 60.755h-4.56v-16.4h4.55z" id="path64"/><path class="cls-2" d="M24.18 42.135v-4.36a2.42 2.42 0 010-.34h4.52v4.7z" id="path66"/></svg>