<svg xmlns="http://www.w3.org/2000/svg" id="图层_1" data-name="图层 1" version="1.1" width="60.3" height="80.631"><defs id="defs4"><style id="style2">.cls-1{fill:#5fbf44}</style></defs><path class="cls-1" d="M51.02 80.63H9.23a4.41 4.41 0 01-4.45-4.34V51.77L.65 45.41A4 4 0 010 43.23V33.9h60.3v9.43a4 4 0 01-.72 2.29l-4.43 6.51.32 24.15a4.32 4.32 0 01-1.24 3.07 4.49 4.49 0 01-3.21 1.28zM3.58 37.49v5.75a.39.39 0 00.07.23l4.7 7.25V76.3a.82.82 0 00.87.76H51a.91.91 0 00.66-.27.67.67 0 00.21-.51l-.29-25.29 5-7.39a.43.43 0 00.08-.24V37.5z" id="path8"/><path class="cls-1" d="M28.35 15a7.5 7.5 0 117.5-7.5 7.51 7.51 0 01-7.5 7.5zm0-11.43a3.93 3.93 0 103.93 3.93 3.93 3.93 0 00-3.93-3.93z" id="path10"/><path class="cls-1" d="M41.42 31.78v-6.85a.23.23 0 00-.12-.19l-7.91-4.61-3.45 2.5a2.67 2.67 0 01-3.3-.1l-2.78-2.3-8 5.19a.21.21 0 00-.09.17v6.11h-3.55v-6.11a3.79 3.79 0 011.71-3.18l8.65-5.59a2.53 2.53 0 013 .17l2.83 2.34 3.44-2.52a2.56 2.56 0 012.73-.17l8.48 5a3.8 3.8 0 011.92 3.27v6.85zm-16.94-12v.03z" id="path12"/><path class="cls-1" id="rect14" d="M11.08 44.15h36.44v3.58H11.08z"/><path class="cls-1" d="M55.25 34.63h-3.58v-13.6l-7.29-4.52 1.89-3 7.36 4.57A3.41 3.41 0 0155.26 21v13.63z" id="path16"/><path class="cls-1" d="M45.12 65.03H27.85V53.35h17.27zm-13.69-3.57h10.15v-4.53H31.43z" id="path18"/></svg>