<svg xmlns="http://www.w3.org/2000/svg" id="图层_1" data-name="图层 1" version="1.1" width="16.62" height="20.603"><defs id="defs4"><style id="style2">.cls-1{fill:#5fbf44}</style></defs><path class="cls-1" d="M14.67 8.273v-2.82c0-2.65-1.93-2.92-2.15-2.94h-.86l-.14-.12-.27-.21a5.73 5.73 0 00-5.9-.66c-.81.34-3.45 1.66-3.45 4.28v1.85h-1v-1.85c0-2.18 1.51-4.12 4.05-5.2a6.76 6.76 0 016.9.79l.16.13h.55a3.58 3.58 0 013.1 3.93v2.77z" id="path8"/><path class="cls-1" d="M8.89 18.513h-.11l-1.21-.06a3.11 3.11 0 01-1.4-.36l-2.11-1.13a2.94 2.94 0 01-1.13-1.11l-1.76-3.06a.27.27 0 00-.17-.13 1.28 1.28 0 01-1-1.19v-1.61a1.28 1.28 0 01.93-1.26l.59-.15 2.58 2.71-.08-.31 3.66-.89a2.32 2.32 0 011.08 0l4 .94 2.01-2.45.93.28a1.26 1.26 0 01.92 1.21v1.51a1.27 1.27 0 01-.87 1.2l-.2.07a.25.25 0 00-.16.14l-1.32 2.59a3.45 3.45 0 01-1.41 1.47l-2 1.09a3.65 3.65 0 01-1.77.5zm-4.72-2.67a2.8 2.8 0 00.35.25l2.09 1.13a2.24 2.24 0 001 .26h1.21a2.68 2.68 0 001.35-.3l2-1.09a2.42 2.42 0 001-1.05l1.32-2.67a1.26 1.26 0 01.74-.64l.2-.07a.28.28 0 00.19-.26v-1.43a.28.28 0 00-.2-.26l-.32-.09-2 2.4-4.56-1.08a1.11 1.11 0 00-.6 0l-3.67.89-.1-.38zm-3-6.27a.29.29 0 00-.17.27v1.6a.29.29 0 00.21.26 1.26 1.26 0 01.79.6l1.1 2v-2.63z" id="path10"/><path class="cls-1" id="rect12" d="M12.44 12.583h.99v3.62h-.99z"/><path class="cls-1" d="M1.79 20.603l-.3-.94 1.68-.54a.72.72 0 00.19-.11l.29-.29a.46.46 0 00.15-.27v-.78h1v.78a1.44 1.44 0 01-.43 1l-.29.28a1.44 1.44 0 01-.58.35z" id="path14"/><path class="cls-1" d="M14.77 20.603l-1.7-.54a1.47 1.47 0 01-.57-.35l-.33-.26a1.45 1.45 0 01-.44-1v-.63h1v.63a.43.43 0 00.14.32l.29.29a.54.54 0 00.18.11l1.71.54z" id="path16"/><path class="cls-1" d="M14.17 7.843h-1c0-.58-.16-.75-.2-.77a3.24 3.24 0 01-.33-.13 4.51 4.51 0 01-1.68-1.59c-1.44 1.28-3.69.49-3.8.45l-1.86-.57a2.13 2.13 0 00-1.59.61 2.67 2.67 0 00-.54 1.79l-1 .09a3.66 3.66 0 01.8-2.55 3.13 3.13 0 012.4-.93h.14l2 .6c.12 0 2.28.79 3.18-.68l.61-1 .3 1.11a3.2 3.2 0 001.57 1.8l.18.06c.27.11.82.48.82 1.71z" id="path18"/></svg>