<svg id="图层_1" data-name="图层 1" xmlns="http://www.w3.org/2000/svg" viewBox="0 0 219.13 58.99"><defs><style>.cls-1{fill:#5fbf44;}</style></defs><title>未标题-2</title><path class="cls-1" d="M19.68,46.14a4.59,4.59,0,0,0-3.31-4,8,8,0,0,0-3.67-.12,4.37,4.37,0,0,0-3,2.14c-.05.09-.11.17-.16.25l-.08,0V36H5.05V58.19H9.49V57.7c0-2.71,0-5.41,0-8.12,0-.33,0-.67,0-1,.15-1.85,1.27-3.51,3.62-3.23a2.37,2.37,0,0,1,2.1,1.93,8.31,8.31,0,0,1,.12,1.32q0,4.56,0,9.12v.46h4.46v-.5c0-3,0-5.92,0-8.88C19.81,47.92,19.76,47,19.68,46.14Z"/><path class="cls-1" d="M33.35,42.31a9.69,9.69,0,0,0-5.62,0,6.78,6.78,0,0,0-4.9,4.89,11.22,11.22,0,0,0-.22,5.12,7.06,7.06,0,0,0,4.74,5.78,10.1,10.1,0,0,0,5.06.36,6.59,6.59,0,0,0,5.73-4.92c0-.09,0-.18,0-.28L36,53l-2.1-.17c-.57,2.42-2.4,2.8-4.48,2.45-1.83-.32-2.63-1.93-2.58-3.91H38.45a3.21,3.21,0,0,0,0-.51A13.07,13.07,0,0,0,38,47.25,6.74,6.74,0,0,0,33.35,42.31Zm-6.45,6a3.19,3.19,0,0,1,2.89-3.26,6.41,6.41,0,0,1,2.14.19,3,3,0,0,1,2,3.07Z"/><path class="cls-1" d="M75.31,47.71a6.84,6.84,0,0,0-5.38-5.58,9.83,9.83,0,0,0-4.76.06,6.79,6.79,0,0,0-5.11,4.88,11.18,11.18,0,0,0-.22,5.39,7,7,0,0,0,5,5.69,10.17,10.17,0,0,0,5.81,0,6.4,6.4,0,0,0,4.63-4.52,4.15,4.15,0,0,0,.12-.45l-3.78-.34-.51,0c-.57,2.47-2.49,2.86-4.65,2.41-1.68-.35-2.51-2-2.38-3.89H75.65a14.12,14.12,0,0,0,0-1.46A16.31,16.31,0,0,0,75.31,47.71Zm-11.23.59A3.29,3.29,0,0,1,67.72,45a3.14,3.14,0,0,1,3.4,3.31Z"/><path class="cls-1" d="M93,46.14a4.47,4.47,0,0,0-3.13-3.93A7,7,0,0,0,86.33,42a4.31,4.31,0,0,0-3.43,2.4s-.05,0-.13.07V42.29H78.39V58.15h4.43V55.23c0-2.14,0-4.28,0-6.42S84,45,86.49,45.31a2.32,2.32,0,0,1,2.07,1.94,12.29,12.29,0,0,1,.11,1.49c0,3,0,6,0,9v.45h4.5v-.51c0-3,0-5.92,0-8.88C93.16,47.89,93.09,47,93,46.14Z"/><path class="cls-1" d="M55,40.5c0-.88.3-1.19,1.19-1.22.62,0,1.25,0,1.93,0V35.93a12,12,0,0,0-4,0,3.81,3.81,0,0,0-3.53,3.9c-.07.8,0,1.61,0,2.46H48.23v3.49H50.5V58.15H55V45.76h3.21V42.27H55C55,41.65,54.94,41.08,55,40.5Z"/><path class="cls-1" d="M106.05,36a10.5,10.5,0,0,0-5.1-.36,6.43,6.43,0,0,0-5.79,5.53c-.07.39-.09.79-.14,1.2l4.58.72c.1-.7.15-1.33.3-1.94a2.25,2.25,0,0,1,1.71-1.85,5.64,5.64,0,0,1,1.64-.09,1.85,1.85,0,0,1,1.57,1.05,3.18,3.18,0,0,1-.39,3.47c-.5.56-1.07,1.06-1.59,1.6a25.28,25.28,0,0,0-1.87,2c-1,1.2-.77,2.64-.75,4h4.11c0-.08,0-.14,0-.19a3.26,3.26,0,0,1,1.31-2.92l2.15-1.9a6.09,6.09,0,0,0,2.08-5.15A5.62,5.62,0,0,0,106.05,36Z"/><path class="cls-1" d="M41.21,58.16h4.38V35.93H41.2Z"/><path class="cls-1" d="M100,58.14h4.73v-5H100Z"/><path class="cls-1" d="M192,19.43c-.12-.56-.21-1-.31-1.5L189.41,7.36c0-.21-.11-.29-.33-.29h-4.25c-.92,4.1-1.84,8.18-2.73,12.12-.77-3.95-1.57-8-2.37-12.1h-4.6q2.26,8,4.52,15.89h4c.81,0,.82,0,1-.78.65-2.9,1.3-5.8,1.93-8.7.19-.88.31-1.77.46-2.66a.88.88,0,0,1,.15.35q1.25,5.76,2.52,11.54a.39.39,0,0,0,.27.23c1.51,0,3,0,4.55,0L199,7.1H194.4C193.6,11.19,192.79,15.26,192,19.43Z"/><path class="cls-1" d="M213.61,9.84l-.07-.08V7.1H209.2V23h4.43v-.43c0-2.23,0-4.46,0-6.7A10.32,10.32,0,0,1,213.8,14,3.61,3.61,0,0,1,217,10.76a20.25,20.25,0,0,1,2.15-.16V6.69C216.66,6.61,214.6,7.25,213.61,9.84Z"/><path class="cls-1" d="M201.19,23h4.4V7.09h-4.4Z"/><path class="cls-1" d="M201.18,5h4.41V.41h-4.41Z"/><path class="cls-1" d="M10.62,23.26q.44-1.67.84-3.36C12.32,16.25,13.19,12.61,14,9c.2-.84.32-1.69.48-2.54a9.15,9.15,0,0,1,.34,1.32q1.83,7.75,3.65,15.5c.07.28.2.32.44.32h4.57l.33,0Q26.47,12.41,29.1,1.28h-5c-1,5.67-1.94,11.33-2.93,17,0-.14-.06-.24-.08-.34-.55-2.46-1.08-4.93-1.67-7.39-.72-3-1.49-6-2.24-9-.05-.18-.05-.34-.31-.34H12C10.69,6.94,9.35,12.6,8,18.17c-1-5.56-2-11.21-3-16.86H0Q2.66,12.47,5.28,23.55h5.05A.45.45,0,0,0,10.62,23.26Z"/><path class="cls-1" d="M78.77,23.49l-6.32-9.9,6.2-6c-1.89,0-3.65,0-5.41,0a.73.73,0,0,0-.46.25c-1.45,1.51-2.88,3-4.32,4.53-.09.1-.2.2-.38.37V1.27H63.67V23.5H68.1V18.08a.76.76,0,0,1,.13-.44c.36-.43.75-.84,1.17-1.3l.32.52C71,19,72.25,21.08,73.5,23.2a.54.54,0,0,0,.57.32h4.28Z"/><path class="cls-1" d="M54.55,16.72a11.7,11.7,0,0,0-1.2-5.88,6.39,6.39,0,0,0-3.93-3.19,9.78,9.78,0,0,0-5.57-.05,6.77,6.77,0,0,0-5,4.9,11.18,11.18,0,0,0-.17,5.39,7,7,0,0,0,5,5.6,10.14,10.14,0,0,0,6,0A6.36,6.36,0,0,0,54.16,19c0-.13.06-.27.1-.45L50,18.19c-.52,2.46-2.53,2.88-4.69,2.4-1.77-.39-2.49-2.24-2.31-3.87Zm-8.64-6.36c2.68-.23,4,1,4.09,3.29H43A3.26,3.26,0,0,1,45.91,10.36Z"/><path class="cls-1" d="M139.47,23.36a10.32,10.32,0,0,0,5.29.32,6.83,6.83,0,0,0,3.89-2,7.21,7.21,0,0,0,1.7-3.19L146,18.14c-.06.21-.1.37-.16.54a2.59,2.59,0,0,1-2.13,1.91,7.61,7.61,0,0,1-1.72.07c-2.05-.13-3.13-1.73-3-4h11.58c0-.19,0-.34,0-.48a12.94,12.94,0,0,0-.49-3.67,6.74,6.74,0,0,0-4.94-5,9.86,9.86,0,0,0-5,0,6.81,6.81,0,0,0-5.18,5,11.12,11.12,0,0,0-.22,5.19A7,7,0,0,0,139.47,23.36Zm2.44-13a6.23,6.23,0,0,1,2.11.18,2.93,2.93,0,0,1,2,3.09h-7A3.18,3.18,0,0,1,141.91,10.34Z"/><path class="cls-1" d="M96,13.65A7.45,7.45,0,0,0,90.71,7.6,9.49,9.49,0,0,0,87,7.27a7.36,7.36,0,0,0-6.39,4.14,9.61,9.61,0,0,0-.41,7.53A6.78,6.78,0,0,0,83.83,23,9.65,9.65,0,0,0,88,23.9l.93-.06a7.41,7.41,0,0,0,6.29-4A9.16,9.16,0,0,0,96,13.65Zm-4.85,4.52a2.81,2.81,0,0,1-3,2.52,6.15,6.15,0,0,1-1,0,2.78,2.78,0,0,1-2.41-2.38,12.15,12.15,0,0,1,0-5.4,2.84,2.84,0,0,1,2.91-2.44,4.93,4.93,0,0,1,1.09,0A2.83,2.83,0,0,1,91.2,13c.15.85.21,1.71.32,2.56C91.41,16.44,91.35,17.31,91.19,18.17Z"/><path class="cls-1" d="M103.39,22.28c0-2.73,0-5.46,0-8.19,0-2.09,1.21-3.68,3.51-3.45a2.29,2.29,0,0,1,2.2,2.07,11.76,11.76,0,0,1,.09,1.45c0,3,0,5.95,0,8.92,0,.13,0,.26,0,.4h4.48V23c0-3,0-5.92,0-8.88,0-.87-.07-1.74-.15-2.61a4.47,4.47,0,0,0-3.14-4,6.92,6.92,0,0,0-3.5-.24,4.33,4.33,0,0,0-3.49,2.43l-.12,0V7.62H99V23.48h4.43Z"/><path class="cls-1" d="M121.61,23c0-2.63,0-5.25,0-7.88,0-.43,0-.86,0-1.29.17-1.88,1.25-3.41,3.48-3.19a2.32,2.32,0,0,1,2.23,2.09,10.39,10.39,0,0,1,.09,1.37c0,3,0,6,0,9v.42H132V23c0-3,0-6,0-9,0-.76-.05-1.53-.12-2.29a4.51,4.51,0,0,0-3.12-4.08,7,7,0,0,0-3.58-.24,4.33,4.33,0,0,0-3.45,2.42s0,0-.11,0V7.61h-4.38V23.48h4.43Z"/><path class="cls-1" d="M168.09,13.8a23.9,23.9,0,0,0-.18-2.53,4.46,4.46,0,0,0-2.63-3.57,6,6,0,0,0-2.79-.51c-2,0-3.67.57-4.65,2.47,0,0,0,0-.11.07V7.58h-4.4V23.45h4.42V23c0-2.65,0-5.31,0-8a11.58,11.58,0,0,1,.08-1.44,3,3,0,0,1,3.48-3,2.3,2.3,0,0,1,2.18,2,9.87,9.87,0,0,1,.11,1.44c0,3,0,6,0,9,0,.14,0,.29,0,.44h4.46V23C168.1,19.94,168.11,16.87,168.09,13.8Z"/><path class="cls-1" d="M35.72,7.66h-4.4V23.52h4.4Z"/><path class="cls-1" d="M35.71,1H31.32V5.51h4.4Z"/><path class="cls-1" d="M93,1.52a.27.27,0,0,0-.19-.18H89V5.48H93C93,4.15,93,2.83,93,1.52Z"/><path class="cls-1" d="M86.88,1.52a.27.27,0,0,0-.19-.18H82.84V5.49h4C86.89,4.15,86.89,2.84,86.88,1.52Z"/></svg>