<?xml version="1.0" encoding="UTF-8" standalone="no"?>
<svg
   xmlns:dc="http://purl.org/dc/elements/1.1/"
   xmlns:cc="http://creativecommons.org/ns#"
   xmlns:rdf="http://www.w3.org/1999/02/22-rdf-syntax-ns#"
   xmlns:svg="http://www.w3.org/2000/svg"
   xmlns="http://www.w3.org/2000/svg"
   xmlns:sodipodi="http://sodipodi.sourceforge.net/DTD/sodipodi-0.dtd"
   xmlns:inkscape="http://www.inkscape.org/namespaces/inkscape"
   id="图层_1"
   data-name="图层 1"
   version="1.1"
   width="45"
   height="37.190205"
   sodipodi:docname="news_icon.svg"
   inkscape:version="1.0.1 (3bc2e813f5, 2020-09-07)">
  <metadata
     id="metadata23">
    <rdf:RDF>
      <cc:Work
         rdf:about="">
        <dc:format>image/svg+xml</dc:format>
        <dc:type
           rdf:resource="http://purl.org/dc/dcmitype/StillImage" />
        <dc:title></dc:title>
      </cc:Work>
    </rdf:RDF>
  </metadata>
  <defs
     id="defs21" />
  <sodipodi:namedview
     pagecolor="#ffffff"
     bordercolor="#666666"
     borderopacity="1"
     objecttolerance="10"
     gridtolerance="10"
     guidetolerance="10"
     inkscape:pageopacity="0"
     inkscape:pageshadow="2"
     inkscape:window-width="1680"
     inkscape:window-height="987"
     id="namedview19"
     showgrid="false"
     fit-margin-top="0"
     fit-margin-left="0"
     fit-margin-right="0"
     fit-margin-bottom="0"
     inkscape:zoom="13.707572"
     inkscape:cx="24.121895"
     inkscape:cy="26.810198"
     inkscape:window-x="-8"
     inkscape:window-y="-8"
     inkscape:window-maximized="1"
     inkscape:current-layer="图层_1"
     inkscape:document-rotation="0" />
  <path
     d="m 32.160396,33.91315 a 0.87,0.87 0 0 1 -0.27,0.63 l -0.73,0.71 a 0.93,0.93 0 0 1 -0.66,0.26 h -17.12 a 0.89,0.89 0 0 1 -0.7,-0.32 l -0.55,-0.63 a 0.89,0.89 0 0 1 -0.22,-0.58 v -3.47 h 18.62 v -1.75 h -18.62 V 3.3631505 a 0.86,0.86 0 0 1 0.24,-0.6 l 0.6,-0.65 a 0.94,0.94 0 0 1 0.69,-0.3 h 17.15 a 0.94,0.94 0 0 1 0.68,0.29 l 0.64,0.67 a 0.88,0.88 0 0 1 0.25,0.61 v 1.12 h -17.62 v 1.75 h 17.62 V 11.67315 h 1.75 V 3.3931505 a 2.61,2.61 0 0 0 -0.74,-1.83 l -0.64,-0.67000002 a 2.7,2.7 0 0 0 -1.93,-0.82 h -17.15 a 2.68,2.68 0 0 0 -2,0.86 l -0.6,0.65000002 a 2.61,2.61 0 0 0 -0.71,1.79 V 33.98315 a 2.6,2.6 0 0 0 0.66,1.74 l 0.55,0.63 a 2.68,2.68 0 0 0 2,0.91 h 17.17 a 2.69,2.69 0 0 0 1.88,-0.76 l 0.73,-0.71 a 2.65,2.65 0 0 0 0.8,-1.89 v -8.75 h -1.75 v 8.76 z"
     id="path30" />
  <path
     id="polygon32"
     d="m 16.000396,22.28315 h 1.38 v -5.36 l 3.33,5.36 h 1.44 v -7.81 h -1.37 v 5.29 l -3.29,-5.29 h -1.49 z" />
  <path
     id="polygon34"
     d="m 23.670396,14.47315 v 7.81 h 5.48 v -1.29 h -4.08 v -2.14 h 3.59 v -1.27 h -3.59 v -1.82 h 4.08 v -1.29 z" />
  <path
     id="polygon36"
     d="m 33.480396,14.60315 -1.58,5.3 -1.08,-5.43 h -1.33 l 1.55,7.81 h 1.4 l 1.6,-5.38 1.61,5.38 h 1.4 l 1.53,-7.81 h -1.28 l -1.1,5.43 -1.55,-5.3 z" />
  <path
     d="m 44.810396,19.06315 a 2,2 0 0 0 -0.46,-0.68 2.19,2.19 0 0 0 -0.67,-0.45 3.7,3.7 0 0 0 -0.82,-0.24 c -0.25,0 -0.53,-0.07 -0.84,-0.1 l -0.83,-0.1 a 1,1 0 0 1 -0.56,-0.26 0.79,0.79 0 0 1 -0.22,-0.59 0.82,0.82 0 0 1 0.07,-0.37 1.32,1.32 0 0 1 0.19,-0.29 1.18,1.18 0 0 1 0.58,-0.31 2.63,2.63 0 0 1 0.67,-0.09 2.16,2.16 0 0 1 0.65,0.11 1.2,1.2 0 0 1 0.52,0.31 1.31,1.31 0 0 1 0.23,0.36 1,1 0 0 1 0.1,0.41 h 1.43 a 2.14,2.14 0 0 0 -0.22,-0.91 2.72,2.72 0 0 0 -0.56,-0.75 2.56,2.56 0 0 0 -1,-0.57 3.66,3.66 0 0 0 -1.19,-0.19 3.59,3.59 0 0 0 -1.28,0.22 2.8,2.8 0 0 0 -1,0.6 2.72,2.72 0 0 0 -0.49,0.69 2,2 0 0 0 -0.18,0.85 2.13,2.13 0 0 0 0.16,0.86 2.27,2.27 0 0 0 0.42,0.65 2.09,2.09 0 0 0 0.62,0.43 2.83,2.83 0 0 0 0.75,0.23 c 0.25,0 0.54,0.08 0.85,0.1 a 6.94,6.94 0 0 1 0.86,0.11 1.39,1.39 0 0 1 0.63,0.28 0.78,0.78 0 0 1 0.28,0.64 1,1 0 0 1 -0.09,0.45 1.29,1.29 0 0 1 -0.22,0.3 1.17,1.17 0 0 1 -0.58,0.32 3.1,3.1 0 0 1 -0.76,0.09 3.4,3.4 0 0 1 -0.69,-0.08 1.18,1.18 0 0 1 -0.6,-0.33 1.57,1.57 0 0 1 -0.29,-0.42 1.2,1.2 0 0 1 -0.11,-0.53 h -1.37 a 2.36,2.36 0 0 0 0.23,1 2.57,2.57 0 0 0 0.58,0.79 2.8,2.8 0 0 0 1.08,0.62 4.24,4.24 0 0 0 1.22,0.18 4.54,4.54 0 0 0 1.35,-0.19 2.57,2.57 0 0 0 1.08,-0.64 2.33,2.33 0 0 0 0.46,-0.68 2.27,2.27 0 0 0 0.18,-0.95 2,2 0 0 0 -0.16,-0.88 z"
     id="path38" />
</svg>
