<svg xmlns="http://www.w3.org/2000/svg" id="图层_1" data-name="图层 1" version="1.1" width="45.526" height="53.62"><defs id="defs4"><style id="style2">.cls-1{fill:#606060}</style></defs><path class="cls-1" d="M3.97 46.18H2.66L0 53.43h1.1l.65-1.66h3.2l.6 1.66h1.1l-2.66-7.16zm.58 4.59H2.07l1.24-3.45z" id="path8"/><path class="cls-1" d="M10.44 51.22a1.3 1.3 0 01-1.31 1.38 1.18 1.18 0 01-1.2-1.24v-3.38h-1v3.39a2 2 0 002 2.18 1.87 1.87 0 001.5-.67v.54h1v-5.45h-1v3.25z" id="path10"/><path class="cls-1" d="M14.52 50.12c-.72-.14-1.16-.24-1.16-.7 0-.46.37-.64.93-.64a1 1 0 011.11.87v.15l.92-.27v-.11a1.89 1.89 0 00-2-1.57c-1.17 0-2 .65-2 1.57 0 1.22 1 1.43 1.83 1.59.83.16 1.24.28 1.24.82 0 .54-.41.79-1.07.79-.51 0-1.13-.16-1.2-1v-.15l-1 .24v.11a1.93 1.93 0 002.2 1.78c1.27 0 2.12-.71 2.12-1.76 0-1.36-1.06-1.56-1.92-1.72z" id="path12"/><path class="cls-1" id="polygon14" transform="translate(-3.25 -5.4)" d="M22.31 55.38h-.71v-4.29h-1.02v7.74h1.02v-2.48h.74l1.48 2.42.03.06h1.23l-1.91-2.99 1.8-2.46h-1.21z"/><path class="cls-1" d="M23.54 47.21a.64.64 0 000-1.28.64.64 0 100 1.28z" id="path16"/><circle class="cls-1" cx="25.19" cy="46.56" r=".64" id="circle18"/><path class="cls-1" d="M25.61 51.22a1.3 1.3 0 01-1.31 1.38 1.18 1.18 0 01-1.2-1.24v-3.38h-1v3.39a2 2 0 002 2.18 1.84 1.84 0 001.5-.67v.54h1v-5.45h-1v3.25z" id="path20"/><path class="cls-1" d="M30.2 47.85a1.87 1.87 0 00-1.5.67v-.54h-1v5.45h1v-3.22a1.31 1.31 0 011.31-1.36 1.18 1.18 0 011.2 1.24v3.34h1v-3.39a2 2 0 00-2.01-2.19z" id="path22"/><path class="cls-1" d="M34.68 47.29c0-.49.17-.67.64-.67h.81v-.94h-.8a1.48 1.48 0 00-1.68 1.6v.69h-1v.92h1v4.53h1v-4.53h1.5v-.92h-1.5v-.68z" id="path24"/><path class="cls-1" d="M38.37 46.47h-1v1.51h-1v.92h1v2.92a1.48 1.48 0 001.68 1.6h.85v-.94h-.86c-.47 0-.64-.18-.64-.67V48.9h1.55v-.92h-1.58z" id="path26"/><path class="cls-1" d="M45.51 50.6a2.5 2.5 0 00-2.56-2.78 2.66 2.66 0 00-2.61 2.87A2.6 2.6 0 0043 53.6a2.44 2.44 0 002.44-1.75v-.13l-1-.24v.12a1.4 1.4 0 01-1.42 1 1.5 1.5 0 01-1.62-1.56h4.12v-.44zm-2.56-1.8a1.42 1.42 0 011.5 1.35h-3a1.54 1.54 0 011.5-1.35z" id="path28"/><path class="cls-1" d="M30.86 33.84a.87.87 0 01-.27.63l-.73.71a.93.93 0 01-.66.26H12.08a.89.89 0 01-.7-.32l-.55-.63a.89.89 0 01-.22-.58v-3.47h18.62v-1.75H10.61V3.29a.86.86 0 01.24-.6l.6-.65a.94.94 0 01.69-.3h17.15a.94.94 0 01.68.29l.64.67a.88.88 0 01.25.61v1.12H13.24v1.75h17.62v5.42h1.75V3.32a2.61 2.61 0 00-.74-1.83l-.64-.67A2.7 2.7 0 0029.3 0H12.15a2.68 2.68 0 00-2 .86l-.6.65a2.61 2.61 0 00-.71 1.79v30.61a2.6 2.6 0 00.66 1.74l.55.63a2.68 2.68 0 002 .91h17.17a2.69 2.69 0 001.88-.76l.73-.71a2.65 2.65 0 00.8-1.89v-8.75h-1.75v8.76z" id="path30"/><path class="cls-1" id="polygon32" transform="translate(-3.25 -5.4)" d="M17.95 27.61h1.38v-5.36l3.33 5.36h1.44V19.8h-1.37v5.29l-3.29-5.29h-1.49z"/><path class="cls-1" id="polygon34" transform="translate(-3.25 -5.4)" d="M25.62 19.8v7.81h5.48v-1.29h-4.08v-2.14h3.59v-1.27h-3.59v-1.82h4.08V19.8z"/><path class="cls-1" id="polygon36" transform="translate(-3.25 -5.4)" d="M35.43 19.93l-1.58 5.3-1.08-5.43h-1.33l1.55 7.81h1.4l1.6-5.38 1.61 5.38H39l1.53-7.81h-1.28l-1.1 5.43-1.55-5.3z"/><path class="cls-1" d="M43.51 18.99a2 2 0 00-.46-.68 2.19 2.19 0 00-.67-.45 3.7 3.7 0 00-.82-.24c-.25 0-.53-.07-.84-.1l-.83-.1a1 1 0 01-.56-.26.79.79 0 01-.22-.59.82.82 0 01.07-.37 1.32 1.32 0 01.19-.29 1.18 1.18 0 01.58-.31 2.63 2.63 0 01.67-.09 2.16 2.16 0 01.65.11 1.2 1.2 0 01.52.31 1.31 1.31 0 01.23.36 1 1 0 01.1.41h1.43a2.14 2.14 0 00-.22-.91 2.72 2.72 0 00-.56-.75 2.56 2.56 0 00-1-.57 3.66 3.66 0 00-1.19-.19 3.59 3.59 0 00-1.28.22 2.8 2.8 0 00-1 .6 2.72 2.72 0 00-.49.69 2 2 0 00-.18.85 2.13 2.13 0 00.16.86 2.27 2.27 0 00.42.65 2.09 2.09 0 00.62.43 2.83 2.83 0 00.75.23c.25 0 .54.08.85.1a6.94 6.94 0 01.86.11 1.39 1.39 0 01.63.28.78.78 0 01.28.64 1 1 0 01-.09.45 1.29 1.29 0 01-.22.3 1.17 1.17 0 01-.58.32 3.1 3.1 0 01-.76.09 3.4 3.4 0 01-.69-.08 1.18 1.18 0 01-.6-.33 1.57 1.57 0 01-.29-.42 1.2 1.2 0 01-.11-.53h-1.37a2.36 2.36 0 00.23 1 2.57 2.57 0 00.58.79 2.8 2.8 0 001.08.62 4.24 4.24 0 001.22.18 4.54 4.54 0 001.35-.19 2.57 2.57 0 001.08-.64 2.33 2.33 0 00.46-.68 2.27 2.27 0 00.18-.95 2 2 0 00-.16-.88z" id="path38"/></svg>