<svg xmlns="http://www.w3.org/2000/svg" data-name="图层 1" width="17.077" height="17.078"><path d="M16.976 4.23a4.07 4.07 0 01-1.24 2.91c-1 1-1.92 2-2.89 2.93-.97.93-1.94 1.9-2.9 2.87-.96.97-1.91 2-2.9 2.92a4.09 4.09 0 01-4 .94 4 4 0 01-1.6-.91 3.94 3.94 0 01-1.14-1.8 4 4 0 011.26-4.36c.71-.68 1.38-1.41 2.08-2.12.7-.71 1.44-1.41 2.16-2.13l2.05-2a32.49 32.49 0 012.44-2.4 3.79 3.79 0 014-.69 4 4 0 012.29 2.05 3.9 3.9 0 01.39 1.79zm-6.47 6.91a.55.55 0 00-.06-.13l-1.68-1.66L7.446 8c-.44-.39-.86-.87-1.29-1.29a.29.29 0 00-.46 0l-.94.95c-.7.7-1.41 1.39-2.1 2.1a5.71 5.71 0 00-1.52 2 3.27 3.27 0 001.8 4.12 3 3 0 003-.28 10.66 10.66 0 001-.81c.59-.58 1.17-1.16 1.74-1.75.57-.59 1.19-1.24 1.83-1.9zm5.66-7.12a5.34 5.34 0 00-.28-1.16 3.29 3.29 0 00-5.3-1c-.72.75-1.43 1.42-2.14 2.13l-1.66 1.62a.35.35 0 000 .53c.16.17.36.32.53.49l.93.94c.44.44.87.89 1.31 1.34.44.45.95.92 1.4 1.39.17.18.26.21.44 0s.66-.65 1-1l1.34-1.36c.44-.44.85-.9 1.31-1.31a3.49 3.49 0 001.12-2.61z" stroke="#5fbf44" stroke-miterlimit="10" fill="#5fbf44" stroke-width=".2"/><path d="M13.856 4.49l-.41-.45-.08-.09a1.15 1.15 0 00-1.63 0l-1.9 1.89" fill="none" stroke="#5fbf44" stroke-miterlimit="10"/></svg>