<svg id="图层_1" data-name="图层 1" xmlns="http://www.w3.org/2000/svg" viewBox="0 0 185.2 255.36"><defs><style>.cls-1{fill:#5fbf44;}</style></defs><title>警察部分说明</title><rect class="cls-1" x="40.89" y="56.97" width="85.43" height="10.94"/><rect class="cls-1" x="40.89" y="94.65" width="85.44" height="10.94"/><rect class="cls-1" x="40.89" y="132.51" width="85.4" height="10.94"/><rect class="cls-1" x="0.07" y="56.56" width="21.03" height="10.94"/><rect class="cls-1" y="93.42" width="21.17" height="10.94"/><rect class="cls-1" y="132.51" width="21.17" height="10.94"/><path class="cls-1" d="M131.88,203.15H106.93A44.17,44.17,0,0,1,76.36,191l-5.27-5a43.86,43.86,0,0,1-9.44-13.07l9.89-4.67A32.87,32.87,0,0,0,78.63,178l5.27,5a33.27,33.27,0,0,0,23,9.18h24.95a33.57,33.57,0,0,0,23.81-10l5-5.11a32.62,32.62,0,0,0,9.44-23l0-106.67A33,33,0,0,0,159.49,23.3l-3.89-3.57A33.32,33.32,0,0,0,133,10.94H106.12A33.34,33.34,0,0,0,84,19.34l-4.49,4a32.92,32.92,0,0,0-9.41,14.24L59.67,34.11a43.89,43.89,0,0,1,12.53-19l4.49-4A44.31,44.31,0,0,1,106.12,0H133a44.3,44.3,0,0,1,30,11.67l3.88,3.58a43.88,43.88,0,0,1,14.18,32.22l0,106.67a43.51,43.51,0,0,1-12.58,30.67l-5,5.12A44.6,44.6,0,0,1,131.88,203.15Z"/><rect class="cls-1" x="112.44" y="197.68" width="10.94" height="51.99"/><rect class="cls-1" x="46.57" y="244.42" width="138.63" height="10.94"/></svg>