<svg id="图层_1" data-name="图层 1" xmlns="http://www.w3.org/2000/svg" viewBox="0 0 257.75 286.42"><defs><style>.cls-1{fill:none;}.cls-2{fill:#5fbf44;}</style></defs><title>Police step_6icon</title><path class="cls-1" d="M147.44,227.44a7.88,7.88,0,1,0,7.88,7.88A7.89,7.89,0,0,0,147.44,227.44Z"/><path class="cls-1" d="M182.9,119a13.74,13.74,0,1,0-13.74-13.74A13.75,13.75,0,0,0,182.9,119Z"/><path class="cls-2" d="M211.66,118.65c11.15,12.13,28,38.54,16.68,79.72-.94,2.43-9.57,23.94-23.35,36.06l6.66,7.61c16.38-14.4,25.84-39.25,26.23-40.3l.14-.43c12.81-46.13-6.42-75.94-19-89.6l0,0a71.67,71.67,0,0,0-12.23-10.81l-.12.19-.06-.31A24.09,24.09,0,1,0,168,124.18l.11.09-.1.1-33.85,34.46h0l-9,.6,0,0L97.4,132.08l.66-8.75,0,0L176,43.9a1.29,1.29,0,0,1,.84-.39l7.59-.68a1.27,1.27,0,0,1,1.05.38l26.82,26.51a1.35,1.35,0,0,1,.4,1l-.41,7.94a1.33,1.33,0,0,1-.38.86l-4.77,4.86,7.22,7.08,4.76-4.86a11.41,11.41,0,0,0,3.26-7.42l.41-8a11.43,11.43,0,0,0-3.38-8.72l-2.24-2.21L230.83,46l-7.31-7L210,53.22l-.09-.09-9-8.88.09-.09,14.29-14L208.21,23,193.7,37.14,192.57,36a11.42,11.42,0,0,0-9.06-3.26l-7.6.68a11.42,11.42,0,0,0-7.14,3.38l-77.89,79.4A10.11,10.11,0,0,0,88,122.53l-.68,8.7a10.15,10.15,0,0,0,3,8L118,166.58a10.22,10.22,0,0,0,7.76,2.91l9-.57a10.15,10.15,0,0,0,6.6-3L177.61,129l-.27-.27.42.09a24.06,24.06,0,0,0,27.94-15.75l.06-.17.14.12a77.31,77.31,0,0,1,5.59,5.45M182.9,91.3a14,14,0,1,1-14,14A14,14,0,0,1,182.9,91.3Z"/><rect class="cls-2" x="222.1" y="-5.55" width="10.11" height="61.19" transform="translate(50.1 169.54) rotate(-45.51)"/><rect class="cls-2" y="276.31" width="257.75" height="10.11"/><path class="cls-2" d="M147.44,217.08a18.24,18.24,0,1,0,18.23,18.24A18.26,18.26,0,0,0,147.44,217.08Zm0,26.37a8.13,8.13,0,1,1,8.13-8.13A8.15,8.15,0,0,1,147.44,243.45Z"/><path class="cls-2" d="M21.33,252.39A10.93,10.93,0,0,0,29.38,256h70.67V245.84H29.38a.83.83,0,0,1-.59-.26l-.75-.83a.78.78,0,0,1-.21-.54v-8.75A.87.87,0,0,1,28,235l1.12-1.37a.78.78,0,0,1,.62-.3l71.11.36.05-10.11-71.16-.36a10.86,10.86,0,0,0-8.49,4.06l-1.11,1.37a11,11,0,0,0-2.42,6.86v8.75a10.85,10.85,0,0,0,2.85,7.35Z"/><path class="cls-2" d="M212.48,262.83l-29.55-40,.12-.07c13.22-8,20.29-22.35,20.59-23,15.86-31.73,3.38-55.1-5.54-66.27l-7.88,6.33c9,11.29,17.06,30.06,4.35,55.47-.06.13-6.46,13.07-17.59,19.27l-.1.06-3.72-5a30.14,30.14,0,0,0-24.31-12.37h-7.16a30,30,0,0,0-30.06,30.17l.2,42.2,10.1,0-.19-42.21a20,20,0,0,1,20-20h7.16A20.08,20.08,0,0,1,165,215.64l39.34,53.21Z"/><path class="cls-2" d="M91.23,173.39a10.21,10.21,0,0,0,7.37,3.15,9.74,9.74,0,0,0,2.08-.22l1.56-.33a11.32,11.32,0,0,0,5.55-3l3.41-3.38-7.12-7.17-3.38,3.35a1.28,1.28,0,0,1-.57.31l-1.57.33-7.75-8.17.44-1.63a1.13,1.13,0,0,1,.33-.55l2.94-2.91L87.42,146l-2.93,2.9a11.26,11.26,0,0,0-3,5.11l-.44,1.61a10.22,10.22,0,0,0,2.43,9.63Z"/><path class="cls-2" d="M78.69,206.8l4,2.36v7.61l10.1,0v-9a7.72,7.72,0,0,0-3.76-6.6l-5.73-3.41a7.69,7.69,0,0,0-3.94-1.09H47a7.71,7.71,0,0,0-4.08,1.17l-5.41,3.38a7.67,7.67,0,0,0-3.61,6.53v9H44v-7.63l.06,0,3.63-2.27H78.66Z"/></svg>