<svg xmlns="http://www.w3.org/2000/svg" id="图层_1" data-name="图层 1" version="1.1" width="46.2" height="49.592"><defs id="defs4"><style id="style2">.cls-1{fill:#606060}</style></defs><path class="cls-1" d="M9.37 42.22H7v7.25h1V46.7h1.35a2.17 2.17 0 002.23-2.25 2.1 2.1 0 00-2.21-2.23zM8 43.19h1.3a1.18 1.18 0 011.24 1.25 1.19 1.19 0 01-1.24 1.28H8z" id="path8"/><path class="cls-1" d="M14.66 43.89a2.77 2.77 0 00-2.81 2.85 2.73 2.73 0 002.8 2.85 2.85 2.85 0 000-5.7zm0 4.73a1.88 1.88 0 010-3.76 1.88 1.88 0 010 3.76z" id="path10"/><path class="cls-1" id="polygon12" transform="translate(-3 -2.91)" d="M20.65 45.56h1.04v5.88h-1.04v.93h3.1v-.93h-1.03v-6.81h-2.07z"/><path class="cls-1" d="M22.32 41.93a.7.7 0 10.7.69.68.68 0 00-.7-.69z" id="path14"/><path class="cls-1" id="polygon16" transform="translate(-3 -2.91)" d="M24.81 52.37h1.03v-5.44h-1.99v.92h.96z"/><path class="cls-1" id="polygon18" transform="translate(-3 -2.91)" d="M30.96 46.93h-4.02v.92h2.94l-2.99 3.35-.04.03v1.14h4.16v-.91h-3.08l3-3.35.03-.04z"/><path class="cls-1" d="M31.06 43.89a2.66 2.66 0 00-2.61 2.87 2.6 2.6 0 002.66 2.83 2.43 2.43 0 002.44-1.75v-.13l-1-.24v.12a1.4 1.4 0 01-1.43 1 1.5 1.5 0 01-1.62-1.5h4.12v-.41a2.5 2.5 0 00-2.56-2.79zm-1.53 2.31a1.52 1.52 0 011.53-1.35 1.42 1.42 0 011.5 1.35z" id="path20"/><path class="cls-1" id="polygon22" transform="translate(-3 -2.91)" d="M38.03 52.37h1.03v-5.44h-2v.92h.97z"/><path class="cls-1" d="M35.54 43.33a.68.68 0 00.7-.7.7.7 0 00-1.39 0 .69.69 0 00.69.7z" id="path24"/><path class="cls-1" d="M44 21.48l-8.43-2.05-6-6.51a2.28 2.28 0 00-1.66-.73H13.55a2.33 2.33 0 00-1.69.73L5.4 19.76H1.82A1.83 1.83 0 000 21.59v7.94a1.34 1.34 0 001.33 1.33h5.75a3.55 3.55 0 005.85 2 3.64 3.64 0 001.13-2H28a3.58 3.58 0 002.89 2.84 4 4 0 00.6 0A3.56 3.56 0 0035 30.86h11.2v-6.67a2.78 2.78 0 00-2.2-2.71zm-14 7.33a1.94 1.94 0 011.38-.57 1.76 1.76 0 01.33 0 2 2 0 11-2.26 2.26 2 2 0 01.62-1.69zm-20.75-.14a2 2 0 011.23-.43h.34a1.89 1.89 0 011.68 1.85 2 2 0 01-.65 1.56 2 2 0 01-1.63.47 2 2 0 01-1.59-1.59 3.11 3.11 0 010-.43 1.94 1.94 0 01.69-1.43zm13.84-7.31h8.42v-1.6h-8v-6h4.38a.69.69 0 01.49.21l6.3 6.83 8.9 2.17a1.18 1.18 0 01.9 1.15v5.08h-9.61A3.57 3.57 0 0032 26.69a3.56 3.56 0 00-4 2.57H14a3.57 3.57 0 00-2.83-2.57 3.54 3.54 0 00-4 2.57H1.56v-7.67a.23.23 0 01.23-.23h10.33a1.54 1.54 0 001.54-1.54v-6h8.26v6.36a1.26 1.26 0 001.24 1.18zm-15.58-1.6l4.5-4.76v4.76zm20.5 11z" id="path26"/><path class="cls-1" id="rect28" d="M36.69 24.58h4.65v1.6h-4.65z"/><path class="cls-1" d="M23.2 6.78A2.24 2.24 0 0021 4.54h-1.28a2.24 2.24 0 00-2.24 2.24v3.48h5.72zm-4.13 0a.64.64 0 01.64-.64H21a.64.64 0 01.64.64v1.89h-2.58V6.78z" id="path30"/><path class="cls-1" id="rect32" d="M19.4 0H21v3.28h-1.6z"/><path class="cls-1" id="rect34" d="M24.55 7.84h3.28v1.6h-3.28z"/><path class="cls-1" id="rect36" d="M12.93 7.84h3.28v1.6h-3.28z"/><path class="cls-1" transform="rotate(-53.48)" id="rect38" d="M5.18 12.84h1.6v3.28h-1.6z"/><path class="cls-1" transform="rotate(-41.17)" id="rect40" d="M15.103 18.881h3.28v1.6h-3.28z"/></svg>