<svg id="图层_1" data-name="图层 1" xmlns="http://www.w3.org/2000/svg" viewBox="0 0 256.98 267.55"><defs><style>.cls-1{fill:#5fbf44;}.cls-2{fill:none;}</style></defs><title>警察部分说明</title><path class="cls-1" d="M72.14,124.26l-4.67,1.21,1.4,9.42,7.55-1.76a9.81,9.81,0,0,0,5.42-2.87L181.74,26.5l-6.57-6.82-98,102A8.91,8.91,0,0,1,72.14,124.26Z"/><polygon class="cls-1" points="13.96 141.78 32.98 138.57 32.28 128.91 5.18 133.7 3.87 148.42 13.43 147.85 13.96 141.78"/><path class="cls-2" d="M30.66,221.57c1-10.24,2.49-20.21,4.34-29.86l-6.85-.82c-8,30.14-10.27,51.83-10.31,52.25l0,.15c-.22,1.61-.28,2.19-.36,3.49A11.75,11.75,0,0,0,29,259.29a11.87,11.87,0,0,0,11.87-10.52,11.66,11.66,0,0,0-3.79-9.93A20.66,20.66,0,0,1,30.66,221.57Z"/><polygon class="cls-2" points="30.73 181.66 33.41 181.99 30.73 181.65 30.73 181.66"/><path class="cls-2" d="M65.08,100.94A327,327,0,0,0,38.78,157l4.76,0A400.43,400.43,0,0,1,65.08,100.94Z"/><path class="cls-1" d="M253.26,19.87l-18.91-17a11.21,11.21,0,0,0-9.3-2.74L221.57.7A11.24,11.24,0,0,0,215,4.33L81.8,153.92a8.81,8.81,0,0,1-6.58,3L52.14,157C70.79,96,100.69,55,101.08,54.45l.28-.38-6.17-5.34-.33.32C62.16,81.34,42,123.19,29.9,157l-26.73.09H2.72L0,187.49l19.79,2.39c-7.77,29.6-10,51.31-10.16,52.37-.23,1.73-.31,2.51-.41,4a20,20,0,0,0,18.69,21.25h0c.32,0,.64,0,1,0h.33a20,20,0,0,0,13.43-34.83,12.35,12.35,0,0,1-3.76-10.36c1-10.17,2.47-20.07,4.32-29.66l46.3,5.59a9.94,9.94,0,0,0,1.2.08,9.79,9.79,0,0,0,7-2.89L252.92,40.08A11.24,11.24,0,0,0,256,34.32l.77-3.9A11.3,11.3,0,0,0,253.26,19.87ZM65.08,100.94A400.43,400.43,0,0,0,43.54,157l-4.76,0A327,327,0,0,1,65.08,100.94ZM40.89,248.77a11.76,11.76,0,0,1-20.34,6.74,11.67,11.67,0,0,1-3.09-8.73c.08-1.3.14-1.88.36-3.49l0-.15c0-.42,2.27-22.11,10.31-52.25l6.85.82c-1.85,9.65-3.34,19.62-4.34,29.86a20.66,20.66,0,0,0,6.44,17.27A11.66,11.66,0,0,1,40.89,248.77ZM247.49,28.58l-.78,3.9a1.75,1.75,0,0,1-.48.91L93.87,185.87a8.82,8.82,0,0,1-7.32,2.53l-76.3-9.21,1.13-12.62L79,166.34a9.86,9.86,0,0,0,7.32-3.3L222,10.62a1.77,1.77,0,0,1,1-.57l3.48-.56a1.79,1.79,0,0,1,1.47.43l18.91,17A1.81,1.81,0,0,1,247.49,28.58Z"/></svg>