<svg id="图层_1" data-name="图层 1" xmlns="http://www.w3.org/2000/svg" viewBox="0 0 261.96 267.65"><defs><style>.cls-1{fill:#5fbf44;}</style></defs><title>警察部分说明</title><path class="cls-1" d="M29.34,31.17,71,13.78,93.73,51.51A15.41,15.41,0,0,0,107,59H107a15.4,15.4,0,0,0,13.25-7.45L143.52,13,181.13,31.6A21.66,21.66,0,0,1,193,46.51l8.78,39.41-16.44.24.15,10,28.73-.42L202.75,44.33A31.55,31.55,0,0,0,185.5,22.61L139.7,0l-.09.15L88.86.39l0,10,44.65-.21-21.83,36.2A5.51,5.51,0,0,1,107,49a5.44,5.44,0,0,1-4.71-2.67L75.14,1.22,25.39,22l-.19.08a31.7,31.7,0,0,0-18,24.22L0,95.59H28.26v-10H11.56l5.52-37.87A21.67,21.67,0,0,1,29.34,31.17Z"/><path class="cls-1" d="M250.35,185l-9.9,1.39,10,71.27H191L186,250.77a7,7,0,0,0-11.73.71l-3.9,6.93H111.05l7.89-88.89.07-10.71,120.08-.15.09,7.3L130,166v10l119.28,0-.24-19.27a8.13,8.13,0,0,0-8.11-8h0l-123.84.15a8.12,8.12,0,0,0-8.09,8.08l-.06,12-3.44,38.78.07-.86-59.29.28,4.61-76.19H86.26v26.52a8,8,0,0,1-2.14,5.45l-4.42,4.76a8.06,8.06,0,0,1-5.87,2.56H66.39v10h7.44A18.07,18.07,0,0,0,87,174.39l4.42-4.75a18,18,0,0,0,4.81-12.26V120.86H51.51l3.18-52.5-10-.6-9,149.33,69-.31-4.58,51.63h76l4.48-8,5.28,7.2h76Z"/><path class="cls-1" d="M148.07,185.05v35.8a15.51,15.51,0,0,0,9.8,14.47l17.76,7.12,3.72-9.28L161.59,226a5.56,5.56,0,0,1-3.52-5.19v-35.8Z"/><polygon class="cls-1" points="164.56 148.76 174.58 148.72 168.8 68.04 158.83 68.76 164.56 148.76"/></svg>