<?xml version="1.0" encoding="UTF-8" standalone="no"?>
<svg
   xmlns:dc="http://purl.org/dc/elements/1.1/"
   xmlns:cc="http://creativecommons.org/ns#"
   xmlns:rdf="http://www.w3.org/1999/02/22-rdf-syntax-ns#"
   xmlns:svg="http://www.w3.org/2000/svg"
   xmlns="http://www.w3.org/2000/svg"
   xmlns:sodipodi="http://sodipodi.sourceforge.net/DTD/sodipodi-0.dtd"
   xmlns:inkscape="http://www.inkscape.org/namespaces/inkscape"
   id="图层_1"
   data-name="图层 1"
   version="1.1"
   width="46.200001"
   height="33.758327"
   sodipodi:docname="police_icon.svg"
   inkscape:version="1.0.1 (3bc2e813f5, 2020-09-07)">
  <metadata
     id="metadata24">
    <rdf:RDF>
      <cc:Work
         rdf:about="">
        <dc:format>image/svg+xml</dc:format>
        <dc:type
           rdf:resource="http://purl.org/dc/dcmitype/StillImage" />
        <dc:title></dc:title>
      </cc:Work>
    </rdf:RDF>
  </metadata>
  <defs
     id="defs22" />
  <sodipodi:namedview
     pagecolor="#ffffff"
     bordercolor="#666666"
     borderopacity="1"
     objecttolerance="10"
     gridtolerance="10"
     guidetolerance="10"
     inkscape:pageopacity="0"
     inkscape:pageshadow="2"
     inkscape:window-width="1680"
     inkscape:window-height="987"
     id="namedview20"
     showgrid="false"
     fit-margin-top="0"
     fit-margin-left="0"
     fit-margin-right="0"
     fit-margin-bottom="0"
     inkscape:zoom="14.820939"
     inkscape:cx="23.1"
     inkscape:cy="24.796"
     inkscape:window-x="-8"
     inkscape:window-y="-8"
     inkscape:window-maximized="1"
     inkscape:current-layer="图层_1" />
  <path
     d="m 44,21.48 -8.43,-2.05 -6,-6.51 A 2.28,2.28 0 0 0 27.91,12.19 H 13.55 a 2.33,2.33 0 0 0 -1.69,0.73 L 5.4,19.76 H 1.82 A 1.83,1.83 0 0 0 0,21.59 v 7.94 a 1.34,1.34 0 0 0 1.33,1.33 h 5.75 a 3.55,3.55 0 0 0 5.85,2 3.64,3.64 0 0 0 1.13,-2 H 28 a 3.58,3.58 0 0 0 2.89,2.84 4,4 0 0 0 0.6,0 A 3.56,3.56 0 0 0 35,30.86 H 46.2 V 24.19 A 2.78,2.78 0 0 0 44,21.48 Z m -14,7.33 a 1.94,1.94 0 0 1 1.38,-0.57 1.76,1.76 0 0 1 0.33,0 2,2 0 1 1 -2.26,2.26 2,2 0 0 1 0.62,-1.69 z M 9.25,28.67 a 2,2 0 0 1 1.23,-0.43 h 0.34 a 1.89,1.89 0 0 1 1.68,1.85 2,2 0 0 1 -0.65,1.56 2,2 0 0 1 -1.63,0.47 2,2 0 0 1 -1.59,-1.59 3.11,3.11 0 0 1 0,-0.43 1.94,1.94 0 0 1 0.69,-1.43 z m 13.84,-7.31 h 8.42 v -1.6 h -8 v -6 h 4.38 a 0.69,0.69 0 0 1 0.49,0.21 l 6.3,6.83 8.9,2.17 a 1.18,1.18 0 0 1 0.9,1.15 V 29.2 H 34.87 A 3.57,3.57 0 0 0 32,26.69 3.56,3.56 0 0 0 28,29.26 H 14 a 3.57,3.57 0 0 0 -2.83,-2.57 3.54,3.54 0 0 0 -4,2.57 H 1.56 v -7.67 a 0.23,0.23 0 0 1 0.23,-0.23 h 10.33 a 1.54,1.54 0 0 0 1.54,-1.54 v -6 h 8.26 v 6.36 a 1.26,1.26 0 0 0 1.24,1.18 z M 7.51,19.76 12.01,15 v 4.76 z m 20.5,11 z"
     id="path26" />
  <path
     id="rect28"
     d="m 36.69,24.58 h 4.65 v 1.6 h -4.65 z" />
  <path
     d="M 23.2,6.78 A 2.24,2.24 0 0 0 21,4.54 h -1.28 a 2.24,2.24 0 0 0 -2.24,2.24 v 3.48 h 5.72 z m -4.13,0 A 0.64,0.64 0 0 1 19.71,6.14 H 21 a 0.64,0.64 0 0 1 0.64,0.64 V 8.67 H 19.06 V 6.78 Z"
     id="path30" />
  <path
     id="rect32"
     d="M 19.4,0 H 21 v 3.28 h -1.6 z" />
  <path
     id="rect34"
     d="m 24.55,7.84 h 3.28 v 1.6 h -3.28 z" />
  <path
     id="rect36"
     d="m 12.93,7.84 h 3.28 v 1.6 h -3.28 z" />
  <path
     id="rect38"
     d="m 13.401491,3.4782243 0.952165,-1.2858387 2.635969,1.951939 -0.952165,1.2858386 z" />
  <path
     id="rect40"
     d="m 23.798205,4.2706203 2.469052,-2.159209 1.053273,1.2044156 -2.469052,2.1592089 z" />
</svg>
