<svg id="图层_1" data-name="图层 1" xmlns="http://www.w3.org/2000/svg" viewBox="0 0 124.79 266.14"><defs><style>.cls-1{fill:#5fbf44;}</style></defs><title>警察部分说明</title><path class="cls-1" d="M95.67,55.77V50.41H98.6a11,11,0,0,0,11-11v-23a13.55,13.55,0,0,0-6.41-11.46L98.42,2a13.44,13.44,0,0,0-7.06-2H33a13.44,13.44,0,0,0-7.57,2.33l-4.56,3.1a13.45,13.45,0,0,0-5.89,11.13V39.42a11,11,0,0,0,11,11h2.51v5.35A28.79,28.79,0,0,0,0,84.52V237.37a28.79,28.79,0,0,0,28.77,28.77H96a28.8,28.8,0,0,0,28.77-28.77V84.52C124.79,69.27,111.56,56.33,95.67,55.77ZM24.93,39.42V16.56a3.44,3.44,0,0,1,1.51-2.86L31,10.6a3.48,3.48,0,0,1,2-.6H91.36a3.48,3.48,0,0,1,1.81.51l4.77,2.94a3.46,3.46,0,0,1,1.65,2.94v23a1,1,0,0,1-1,1H25.92A1,1,0,0,1,24.93,39.42ZM96,256.14H28.77A18.79,18.79,0,0,1,10,237.37V110.08h92.63v-10H10V84.52A18.79,18.79,0,0,1,28.77,65.75a9.67,9.67,0,0,0,9.66-9.66V50.41H85.67v5.68c0,9.2,6.87,9.66,8.24,9.66h.69c10.75,0,20.19,8.77,20.19,18.77V207.18H20.48v10h94.31v20.19A18.79,18.79,0,0,1,96,256.14Z"/><path class="cls-1" d="M60.13,181h.48a20.32,20.32,0,0,0,19.69-20.2,20,20,0,0,0-4.19-12.3,50.23,50.23,0,0,1-3-4.3l-8.13-14a5.8,5.8,0,0,0-5-2.88h0a5.8,5.8,0,0,0-5,2.93l-8.15,14.35c-.59,1-1.87,2.87-2.8,4.12a19.9,19.9,0,0,0-3.4,7.15l0,.15a19.2,19.2,0,0,0,.62,11.46A20.48,20.48,0,0,0,60.13,181ZM50.2,158.44l0-.12A10.17,10.17,0,0,1,52,154.68a60.91,60.91,0,0,0,3.49-5.16l4.53-8,4.46,7.68a62.55,62.55,0,0,0,3.76,5.39,10.05,10.05,0,0,1,2.11,6.19A10.15,10.15,0,0,1,50.5,164,9.07,9.07,0,0,1,50.2,158.44Z"/><rect class="cls-1" x="78.28" y="17.33" width="10" height="17.07"/><path class="cls-1" d="M77.87,232.39c0,1.59-3.06,4-7.65,4H60.09v10H70.22c9.89,0,17.65-6.15,17.65-14v-9h-10Z"/></svg>