<svg id="图层_1" data-name="图层 1" xmlns="http://www.w3.org/2000/svg" viewBox="0 0 259.31 327.61"><defs><style>.cls-1{fill:none;}.cls-1,.cls-2,.cls-3{stroke:#5fbf44;stroke-miterlimit:10;stroke-width:10px;}.cls-2{fill:#ecebe5;}.cls-3{fill:#ebece3;}.cls-4{fill:#5fbf44;}</style></defs><title>警察部分说明</title><circle class="cls-1" cx="131.1" cy="194.89" r="123.43"/><line class="cls-2" x1="50.67" y1="101.24" x2="212.36" y2="287.84"/><line class="cls-1" x1="101.07" y1="33.91" x2="159.77" y2="33.91"/><line class="cls-3" x1="109.8" y1="48.17" x2="109.8" y2="61.7"/><line class="cls-3" x1="130.16" y1="48.17" x2="130.16" y2="66.77"/><line class="cls-3" x1="150.52" y1="48.17" x2="150.52" y2="75.43"/><rect class="cls-4" x="155.59" y="178.13" width="10.51" height="28.78"/><path class="cls-4" d="M130.15,134.56a20.4,20.4,0,1,0-20.54-20.39A20.49,20.49,0,0,0,130.15,134.56Zm0-31.91a11.52,11.52,0,1,1-11.6,11.52A11.57,11.57,0,0,1,130.15,102.65Z"/><path class="cls-4" d="M194.4,126.46,163.12,93.54l-7.64,7.16,31.37,33,.23.23c4.62,4.3,3.3,13.23-1,18.34a12.37,12.37,0,0,1-17.05,1.91L163.71,150l-1-.73-.27-.19a35.8,35.8,0,0,0-20-6.07H117.66a36,36,0,0,0-22.87,8.19l-3.18,2.37a13.69,13.69,0,0,1-19.16-2.66c-4.2-5.57-5-14.13.8-18.83l.2-.15,31.8-30.78-7.34-7.48L66.45,124.13c-9.48,7.79-10.56,22.24-2.41,33A24.26,24.26,0,0,0,98,161.87l2.26-1.7.8-.56.35-.27a25.44,25.44,0,0,1,16.28-5.9h24.82a25.34,25.34,0,0,1,14,4.2l6.11,4.79A22.89,22.89,0,0,0,194.21,159C201.58,150.12,203.39,135,194.4,126.46Z"/><path class="cls-4" d="M150.55,327.61h-2.3a13.35,13.35,0,0,1-13.38-13.29v-69a3.31,3.31,0,0,0-6.62,0v68.63a13.36,13.36,0,0,1-13.39,13.29h-3.21V316.79h3.21a2.86,2.86,0,0,0,2.87-2.85V245.31a13.83,13.83,0,0,1,27.65,0v69a2.87,2.87,0,0,0,2.87,2.85h2.3Z"/><rect class="cls-4" x="95.9" y="178.23" width="10.51" height="122.69"/><rect class="cls-4" x="155.59" y="251.79" width="10.51" height="62.05"/><path class="cls-1" d="M130.16,33.91V17.59a10,10,0,0,0-3.37-7.5L124.42,8a10.06,10.06,0,0,0-6.65-2.52H19.4a10,10,0,0,0-6,2L9.79,10.15a10,10,0,0,0-4,8V322.8H196.56"/></svg>