<?xml version="1.0" encoding="UTF-8" standalone="no"?>
<svg
   xmlns:dc="http://purl.org/dc/elements/1.1/"
   xmlns:cc="http://creativecommons.org/ns#"
   xmlns:rdf="http://www.w3.org/1999/02/22-rdf-syntax-ns#"
   xmlns:svg="http://www.w3.org/2000/svg"
   xmlns="http://www.w3.org/2000/svg"
   xmlns:sodipodi="http://sodipodi.sourceforge.net/DTD/sodipodi-0.dtd"
   xmlns:inkscape="http://www.inkscape.org/namespaces/inkscape"
   id="图层_1"
   data-name="图层 1"
   viewBox="0 0 199.10561 263.4525"
   version="1.1"
   sodipodi:docname="police_step_9.svg"
   width="199.10562"
   height="263.45251"
   inkscape:version="1.0.1 (3bc2e813f5, 2020-09-07)">
  <metadata
     id="metadata23">
    <rdf:RDF>
      <cc:Work
         rdf:about="">
        <dc:format>image/svg+xml</dc:format>
        <dc:type
           rdf:resource="http://purl.org/dc/dcmitype/StillImage" />
        <dc:title>police_step_9</dc:title>
      </cc:Work>
    </rdf:RDF>
  </metadata>
  <sodipodi:namedview
     pagecolor="#ffffff"
     bordercolor="#666666"
     borderopacity="1"
     objecttolerance="10"
     gridtolerance="10"
     guidetolerance="10"
     inkscape:pageopacity="0"
     inkscape:pageshadow="2"
     inkscape:window-width="1120"
     inkscape:window-height="637"
     id="namedview21"
     showgrid="false"
     fit-margin-top="0"
     fit-margin-left="0"
     fit-margin-right="0"
     fit-margin-bottom="0"
     inkscape:zoom="2.8172792"
     inkscape:cx="99.535235"
     inkscape:cy="215.60611"
     inkscape:window-x="-8"
     inkscape:window-y="686"
     inkscape:window-maximized="1"
     inkscape:current-layer="图层_1" />
  <defs
     id="defs4">
    <style
       id="style2">.cls-1{fill:#5fbf44;}</style>
  </defs>
  <title
     id="title6">police_step_9</title>
  <path
     class="cls-1"
     d="m 90.710231,50.972525 a 16.83,16.83 0 1 0 -16.83,-16.88 16.85,16.85 0 0 0 16.83,16.88 z m 0,-24.65 a 7.83,7.83 0 1 1 -7.83,7.82 7.83,7.83 0 0 1 7.83,-7.87 z"
     id="path8" />
  <path
     class="cls-1"
     d="m 199.00023,239.62253 -0.12,-1.18 a 20,20 0 0 0 -5.63,-12 l -55.43,-56.25 -0.09,-0.09 -37.61,-11.92 a 4.83,4.83 0 0 0 -1.359999,-0.22 4.74,4.74 0 0 0 -3.44,1.45 4.66,4.66 0 0 0 -1,4.86 l 13.339999,35.86 v 0.1 l 55.21,57.13 a 19.88,19.88 0 0 0 10.21,5.66 20.26,20.26 0 0 0 4.16,0.43 19.91,19.91 0 0 0 14,-5.74 l 1.91,-1.89 a 19.81,19.81 0 0 0 5.85,-16.2 z m -85.91,-70.27 -7.13,7 -3.96,-10.49 z m 16.82,5.34 -18,17.72 -3.4,-9.15 11.78,-11.61 z m 51.86,49.68 -21.27,20.93 -3.7,-3.82 21.2,-20.89 z m -17,-0.1 -37.25,-37.8 8.58,-8.45 37.24,37.79 z m -42,-33.09 37.17,37.79 -7.8,7.68 -36.87,-38.16 z m 63.73,61.79 a 13.23,13.23 0 0 1 -18.82,-0.23 l -2.52,-2.61 21.28,-21 2,2 a 13.24,13.24 0 0 1 3.74,8 l 0.13,1.18 a 13.19,13.19 0 0 1 -3.88,10.78 z"
     id="path10" />
  <path
     class="cls-1"
     d="m 13.630231,188.84253 a 15.71,15.71 0 0 1 -4.6299997,-11.19 V 43.112525 l 4.4299997,-4.67 20.32,0.06 a 9.31,9.31 0 0 0 -0.75,3.62 v 28.51 a 6.35,6.35 0 0 0 6.38,6.34 l 102.049999,0.07 a 6.36,6.36 0 0 0 6.34,-6.35 v -28.77 a 9.36,9.36 0 0 0 -0.64,-3.38 h 18.3 l 5.83,5 V 185.97253 h 9 V 43.222525 a 8.43,8.43 0 0 0 -3,-6.41 l -6.21,-5.27 a 8.42,8.42 0 0 0 -5.45,-2 h -41.07 a 34.13,34.13 0 0 0 -67.649999,0.07 h -9.25 v -0.09 l -34.45,-0.1 a 8.46,8.46 0 0 0 -6.0999997,2.62 l -4.77,5 a 8.38,8.38 0 0 0 -2.31000003157,5.84 V 177.65253 a 24.63,24.63 0 0 0 7.22000003157,17.5 l 53.2499997,56.15 H 9.0702313 v -47.1 H 0.07023127 v 56.13 l 81.32999973,-0.05 -67.69,-71.31 z m 28.48,-146.930005 4.51,-3.23 a 0.27,0.27 0 0 1 0.15,-0.05 h 18.82 v -4.54 a 25.13,25.13 0 0 1 50.249999,0 v 4.52 h 18.7 a 0.27,0.27 0 0 1 0.16,0.06 l 4,3.09 a 0.25,0.25 0 0 1 0.1,0.21 v 26.11 l -96.799999,-0.11 v -25.86 a 0.24,0.24 0 0 1 0.11,-0.2 z"
     id="path12" />
  <path
     class="cls-1"
     d="m 100.33023,251.86253 v 0 a 17.59,17.59 0 0 1 -17.569999,-17.51 l -0.16,-52.91 h -50.09 v 9 h 41.13 l 0.13,43.95 a 26.61,26.61 0 0 0 26.569999,26.48 v 0 h 46.19 v -9 z"
     id="path14" />
  <rect
     class="cls-1"
     x="34.390232"
     y="102.34253"
     width="111.47"
     height="8.75"
     id="rect16" />
  <rect
     class="cls-1"
     x="34.390232"
     y="132.16252"
     width="67.57"
     height="8.75"
     id="rect18" />
</svg>
