<svg id="图层_1" data-name="图层 1" xmlns="http://www.w3.org/2000/svg" viewBox="0 0 281.35 266.24"><defs><style>.cls-1{fill:#5fbf44;}</style></defs><title>警察部分说明</title><path class="cls-1" d="M80,45.76A2.46,2.46,0,0,1,80.8,44l3.23-3a2.47,2.47,0,0,1,1.69-.67H207.39a2.46,2.46,0,0,1,1.52.53l4.31,3.43a2.41,2.41,0,0,1,.93,1.9l.08,37.21,9.6,0-.09-37.2a12,12,0,0,0-4.55-9.39l-4.3-3.42a12.11,12.11,0,0,0-7.5-2.62H85.72a12,12,0,0,0-8.26,3.28L74.22,37a12.12,12.12,0,0,0-3.79,8.76L70.35,245h9.59Z"/><path class="cls-1" d="M104.35,13.85a1,1,0,0,1,.37-.77l4-3.26a1,1,0,0,1,.63-.23h77a1,1,0,0,1,.63.23l4,3.26a1,1,0,0,1,.36.77v7.79H201V13.85a10.54,10.54,0,0,0-3.9-8.2l-4-3.26A10.64,10.64,0,0,0,186.36,0h-77a10.6,10.6,0,0,0-6.71,2.4l-4,3.25a10.55,10.55,0,0,0-3.88,8.2v7.91h9.59Z"/><rect class="cls-1" y="256.65" width="281.35" height="9.59"/><path class="cls-1" d="M22,130.06a.81.81,0,0,1,.11-.41l5.47-4.54.43-.41.63-.69c.23-.25.56-.63.83-.9l33-.07,0-9.59-16.07,0V99.82a.2.2,0,0,1,.06-.15l4.64-4.34a.18.18,0,0,1,.14-.06H62.2V85.68H51.28a9.77,9.77,0,0,0-6.7,2.65l-4.64,4.34a9.85,9.85,0,0,0-3.09,7.15v13.69H28.62c-3.44,0-5.74,2.58-7.11,4.12l-.26.29-5.56,4.62-.43.4a10.37,10.37,0,0,0-2.81,7.11V244.93H22Z"/><polygon class="cls-1" points="62.37 154.79 62.32 145.2 36.4 145.32 36.4 169.84 45.99 169.84 45.99 154.87 62.37 154.79"/><polygon class="cls-1" points="34.64 217.28 44.23 217.28 44.23 200.6 62.47 200.6 62.47 191 34.64 191.01 34.64 217.28"/><polygon class="cls-1" points="172.95 244.92 172.95 210.37 130.04 210.45 130.04 244.88 139.63 244.88 139.63 220.03 163.35 219.98 163.35 244.92 172.95 244.92"/><path class="cls-1" d="M178.31,112.18c-10.3,11.92-15,27.2-12.79,41.93,2.83,19.22,14,34.22,24.72,48.74,2.3,3.09,4.67,6.29,6.89,9.44,3.79,5.38,7.37,11,10.63,16.75,2.25,4,4.12,7.41,6.45,11.94a7.41,7.41,0,0,0,6.54,4h.05a7.39,7.39,0,0,0,6.54-3.92c3.16-5.91,5.89-11,9.13-16.41,4.17-6.95,8.18-13.07,12.24-18.72,1.74-2.41,3.51-4.79,5.22-7.09,11.16-15,21.7-29.15,21.7-50.92a55.11,55.11,0,0,0-97.32-35.75ZM266,147.93c0,18.59-9.18,30.92-19.8,45.2-1.73,2.32-3.52,4.73-5.31,7.21-4.23,5.87-8.37,12.21-12.69,19.39-2.64,4.41-5,8.73-7.41,13.19-1.59-3-3.06-5.69-4.73-8.63-3.42-6-7.16-11.89-11.13-17.53-2.29-3.24-4.7-6.49-7-9.63C187.42,183,177.48,169.55,175,152.71c-1.76-12,2.09-24.46,10.56-34.26A45.52,45.52,0,0,1,266,147.93Z"/><path class="cls-1" d="M193.33,149.38a27,27,0,1,0,27-27A27.05,27.05,0,0,0,193.33,149.38Zm27-17.43a17.44,17.44,0,1,1-17.44,17.43A17.45,17.45,0,0,1,220.36,132Z"/><polygon class="cls-1" points="130.65 85.68 130.65 98.04 140.24 98.03 140.23 76.07 94.75 76.15 94.75 98.09 104.34 98.09 104.34 85.72 130.65 85.68"/><polygon class="cls-1" points="94.75 139.69 104.34 139.69 104.34 127.31 130.65 127.27 130.65 139.63 140.24 139.62 140.23 117.66 94.75 117.74 94.75 139.69"/><polygon class="cls-1" points="94.75 181.52 104.34 181.52 104.34 169.15 130.65 169.11 130.65 181.47 140.24 181.46 140.23 159.5 94.75 159.58 94.75 181.52"/></svg>