<svg id="图层_1" data-name="图层 1" xmlns="http://www.w3.org/2000/svg" viewBox="0 0 259.44 315.69"><defs><style>.cls-1{fill:#5fbf44;}</style></defs><title>警察部分说明</title><path class="cls-1" d="M61,17.42a3.15,3.15,0,0,1,.88-2.16l2.91-3a7.18,7.18,0,0,1,5.09-2.15H190.28a7.14,7.14,0,0,1,5.12,2.18l2.81,2.94a3.27,3.27,0,0,1,.65,1.08c0,1.58.15,6.52.22,9.68l9.22-.2c-.24-10.67-.24-10.67-.36-11.22a12.42,12.42,0,0,0-3.08-5.72l-2.81-2.94a16.39,16.39,0,0,0-11.77-5H69.9a16.42,16.42,0,0,0-11.71,5l-2.91,3a12.29,12.29,0,0,0-3.49,8.53l-.62,117.51,9.22.05Z"/><path class="cls-1" d="M199.2,266.41H60.48l.05-10.16-9.21-.05-.2,39.36A16,16,0,0,0,56,307.17l4.09,3.95a15.92,15.92,0,0,0,11.11,4.49l117.48.08a16.1,16.1,0,0,0,11.43-4.79l3.72-3.79a15.93,15.93,0,0,0,4.58-11.21V148.51H199.2Zm-1.94,34.24-3.72,3.79a6.81,6.81,0,0,1-4.84,2l-117.49-.09a6.73,6.73,0,0,1-4.71-1.91l-4.09-3.94a6.83,6.83,0,0,1-2.08-4.93l.11-20H199.2V295.9A6.75,6.75,0,0,1,197.26,300.65Z"/><path class="cls-1" d="M245.75,37.84H177.09a10.93,10.93,0,0,0-10.92,10.9L166,69.38,145.52,81.61a5.26,5.26,0,0,0,.38,9.24L166,100.73l.12,22a10.94,10.94,0,0,0,10.93,10.92h71.42a10.94,10.94,0,0,0,10.93-10.92V51.54A13.71,13.71,0,0,0,245.75,37.84Zm4.47,84.91a1.71,1.71,0,0,1-1.71,1.7H177.09a1.71,1.71,0,0,1-1.71-1.73L175.22,95l-18.7-9.18,18.7-11.16.17-25.86a1.7,1.7,0,0,1,1.7-1.71h68.66a4.49,4.49,0,0,1,4.48,4.48Z"/><rect class="cls-1" x="191.58" y="61.98" width="41.73" height="9.22"/><rect class="cls-1" x="191.49" y="80.71" width="42.14" height="9.22"/><rect class="cls-1" x="191.58" y="100.85" width="30.85" height="9.22"/><path class="cls-1" d="M128,73.53a17.29,17.29,0,1,0-17.29,17.29A17.31,17.31,0,0,0,128,73.53Zm-25.35,0a8.07,8.07,0,1,1,8.06,8.07A8.08,8.08,0,0,1,102.69,73.53Z"/><path class="cls-1" d="M136.52,105.42l-8.61-6.15-.4-.26a17.11,17.11,0,0,0-8.41-2.22H100.83a16.92,16.92,0,0,0-9.59,3l-8.84,6a16.66,16.66,0,0,0-7.28,13.78v15.38h9.22V119.55a7.44,7.44,0,0,1,3.25-6.16l8.84-6a7.75,7.75,0,0,1,4.4-1.36H119.1a7.83,7.83,0,0,1,3.67.92l8.44,6,.11.07a8.65,8.65,0,0,1,3.88,7.17v14.73h9.21V120.2A17.86,17.86,0,0,0,136.52,105.42Z"/><path class="cls-1" d="M93.28,235.13V210.2l20.12-9.88a5.26,5.26,0,0,0,.38-9.23l-20.5-12.23V156.74a7.69,7.69,0,0,0-7.69-7.68H10.45A10.46,10.46,0,0,0,0,159.51v75.62a7.7,7.7,0,0,0,7.68,7.69H85.59A7.7,7.7,0,0,0,93.28,235.13Zm-9.22-1.53H9.22V159.51a1.23,1.23,0,0,1,1.23-1.23H84.06V184.1l18.72,11.17-18.72,9.19Z"/><rect class="cls-1" x="25.84" y="171.12" width="41.88" height="9.22"/><rect class="cls-1" x="25.84" y="189.84" width="41.97" height="9.22"/><rect class="cls-1" x="25.84" y="209.99" width="30.85" height="9.22"/><path class="cls-1" d="M148.86,161a17.29,17.29,0,1,0,17.29,17.28A17.31,17.31,0,0,0,148.86,161Zm0,25.35a8.07,8.07,0,1,1,8.07-8.07A8.08,8.08,0,0,1,148.86,186.39Z"/><path class="cls-1" d="M184.5,240.53V224.34a16.67,16.67,0,0,0-7.29-13.78l-8.83-6a17,17,0,0,0-9.59-3H140.52a17,17,0,0,0-8.41,2.23l-9,6.4A17.85,17.85,0,0,0,115.2,225v15.54h9.22V225a8.63,8.63,0,0,1,3.88-7.16l8.54-6.11a7.87,7.87,0,0,1,3.68-.92h18.27a7.8,7.8,0,0,1,4.4,1.36l8.83,6a7.46,7.46,0,0,1,3.26,6.16v16.19Z"/><rect class="cls-1" x="114.94" y="286.64" width="25.99" height="9.22"/></svg>