<?xml version="1.0" encoding="UTF-8" standalone="no"?>
<svg
   xmlns:dc="http://purl.org/dc/elements/1.1/"
   xmlns:cc="http://creativecommons.org/ns#"
   xmlns:rdf="http://www.w3.org/1999/02/22-rdf-syntax-ns#"
   xmlns:svg="http://www.w3.org/2000/svg"
   xmlns="http://www.w3.org/2000/svg"
   xmlns:sodipodi="http://sodipodi.sourceforge.net/DTD/sodipodi-0.dtd"
   xmlns:inkscape="http://www.inkscape.org/namespaces/inkscape"
   id="图层_1"
   data-name="图层 1"
   version="1.1"
   width="46.740002"
   height="36.679989"
   sodipodi:docname="psy_icon.svg"
   inkscape:version="1.0.1 (3bc2e813f5, 2020-09-07)">
  <metadata
     id="metadata27">
    <rdf:RDF>
      <cc:Work
         rdf:about="">
        <dc:format>image/svg+xml</dc:format>
        <dc:type
           rdf:resource="http://purl.org/dc/dcmitype/StillImage" />
        <dc:title></dc:title>
      </cc:Work>
    </rdf:RDF>
  </metadata>
  <defs
     id="defs25" />
  <sodipodi:namedview
     pagecolor="#ffffff"
     bordercolor="#666666"
     borderopacity="1"
     objecttolerance="10"
     gridtolerance="10"
     guidetolerance="10"
     inkscape:pageopacity="0"
     inkscape:pageshadow="2"
     inkscape:window-width="1680"
     inkscape:window-height="987"
     id="namedview23"
     showgrid="false"
     fit-margin-top="0"
     fit-margin-left="0"
     fit-margin-right="0"
     fit-margin-bottom="0"
     inkscape:zoom="13.999467"
     inkscape:cx="23.584999"
     inkscape:cy="26.250987"
     inkscape:window-x="-8"
     inkscape:window-y="-8"
     inkscape:window-maximized="1"
     inkscape:current-layer="图层_1" />
  <path
     d="m 5.79,7.7799871 a 3.89,3.89 0 1 0 -3.9,-3.89 3.89,3.89 0 0 0 3.9,3.89 z m 0,-5.88 a 2,2 0 1 1 -2,2 2,2 0 0 1 2,-2 z"
     id="path8" />
  <path
     d="M 4.97,9.5799871 A 4,4 0 0 0 2.54,14.579987 l 3.56,9.6 a 3.69,3.69 0 0 0 3.45,2.4 h 4.82 v -1.88 H 9.55 a 1.81,1.81 0 0 1 -1.66,-1.17 l -3.54,-9.56 a 2.08,2.08 0 0 1 3.92,-1.38 l 0.81,2.15 a 6.22,6.22 0 0 0 1.35,2.4 7.34,7.34 0 0 0 5.91,2.27 l -0.05,-1.89 c -4.49,0.1 -5.38,-3.15 -5.42,-3.28 l -0.86,-2.31 A 4,4 0 0 0 4.97,9.5799871 Z"
     id="path10" />
  <path
     d="m 13.81,20.959987 h -2.92 v 1.89 h 3 a 3.75,3.75 0 0 1 3.75,3.75 v 10 h 1.89 v -10 a 5.65,5.65 0 0 0 -5.72,-5.64 z"
     id="path12" />
  <path
     d="M 11.01,28.639987 H 8.27 a 3.66,3.66 0 0 1 -3.38,-2.2 l -3.14,-7.38 -1.75,0.73 3.09,7.35 a 5.56,5.56 0 0 0 5.18,3.36 h 2.74 a 2.15,2.15 0 1 1 0,4.28 H 4.15 v 1.89 h 6.86 a 4.03,4.03 0 1 0 0,-8.06 z"
     id="path14" />
  <path
     d="M 46.73,18.499987 H 21.32 v 1.89 h 2.22 v 13.86 a 2.43,2.43 0 0 0 2.43,2.43 h 16.09 a 2.43,2.43 0 0 0 2.43,-2.43 v -13.86 h 2.25 v -1.89 z m -4.14,15.75 a 0.53,0.53 0 0 1 -0.53,0.53 H 25.97 a 0.53,0.53 0 0 1 -0.53,-0.53 v -13.86 H 42.6 v 13.86 z"
     id="path16" />
  <path
     id="polygon18"
     d="m 34.88,27.449987 h 2.91 v -1.9 h -2.91 v -2.9 h -1.9 v 2.9 h -3 v 1.9 h 3 v 2.79 h 1.9 z" />
  <path
     d="m 33.8,7.7799871 a 3.89,3.89 0 1 0 -3.91,-3.89 3.89,3.89 0 0 0 3.91,3.89 z m 0,-5.88 a 2,2 0 1 1 -2,2 2,2 0 0 1 2,-2 z"
     id="path20" />
  <path
     d="m 27.07,14.559987 a 1.85,1.85 0 0 1 0.82,-1.53 l 2,-1.4 a 1.93,1.93 0 0 1 1.09,-0.34 h 5.31 a 2,2 0 0 1 1,0.25 l 2.68,1.6 a 1.86,1.86 0 0 1 0.92,1.56 v 2.27 h 1.89 v -2.27 a 3.77,3.77 0 0 0 -1.89,-3.26 L 38.16,9.8899871 a 3.82,3.82 0 0 0 -1.89,-0.5 h -5.26 a 3.87,3.87 0 0 0 -2.16,0.6599999 l -2.05,1.4 a 3.75,3.75 0 0 0 -1.64,3.09 v 2.42 h 1.89 v -2.4 z"
     id="path22" />
</svg>
