<svg xmlns="http://www.w3.org/2000/svg" id="图层_1" data-name="图层 1" version="1.1" width="56.01" height="52.502"><defs id="defs4"><style id="style2">.cls-1{fill:#606060}</style></defs><path class="cls-1" d="M10.21 7.78a3.89 3.89 0 10-3.9-3.89 3.89 3.89 0 003.9 3.89zm0-5.88a2 2 0 11-2 2 2 2 0 012-2z" id="path8"/><path class="cls-1" d="M9.39 9.58a4 4 0 00-2.43 5l3.56 9.6a3.69 3.69 0 003.45 2.4h4.82V24.7h-4.82a1.81 1.81 0 01-1.66-1.17l-3.54-9.56a2.08 2.08 0 013.92-1.38l.81 2.15a6.22 6.22 0 001.35 2.4 7.34 7.34 0 005.91 2.27l-.05-1.89c-4.49.1-5.38-3.15-5.42-3.28l-.86-2.31a4 4 0 00-5.04-2.35z" id="path10"/><path class="cls-1" d="M18.23 20.96h-2.92v1.89h3a3.75 3.75 0 013.75 3.75v10h1.89v-10a5.65 5.65 0 00-5.72-5.64z" id="path12"/><path class="cls-1" d="M15.43 28.64h-2.74a3.66 3.66 0 01-3.38-2.2l-3.14-7.38-1.75.73 3.09 7.35a5.56 5.56 0 005.18 3.36h2.74a2.15 2.15 0 110 4.28H8.57v1.89h6.86a4.03 4.03 0 100-8.06z" id="path14"/><path class="cls-1" d="M51.15 18.5H25.74v1.89h2.22v13.86a2.43 2.43 0 002.43 2.43h16.09a2.43 2.43 0 002.43-2.43V20.39h2.25V18.5zm-4.14 15.75a.53.53 0 01-.53.53H30.39a.53.53 0 01-.53-.53V20.39h17.16v13.86z" id="path16"/><path class="cls-1" id="polygon18" transform="translate(-2.69 -3.86)" d="M41.99 31.31h2.91v-1.9h-2.91v-2.9h-1.9v2.9h-3v1.9h3v2.79h1.9z"/><path class="cls-1" d="M38.22 7.78a3.89 3.89 0 10-3.91-3.89 3.89 3.89 0 003.91 3.89zm0-5.88a2 2 0 11-2 2 2 2 0 012-2z" id="path20"/><path class="cls-1" d="M31.49 14.56a1.85 1.85 0 01.82-1.53l2-1.4a1.93 1.93 0 011.09-.34h5.31a2 2 0 011 .25l2.68 1.6a1.86 1.86 0 01.92 1.56v2.27h1.89V14.7a3.77 3.77 0 00-1.89-3.26l-2.73-1.55a3.82 3.82 0 00-1.89-.5h-5.26a3.87 3.87 0 00-2.16.66l-2.05 1.4a3.75 3.75 0 00-1.64 3.09v2.42h1.89v-2.4z" id="path22"/><path class="cls-1" id="polygon24" transform="translate(-2.69 -3.86)" d="M4.7 56.23h1.05v-6.25h2v-.99H2.69v.99H4.7z"/><path class="cls-1" d="M6.63 47.52v-.59h-1v5.45h1v-2.9c0-.61.16-1.63 1.2-1.63h.59v-1h-.46a1.6 1.6 0 00-1.33.67z" id="path26"/><path class="cls-1" d="M13.76 51.31v-4.38h-1v.65a2.1 2.1 0 00-1.68-.78 2.61 2.61 0 00-2.57 2.86 2.65 2.65 0 002.63 2.84 2 2 0 001.68-.8.85.85 0 00.84.67h.63v-.95h-.36c-.16 0-.17-.05-.17-.11zm-1-1.64a1.64 1.64 0 11-1.62-1.9 1.68 1.68 0 011.61 1.9z" id="path28"/><path class="cls-1" d="M18.53 50.14a1.3 1.3 0 01-1.31 1.36 1.18 1.18 0 01-1.2-1.24v-3.33h-1v3.39a2 2 0 002 2.18 1.84 1.84 0 001.5-.67v.54h1v-5.45h-1v3.22z" id="path30"/><path class="cls-1" d="M26.37 46.8a1.81 1.81 0 00-1.66.88 1.86 1.86 0 00-1.65-.88 1.76 1.76 0 00-1.43.67v-.54h-1v5.45h1v-3.24a1.25 1.25 0 011.21-1.33 1.11 1.11 0 011.15 1.2v3.38h1v-3.25a1.23 1.23 0 011.22-1.36c.72 0 1.12.48 1.12 1.35v3.23h1v-3.47a2 2 0 00-1.96-2.09z" id="path32"/><path class="cls-1" d="M34.31 51.31v-4.38h-1v.65a2.12 2.12 0 00-1.68-.78 2.61 2.61 0 00-2.57 2.86 2.65 2.65 0 002.63 2.84 2 2 0 001.68-.8.85.85 0 00.85.67h.63v-.95h-.36c-.18 0-.18-.05-.18-.11zm-1-1.64a1.64 1.64 0 11-1.62-1.9 1.68 1.68 0 011.62 1.9z" id="path34"/><path class="cls-1" d="M38.19 46.8a1.88 1.88 0 00-1.52.68v-2.85h-1v7.75h1v-3.24a1.29 1.29 0 011.33-1.3 1.21 1.21 0 011.22 1.24v3.34h1v-3.43a2 2 0 00-2.03-2.19z" id="path36"/><path class="cls-1" d="M42.46 44.84a.7.7 0 10.7.69.68.68 0 00-.7-.69z" id="path38"/><path class="cls-1" id="polygon40" transform="translate(-2.69 -3.86)" d="M44.63 56.23h1.03v-5.44h-1.99v.92h.96z"/><path class="cls-1" id="polygon42" transform="translate(-2.69 -3.86)" d="M46.73 49.42h1.04v5.88h-1.04v.93h3.1v-.93H48.8v-6.81h-2.07z"/><path class="cls-1" d="M49.14 46.24c0-.49.17-.67.64-.67h.82v-.94h-.81a1.49 1.49 0 00-1.68 1.61v.69h-1v.92h1v4.53h1v-4.53h1.5v-.92h-1.5v-.69z" id="path44"/><path class="cls-1" d="M53.44 46.8a2.66 2.66 0 00-2.61 2.87 2.6 2.6 0 002.66 2.83 2.43 2.43 0 002.44-1.75v-.13l-1-.24v.12a1.4 1.4 0 01-1.43 1 1.5 1.5 0 01-1.62-1.56H56v-.41a2.51 2.51 0 00-2.56-2.73zm-1.53 2.34a1.52 1.52 0 011.53-1.35 1.42 1.42 0 011.5 1.35z" id="path46"/></svg>