<svg xmlns="http://www.w3.org/2000/svg" id="图层_1" data-name="图层 1" version="1.1" width="14.322" height="14.328"><defs id="defs10"><clipPath id="clip-path"><path class="cls-1" d="M10.56 18.32a4.53 4.53 0 01-4.51-4.51 4.46 4.46 0 014.48-4.48A4.53 4.53 0 0115 13.84a4.46 4.46 0 01-4.47 4.48zM19 21.09l-3.92-3.92a5.49 5.49 0 001.08-3.31 5.68 5.68 0 00-5.63-5.64 5.57 5.57 0 00-5.59 5.59 5.67 5.67 0 005.63 5.64 5.48 5.48 0 003.31-1.09l3.92 3.92a.84.84 0 00.83.24.86.86 0 00.61-.61.88.88 0 00-.24-.82z" id="path4"/></clipPath><clipPath id="clip-path-2"><path class="cls-1" id="rect7" d="M4.93 8.21h14.33v14.32H4.93z"/></clipPath><style id="style2">.cls-1{fill:none}.cls-4{fill:#606060}</style></defs><path id="SVGID" d="M5.62 10.1a4.53 4.53 0 01-4.51-4.51 4.46 4.46 0 014.48-4.48 4.53 4.53 0 014.47 4.51 4.46 4.46 0 01-4.47 4.48zm8.44 2.77l-3.92-3.92a5.49 5.49 0 001.08-3.31A5.68 5.68 0 005.59 0 5.57 5.57 0 000 5.59a5.67 5.67 0 005.63 5.64 5.48 5.48 0 003.31-1.09l3.92 3.92a.84.84 0 00.83.24.86.86 0 00.61-.61.88.88 0 00-.24-.82z" fill-rule="evenodd" fill="#606060"/><g clip-path="url(#clip-path)" id="g20" transform="translate(-4.94 -8.22)"><path id="SVGID-2" data-name="SVGID" class="cls-4" d="M4.93 8.21h14.33v14.32H4.93z"/><g clip-path="url(#clip-path-2)" id="g18"><path class="cls-4" id="rect16" d="M-.19 3.1h24.56v24.56H-.19z"/></g></g></svg>