<svg id="图层_1" data-name="图层 1" xmlns="http://www.w3.org/2000/svg" viewBox="0 0 30 30"><defs><style>.cls-1{fill:#8e8e93;opacity:0.12;}.cls-2{fill:#5fbf44;}</style></defs><title>未标题-2</title><circle class="cls-1" cx="15" cy="15" r="15"/><path class="cls-2" d="M23.21,5.8a.86.86,0,0,0-.88-.17L1.53,13.34l6.79,3.39v6.52l5.92-2.76,4.69,3.58L23.47,6.66A.85.85,0,0,0,23.21,5.8ZM10.69,21l1.63-2,1,.78Zm7.65,1.32L13,18.24l5.43-6.71a.74.74,0,0,0-1-1.1l-7,4.44.54.84,5.63-3.58-7.29,9v-5L4,13.47l18.4-6.81Z"/></svg>