<svg id="图层_1" data-name="图层 1" xmlns="http://www.w3.org/2000/svg" viewBox="0 0 126.17 107.17"><defs><style>.cls-1{fill:#5fbf44;}</style></defs><title>未标题-2</title><path class="cls-1" d="M60.85,14.29a18,18,0,1,0,18,18A18,18,0,0,0,60.85,14.29Zm0,30.1A12.09,12.09,0,1,1,72.93,32.3,12.1,12.1,0,0,1,60.85,44.39Z"/><path class="cls-1" d="M24.93,82.19V95.64H19V82.19a12.07,12.07,0,0,1,5-9.8L43.77,58.3a11.93,11.93,0,0,1,7-2.24H68a12.87,12.87,0,0,1,5.13,1l3.67,1.69-2.54,5.36-3.52-1.62A7,7,0,0,0,68,62H50.77a6,6,0,0,0-3.55,1.14L27.49,77.22A6.12,6.12,0,0,0,24.93,82.19Z"/><path class="cls-1" d="M90.55,65.8l9,5.66a13.07,13.07,0,0,1,6.19,11.11v13H99.77v-13a7.19,7.19,0,0,0-3.41-6.09l-9-5.69Z"/><path class="cls-1" d="M0,101.24H126.17v5.93H0Z"/><path class="cls-1" d="M31.48,46.4H40v-19C40,16,49,6.34,60.08,5.94A20.93,20.93,0,0,1,81.74,26.82V53.19c0,11.62-9.55,21.85-20.52,22.08V81.2c14.37-.21,26.45-13,26.45-28V46.44l.41,0h2.46a6.68,6.68,0,0,0,6.68-6.67V33.92a3.49,3.49,0,0,0-3.49-3.49H91.28v9.3a.75.75,0,0,1-.75.74H87.71l0-.41V27.44C87.67,12.72,76,.42,61.62,0A26.85,26.85,0,0,0,34,26.82V40.43l-.42,0H31.48a.74.74,0,0,1-.74-.74v-9.3H27.8a3,3,0,0,0-3,3v6.32A6.67,6.67,0,0,0,31.48,46.4Z"/></svg>