<svg xmlns="http://www.w3.org/2000/svg" id="图层_1" data-name="图层 1" version="1.1" width="19.021" height="18.999"><defs id="defs4"><style id="style2">.cls-1{fill:#5fbf44}</style></defs><path class="cls-1" d="M9.57 18.999a9.66 9.66 0 01-3.19-.56H2.05A1 1 0 011 17.389v-3.75a9.28 9.28 0 01-1-4.14 9.51 9.51 0 013.19-7.08 9.5 9.5 0 0115.79 6.18 9.52 9.52 0 01-2.73 7.6l-.71-.71a8.49 8.49 0 00-5-14.44 8.39 8.39 0 00-6.65 2.11 8.51 8.51 0 00-2.83 6.33 8.24 8.24 0 00.91 3.79v4.11l4.64.08a8.44 8.44 0 006.76-.38l.45.89a9.31 9.31 0 01-4.25 1.02z" id="path8"/><path class="cls-1" id="rect10" d="M4.51 7.439h9v1h-9z"/><path class="cls-1" id="rect12" d="M8.01 10.939h5v1h-5z"/></svg>