<svg id="图层_1" data-name="图层 1" xmlns="http://www.w3.org/2000/svg" viewBox="0 0 113.39 99.48"><defs><style>.cls-1{fill:#5fbf44;}</style></defs><title>未标题-2</title><path class="cls-1" d="M40.87,26.43H41a68.22,68.22,0,0,0,24-4.36A68.07,68.07,0,0,0,87.59,8.14l2.47-2.3A3.17,3.17,0,0,1,92.21,5l7,.07V22h5V5.07A5.07,5.07,0,0,0,99.11,0h-6.9a8.13,8.13,0,0,0-5.55,2.18l-2.47,2.3A63.31,63.31,0,0,1,63.3,17.39a63.28,63.28,0,0,1-22.28,4H35.87V55.1h5Z"/><path class="cls-1" d="M46.14,79.83a10,10,0,0,1-2.59-4.52L40.32,63A6.84,6.84,0,0,0,33.72,58h-13a15.76,15.76,0,0,1,0-31.52h9.87v-5H20.76a20.76,20.76,0,0,0,0,41.52h13a1.82,1.82,0,0,1,1.76,1.37l3.23,12.27a15,15,0,0,0,3.89,6.77l4.22,4.22a1.88,1.88,0,0,1,.56,1.36v5.54H32.22a.66.66,0,0,1-.61-.4l-11-25.41a6.32,6.32,0,0,0-5.8-3.81H13.36v5H14.8a1.32,1.32,0,0,1,1.21.8L27,96.07a5.67,5.67,0,0,0,5.2,3.41H47.8a4.59,4.59,0,0,0,4.58-4.58v-6a6.83,6.83,0,0,0-2-4.89Z"/><rect class="cls-1" x="49.57" y="31.66" width="6.82" height="5"/><path class="cls-1" d="M85,19.9A77,77,0,0,1,65.2,29.33L60.51,30.8,62,35.57l4.69-1.47a82.23,82.23,0,0,0,21-10l2.19-1.46-2.78-4.16Z"/><path class="cls-1" d="M104.18,27.39v-.11h-5l-.05,53.56H92a2.18,2.18,0,0,1-1.57-.68l-1.72-1.87A59.09,59.09,0,0,0,45,58.93H44.7v5H45a54.45,54.45,0,0,1,24.22,5.72A53.87,53.87,0,0,1,85,81.67l1.74,1.88A7.12,7.12,0,0,0,92,85.84h7.11a5,5,0,0,0,5.05-5V61.15a20,20,0,0,0,9-14.38A19.78,19.78,0,0,0,104.18,27.39Zm4.08,18.76a15,15,0,0,1-4.08,8.56V33.78A14.88,14.88,0,0,1,108.26,46.15Z"/></svg>