<svg xmlns="http://www.w3.org/2000/svg" id="图层_1" data-name="图层 1" version="1.1" width="21.79" height="24.238"><defs id="defs4"><style id="style2">.cls-1{fill:#5fbf44;stroke:#5fbf44;stroke-miterlimit:10;stroke-width:.2px}</style></defs><path class="cls-1" d="M9.97 14.108a.87.87 0 00.61.24l.75-.05a.83.83 0 00.56-.25l3.05-3.1a2.1 2.1 0 00.43 0 2 2 0 001.96-1.32c.14.12.3.28.48.47l.32-.3-.32.3a6.77 6.77 0 011.37 6.66 8.93 8.93 0 01-2 3l.57.65a9.78 9.78 0 002.21-3.39 7.6 7.6 0 00-1.6-7.51 6.58 6.58 0 00-1-.92 2 2 0 10-3.24 2l-2.83 2.88h-.75l-2.27-2.26.06-.73 6.51-6.64a.09.09 0 01.07 0l.63-.06a.11.11 0 01.08 0l2.25 2.22a.11.11 0 010 .08v.66a.09.09 0 010 .07l-.4.41.62.61.4-.42a.92.92 0 00.28-.62v-.67a1 1 0 00-.28-.74l-.18-.17 1.14-1.2-.63-.6-1.14 1.22-.74-.74 1.24-1.21-.61-.62-1.25 1.19-.09-.08a.92.92 0 00-.77-.28l-.63.06a1 1 0 00-.65.28l-6.47 6.65a.88.88 0 00-.25.53v.73a.87.87 0 00.25.68zm5.44-6.3a1.16 1.16 0 11-1.16 1.16 1.16 1.16 0 011.16-1.16z" id="path8"/><path class="cls-1" transform="rotate(-45.51)" id="rect10" d="M11.349 12.641h.87v5.14h-.87z"/><path class="cls-1" id="rect12" d="M.1 23.268h21.59v.87H.1z"/><path class="cls-1" d="M12.45 18.308a1.54 1.54 0 101.53 1.54 1.54 1.54 0 00-1.53-1.54zm0 2.21a.67.67 0 11.67-.67.67.67 0 01-.67.67z" id="path14"/><path class="cls-1" d="M1.89 21.288a.92.92 0 00.68.3h5.92v-.87H2.57l-.11-.09v-.74l.09-.12h6v-.87h-6a.93.93 0 00-.72.35l-.09.11a.9.9 0 00-.21.58v.69a.94.94 0 00.24.62z" id="path16"/><path class="cls-1" d="M17.9 22.158l-2.47-3.35a5.09 5.09 0 001.75-1.92 4.94 4.94 0 00-.47-5.57l-.68.54a4 4 0 01.37 4.64 4 4 0 01-1.47 1.61l-.3-.41a2.55 2.55 0 00-2-1h-.6a2.52 2.52 0 00-2.53 2.53v3.55h.86v-3.59a1.67 1.67 0 01.58-1.27 1.69 1.69 0 011.08-.4h.6a1.67 1.67 0 011.34.69l3.22 4.42z" id="path18"/><path class="cls-1" d="M7.74 14.678a.85.85 0 00.62.26.55.55 0 00.18 0h.13a1 1 0 00.51-.31l.29-.29-.61-.61-.29.29h-.13l-.64-.68v-.13l.25-.25-.61-.62-.26.29a.94.94 0 00-.25.43v.14a.83.83 0 00.21.81z" id="path20"/><path class="cls-1" d="M3.8 17.628l.3-.19h2.59l.32.2v.64h.87v-.76a.67.67 0 00-.32-.57l-.48-.28a.66.66 0 00-.33-.04H4.04a.59.59 0 00-.34.1l-.46.28a.65.65 0 00-.3.55v.76h.86z" id="path22"/></svg>