<svg xmlns="http://www.w3.org/2000/svg" id="图层_1" data-name="图层 1" version="1.1" width="19.245" height="29.823"><defs id="defs4"><style id="style2">.cls-1{fill:none;stroke:#5fbf44;stroke-miterlimit:10;stroke-width:1.2px}</style></defs><path class="cls-1" d="M3.13 19.15H.6v-3.9a3.16 3.16 0 013.37-3.1s3-.37 3-1.92c0 0 .22-.52-.91-1.42a4.11 4.11 0 01-1.09-2.18V3.51S5.16.6 8.65.6" id="path8"/><path class="cls-1" d="M15.47 12.71a3.47 3.47 0 00-2.13-.56s-3-.37-3-1.92c0 0-.22-.52.9-1.42a4.11 4.11 0 001.06-2.13V3.51S12.11.6 8.62.6" id="path10"/><path class="cls-1" d="M10.05 14.76a2.63 2.63 0 012.82 2.39v2.35c0 1.93-1.85 3.5-4.12 3.5-2.28 0-4.12-1.57-4.12-3.5v-2.35a2.63 2.63 0 012.84-2.39" id="path12"/><path class="cls-1" d="M16.71 18.5v7a3.86 3.86 0 01-4 3.72 3.85 3.85 0 01-4-3.72V23" id="path14"/><path class="cls-1" d="M18.64 16.69a1.94 1.94 0 11-1.93-1.81 1.87 1.87 0 011.93 1.81z" id="path16"/></svg>