<svg xmlns="http://www.w3.org/2000/svg" id="图层_1" data-name="图层 1" version="1.1" width="245.81" height="68.988"><defs id="defs4"><style id="style2">.cls-1{fill:#5fbf44}</style></defs><path class="cls-1" d="M44.55 8.045l-5.42.86c-.11-.6-.18-1.15-.32-1.7a3.66 3.66 0 00-2.95-2.89 6.94 6.94 0 00-4 .22 2.61 2.61 0 00-1.84 2.43 2.12 2.12 0 001.72 2.29c1.65.53 3.37.85 5 1.32a36 36 0 014.63 1.44 6.09 6.09 0 014 5.93c0 2.95-1 5.24-3.71 6.61a15.55 15.55 0 01-8.61 1.34 11.15 11.15 0 01-6.26-2.32 7.91 7.91 0 01-2.9-6.34l5.48-.6.13 1a4.42 4.42 0 003.47 4 8.08 8.08 0 004.86-.26 2.93 2.93 0 002-3.28 2.15 2.15 0 00-1.72-1.93c-1.59-.42-3.22-.7-4.8-1.16a32.46 32.46 0 01-5.24-1.82 6.55 6.55 0 01.25-11.75 13.74 13.74 0 0112-.11c2.76 1.24 3.96 3.68 4.23 6.72z" id="path8"/><path class="cls-1" d="M206.09 9.715v-2.08h5v17.75a7 7 0 01-6.56 7.41 13.4 13.4 0 01-6.95-.71 5.39 5.39 0 01-3.47-5.17l4.72-.32c.06.07.11.1.12.14a2.6 2.6 0 002 2.42 4.32 4.32 0 004-.58 4 4 0 001.1-3v-2.67c-.18.2-.31.31-.41.44a5 5 0 01-3.43 2 7.35 7.35 0 01-7.42-3c-2.56-3.53-2.35-9.42.49-12.59a7.19 7.19 0 017.71-2.18c1.05.19 1.64.67 3.1 2.14zm-7.63 6.31c.11 1 .16 1.9.31 2.76a3.44 3.44 0 001.68 2.64 3.63 3.63 0 005.19-1.79 9.41 9.41 0 000-6.83 3.09 3.09 0 00-3.37-2c-1.88.12-2.94.84-3.35 2.46a23.44 23.44 0 00-.46 2.76z" id="path10"/><path class="cls-1" d="M123.43 25.555h-5.06c-.1-.7-.2-1.39-.32-2.17l-.44.48c-2.62 3.17-8.1 2.37-10 .46a5.07 5.07 0 011.43-8.29 38.32 38.32 0 015.64-1.48c1-.24 2-.39 3-.57.23-2.12-.42-3.09-2.24-3.19-2.89-.17-3.69.69-3.82 3.18l-4.8-.34a5.21 5.21 0 012.91-5.43 12.79 12.79 0 019.31-.35 5 5 0 013.61 5.17v7.56c0 1.66-.13 3.34.78 4.97zm-5.75-8.34c-1.83.49-3.62.93-5.38 1.49a1.81 1.81 0 00-.92 1.06 1.83 1.83 0 001.59 2.57c2.44.41 4.34-.68 4.69-2.78a15 15 0 00.02-2.34z" id="path12"/><path class="cls-1" d="M74.37 13.635a5.3 5.3 0 013-5.45 12.84 12.84 0 019.11-.39 5.05 5.05 0 013.75 5.28v6.5c0 2-.26 4 .76 6h-5.08c-.1-.68-.2-1.37-.3-2.09a.46.46 0 00-.16.07 7.38 7.38 0 01-9.52 1.4 5.07 5.07 0 01-2.26-4.81 4.19 4.19 0 012.84-4 52.11 52.11 0 015.71-1.52c1-.25 2.07-.4 3.08-.58.18-2.07-.41-3-2.07-3.16-2.42-.19-3.88.15-4 3.16zm11 3.55c-2 .53-3.78 1-5.55 1.52a1.58 1.58 0 00-1 1.55c-.07 1.28.52 1.92 2 2.15 2 .31 3.9-.7 4.3-2.35a21.94 21.94 0 00.3-2.88z" id="path14"/><path class="cls-1" d="M232.27 17.915h-13.05c-.13 2.95 1.41 4.31 3.4 4.49a4.12 4.12 0 003.05-.56 9 9 0 001.34-1.83c.13-.17.33-.42.48-.41 1.48.09 2.95.24 4.5.37a6.92 6.92 0 01-3.62 4.88 10.55 10.55 0 01-10.65-.42 7.92 7.92 0 01-3.41-5.8 12.75 12.75 0 01.25-5.18 7.84 7.84 0 017.2-6.07 16.75 16.75 0 014 .16 7.24 7.24 0 015.61 4.67 12.83 12.83 0 01.9 5.7zm-5.15-3.53c0-2.44-1.57-3.77-4.3-3.69a3.54 3.54 0 00-3.51 3.69z" id="path16"/><path class="cls-1" d="M182.02 17.925h-13.18a3.86 3.86 0 002.71 4.37c2.61.65 4.29-.21 5.25-2.74l4.8.42a7 7 0 01-3.47 4.83 10.74 10.74 0 01-9.16.46c-3.38-1.29-4.8-4.06-5.12-7.48a12.48 12.48 0 01.45-4.82 8 8 0 017-5.66 11.67 11.67 0 015.29.49c3 1.12 4.5 3.44 5.06 6.46.18 1.15.23 2.38.37 3.67zm-5.25-3.54c-.27-2.62-1.58-3.74-4.1-3.7a3.66 3.66 0 00-3.81 3.7z" id="path18"/><path class="cls-1" d="M131.61 25.555h-5V7.635h4.91v2.32c.1 0 .16 0 .17-.05a4.76 4.76 0 014.23-2.63 11.3 11.3 0 013.68.33 4.87 4.87 0 013.52 4.79c.11 2.59.11 5.18.14 7.77v5.34h-5.08v-.71-10a6.34 6.34 0 00-.52-2.51c-.54-1.18-1.74-1.27-2.87-1.21a2.78 2.78 0 00-2.66 1.89 8.79 8.79 0 00-.52 2.68c-.06 3.06 0 6.12 0 9.19z" id="path20"/><path class="cls-1" d="M146.11 25.535v-3.68c0-.23.26-.48.45-.68l8.45-9.12c.08-.08.14-.17.27-.33h-8.57v-4.09h14.66v3.43c0 .19-.23.4-.39.57q-4.28 4.61-8.57 9.2l-.5.57h10v4.11z" id="path22"/><path class="cls-1" d="M93.08 7.635h2.55v-1.67a14.53 14.53 0 01.07-1.62 4.19 4.19 0 013.48-3.77 11.64 11.64 0 014.63-.13.66.66 0 01.42.47v3.45c-.73 0-1.33-.11-1.92-.11-1.35 0-1.68.34-1.68 1.67v1.71h3.61v4h-3.58v14h-5v-14h-2.58z" id="path24"/><path class="cls-1" d="M49.61 11.635h-2.53v-4h2.53v-5h4.94v5h3.63v4h-3.56v8.24c0 1.15.3 1.48 1.43 1.55h2.16v3.92c0 .11-.25.3-.38.3a23.86 23.86 0 01-4.48-.11c-2.58-.5-3.67-2-3.69-4.67-.02-2.67 0-5.51 0-8.27-.05-.36-.05-.64-.05-.96z" id="path26"/><path class="cls-1" d="M35.58 66.345a1.22 1.22 0 01-.14.33 5.88 5.88 0 01-4.07 2.25c-2.24.2-4.4 0-6.11-1.71a5 5 0 011.43-8.14 37.65 37.65 0 015.68-1.52c1-.24 2-.39 3-.57.25-2-.36-3-2.08-3.18-3-.23-3.82.62-4 3.11a3.42 3.42 0 01-.46 0c-1.27-.09-2.54-.2-3.81-.26-.53 0-.68-.22-.63-.74.27-2.81 1.52-4.44 4.28-5.22a12.82 12.82 0 018.12.15 5.09 5.09 0 013.58 5.13v7.07c0 1.85-.23 3.73.79 5.55h-4.77c-.14 0-.36-.26-.4-.43-.12-.54-.17-1.1-.25-1.65a.46.46 0 00-.16-.17zm0-6.18c-2 .52-3.73.93-5.45 1.48a2 2 0 00-1 1.13 1.83 1.83 0 001.61 2.55c2.07.35 4-.49 4.46-2.06a19.64 19.64 0 00.39-3.1z" id="path28"/><path class="cls-1" d="M55.95 68.505v-10.44a11.09 11.09 0 00-.06-1.43c-.26-2.21-1.66-2.74-3.46-2.6a2.89 2.89 0 00-2.69 2.24 9 9 0 00-.37 2.36v9.86h-5v-17.86h4.9v2.28l.24.18a1 1 0 010-.3c1.38-3.37 8.45-3.62 10.52-.15a7.12 7.12 0 01.91 3.65c.06 4 0 8.1 0 12.2z" id="path30"/><path class="cls-1" d="M61.37 7.635h4.88v2.83c1.31-2.63 3.56-3.4 6.3-3.27v4.44h-1.32c-3.21.22-4.73 1.74-4.83 5-.08 2.66 0 5.32 0 8v.89h-5.03V7.635z" id="path32"/><path class="cls-1" d="M189.96 7.635v17.9h-5v-17.9z" id="path34"/><path class="cls-1" d="M189.94 5.205h-5V.145h5z" id="path36"/><path class="cls-1" d="M141.84 53.745l5.05 7.36 5 7.32h-6.36c-.24 0-.52-.37-.69-.62-2.07-3.1-4.12-6.22-6.18-9.33l-.55-.8c-.66.67-1.31 1.26-1.88 1.93a1.6 1.6 0 00-.19.94v7.84h-5.4v-25.1h5.41v9.43l.28.18a4.7 4.7 0 01.5-.73c2.57-2.79 5.13-5.59 7.74-8.35a1.92 1.92 0 011.24-.55c2-.06 3.9 0 6.11 0-3.47 3.57-6.75 7-10.08 10.48z" id="path38"/><path class="cls-1" d="M84.5 68.355v-1.88h-.2a7 7 0 01-11.41-1.28 11.39 11.39 0 010-11.57c2.32-4.26 8.79-4.74 11.32-1.52 0 0 .1 0 .25.07v-8.85h5v25c-1.59.03-3.22.03-4.96.03zm-7.64-9c.09.9.13 1.82.28 2.72a3.42 3.42 0 001.62 2.73 3.7 3.7 0 005.35-2 10.58 10.58 0 000-6.94 3.62 3.62 0 00-6.92.75c-.18.92-.24 1.84-.33 2.77z" id="path40"/><path class="cls-1" d="M170.13 68.425h-4.34c-.7 0-.92-.26-.95-.88 0-.39-.09-.78-.16-1.32a6.66 6.66 0 01-3.94 2.45 8.28 8.28 0 01-5.19-.62 5 5 0 01-2.84-4.67 4.21 4.21 0 012.82-4.48c2.12-.74 4.35-1.17 6.53-1.71.74-.18 1.49-.29 2.22-.42.3-1.93-.24-2.86-1.78-3.16-2.56-.49-3.68.3-4.33 3.12-.77 0-1.56-.07-2.34-.13-.78-.06-1.57-.14-2.34-.21a5.11 5.11 0 012.82-5.39 12.57 12.57 0 019.9-.17 4.78 4.78 0 013.07 4.69v7.61c.03 1.78-.11 3.5.85 5.29zm-5.67-8.3c-.5.1-.83.15-1.15.23-1.39.35-2.78.66-4.15 1.08a1.78 1.78 0 00-1.26 1.64 1.81 1.81 0 00.85 1.8 3.87 3.87 0 005.56-2.44 22.22 22.22 0 00.15-2.31z" id="path42"/><path class="cls-1" d="M237.84 60.735h-13.18c-.12 2.39 1 4.07 2.92 4.4 2.78.46 4.31-.27 5.08-2.75l4.78.42a6.89 6.89 0 01-3.59 4.9 10.78 10.78 0 01-9.23.33c-3.36-1.38-4.72-4.2-5-7.62-.2-2.77.13-5.49 2.16-7.61a8.41 8.41 0 012.8-2 10 10 0 019.48.67 8.07 8.07 0 013.44 5.92c.2 1.06.23 2.13.34 3.34zm-5.29-3.54c0-2.53-1.6-3.8-4.42-3.67a3.45 3.45 0 00-3.35 3.67z" id="path44"/><path class="cls-1" d="M119.93 60.735h-13.18c-.17 2.34.94 4.07 2.91 4.4 2.76.46 4.31-.28 5.08-2.75l4.79.41a6.9 6.9 0 01-3.57 4.89 10.88 10.88 0 01-9 .46 7.42 7.42 0 01-4.9-5.73c-.76-3.61-.63-7.09 2.12-10a7.73 7.73 0 012.32-1.59 10.32 10.32 0 018.12-.2c3.26 1.23 4.59 3.93 5 7.18.2.95.22 1.83.31 2.93zm-5.25-3.54c-.23-2.66-1.6-3.8-4.37-3.66a3.46 3.46 0 00-3.48 3.66z" id="path46"/><path class="cls-1" d="M173.37 50.455h4.9v2.18a5.61 5.61 0 013.74-2.46c3-.5 5.49.09 7 2.24a6.36 6.36 0 011 3.67c.06 4.07 0 8.13 0 12.27h-5.08v-10.3-1.28a2.77 2.77 0 00-2.12-2.84c-1.91-.32-3.44.39-4 2a9 9 0 00-.47 2.68c-.05 3.24 0 6.48 0 9.78h-4.97v-17.94z" id="path48"/><path class="cls-1" d="M198.61 64.285h10v4.09H192.8v-3.64c0-.28.32-.57.54-.81l8.62-9.38h-8.55v-4.08h14.66v3.43c0 .28-.35.55-.57.8l-8.38 9a6.09 6.09 0 00-.51.59z" id="path50"/><path class="cls-1" d="M211.55 43.285h4.91v25.08h-4.91z" id="path52"/><path class="cls-1" d="M93.65 50.455h4.89v17.91h-4.89z" id="path54"/><path class="cls-1" d="M240.89 50.455h4.89v17.91h-4.89z" id="path56"/><path class="cls-1" d="M245.81 42.925v5.06h-4.94v-5.06z" id="path58"/><path class="cls-1" d="M98.58 42.935v5.06h-4.94v-5.06z" id="path60"/><path class="cls-1" d="M11.07 14.215H1.82a1.34 1.34 0 01-1-.41l-.42-.42a1.32 1.32 0 01-.4-.94v-8.23h1v8.23a.37.37 0 00.1.24l.43.43a.31.31 0 00.24.1h9.25v1z" id="path62"/><path class="cls-1" id="polygon64" transform="translate(-19.63 -19.365)" d="M29.98 33.07l-3.89-3.83.7-.71 4.63 4.56-4.64 4.34-.68-.73z"/></svg>