<svg id="图层_1" data-name="图层 1" xmlns="http://www.w3.org/2000/svg" viewBox="0 0 34.44 22.27"><defs><style>.cls-1{fill:#5fbf44;}</style></defs><title>未标题-2</title><path class="cls-1" d="M16.45,9.66A4.87,4.87,0,0,0,18.19.08,5.12,5.12,0,0,0,17.32,0a4.87,4.87,0,0,0-4,7.64A4.82,4.82,0,0,0,16.45,9.66Zm-2-5.31a2.94,2.94,0,0,1,2.89-2.41,3,3,0,0,1,.52,0,2.94,2.94,0,0,1,2.37,3.41A2.9,2.9,0,0,1,19,7.28a2.85,2.85,0,0,1-1.66.53,3.07,3.07,0,0,1-.53,0,2.95,2.95,0,0,1-2.37-3.41Z"/><path class="cls-1" d="M24.43,13.78a5.06,5.06,0,0,0-3.69-1.61H13.47a5,5,0,0,0-3.62,1.54L7.66,16a5,5,0,0,0-1.4,3.48v2.81H8.2V19.46a3,3,0,0,1,.86-2.13l2.19-2.28a3.07,3.07,0,0,1,2.22-.94h7.27a3.07,3.07,0,0,1,2.26,1l2.07,2.23a3.05,3.05,0,0,1,.82,2.09v2.85h1.93V19.42A5,5,0,0,0,26.49,16Z"/><path class="cls-1" d="M6.48,10.55a4.23,4.23,0,0,0,.63,0,3.51,3.51,0,0,0,.62-7,3.36,3.36,0,0,0-.63-.06,3.51,3.51,0,0,0-.62,7ZM5.54,6.81a1.56,1.56,0,0,1,.66-1,1.61,1.61,0,0,1,1.19-.26,1.62,1.62,0,0,1,1,.66A1.62,1.62,0,0,1,8,8.41a1.62,1.62,0,0,1-.9.28l-.29,0a1.76,1.76,0,0,1-.54-.2A1.65,1.65,0,0,1,5.79,8,1.57,1.57,0,0,1,5.54,6.81Z"/><path class="cls-1" d="M8.65,12.2H5a3.6,3.6,0,0,0-2.6,1.11L1,14.79a3.61,3.61,0,0,0-1,2.5v2H1.91v-2a1.67,1.67,0,0,1,.48-1.17l1.43-1.49A1.7,1.7,0,0,1,5,14.11H7.55l1.86-1.79A2.46,2.46,0,0,0,8.65,12.2Z"/><path class="cls-1" d="M27.33,10.6a4.34,4.34,0,0,0,.63,0,3.51,3.51,0,0,0-.63-7,3.26,3.26,0,0,0-.62.06,3.51,3.51,0,0,0,.62,7ZM26,6.18a1.6,1.6,0,0,1,2.22-.4A1.61,1.61,0,0,1,28.65,8a1.58,1.58,0,0,1-1,.66,1.43,1.43,0,0,1-.29,0,1.6,1.6,0,0,1-1.57-1.31A1.65,1.65,0,0,1,26,6.18Z"/><path class="cls-1" d="M32,13.31a3.62,3.62,0,0,0-2.6-1.11H25.79a2.29,2.29,0,0,0-.91.19l1.75,1.72H29.4a1.7,1.7,0,0,1,1.22.52l1.43,1.49a1.66,1.66,0,0,1,.47,1.17v2h1.92v-2a3.61,3.61,0,0,0-1-2.5Z"/></svg>