<svg xmlns="http://www.w3.org/2000/svg" id="图层_1" data-name="图层 1" version="1.1" width="19.29" height="19.45"><defs id="defs4"><style id="style2">.cls-1{fill:#5fbf44}</style></defs><path class="cls-1" d="M15.77 19.45h-1a11 11 0 01-4.39-1l.38-.92a10.15 10.15 0 004 .87h1a2 2 0 001.36-.53l.76-.76a1.29 1.29 0 00.37-.91v-1.53a.58.58 0 00-.36-.53l-3.66-1.46a.56.56 0 00-.62.13l-1 1a1.6 1.6 0 01-1.58.4 8.7 8.7 0 01-6.06-5.5 1.67 1.67 0 01.32-1.85l1-1a.57.57 0 00.16-.55l-1-3.88A.6.6 0 004.88 1H3.2a.59.59 0 00-.4.16L1.12 2.81a.57.57 0 00-.18.43v.83a14.33 14.33 0 008.18 12.75l-.34.95-.16-.09A15.29 15.29 0 010 4.07v-.83a1.59 1.59 0 01.48-1.16L2.12.45A1.54 1.54 0 013.22 0h1.7a1.59 1.59 0 011.53 1.18l1 3.89a1.54 1.54 0 01-.44 1.53l-1 1a.69.69 0 00-.08.75 7.68 7.68 0 005.4 4.92.62.62 0 00.6-.14l1-1a1.56 1.56 0 011.7-.35l3.66 1.46a1.58 1.58 0 011 1.46v1.53a2.26 2.26 0 01-.67 1.61l-.76.76a2.91 2.91 0 01-2.09.85z" id="path8"/><path class="cls-1" d="M13.5 10.51h-1a3.59 3.59 0 00-.88-2.85 4.1 4.1 0 00-2.79-1l-.07-1a5 5 0 013.55 1.24 4.51 4.51 0 011.19 3.61z" id="path10"/><path class="cls-1" d="M15.97 10.31h-1a5.63 5.63 0 00-1.57-4.4 6.6 6.6 0 00-4.53-1.46l-.08-1a7.51 7.51 0 015.33 1.71 6.61 6.61 0 011.85 5.15z" id="path12"/><path class="cls-1" d="M18.48 10.45h-1c0-2.75-.75-4.87-2.29-6.29A9.24 9.24 0 008.87 2.1l-.08-1a10.16 10.16 0 017.08 2.35c1.75 1.59 2.63 4 2.61 7z" id="path14"/></svg>