<svg xmlns="http://www.w3.org/2000/svg" id="图层_1" data-name="图层 1" version="1.1" width="21.546" height="22.56"><defs id="defs4"><style id="style2">.cls-1{fill:none;stroke:#5fbf44;stroke-miterlimit:10;stroke-width:1.25px}.cls-2{fill:#5fbf44}</style></defs><circle class="cls-1" cx="10.888" cy="11.275" r="6.56" id="circle8"/><path class="cls-1" id="line10" d="M8.878.625h4.02"/><path class="cls-1" id="line12" d="M10.888.625v4.09"/><path class="cls-1" id="line14" d="M18.788 4.065l2.24 3.33"/><path class="cls-1" id="line16" d="M19.908 5.735l-3.4 2.28"/><path class="cls-1" id="line18" d="M2.768 4.065l-2.25 3.33"/><path class="cls-1" id="line20" d="M1.638 5.735l3.4 2.28"/><path class="cls-1" id="line22" d="M8.878 21.935h4.02"/><path class="cls-1" id="line24" d="M10.888 21.935v-4.09"/><path class="cls-1" id="line26" d="M18.788 18.485l2.24-3.33"/><path class="cls-1" id="line28" d="M19.908 16.825l-3.4-2.29"/><path class="cls-1" id="line30" d="M2.768 18.485l-2.25-3.33"/><path class="cls-1" id="line32" d="M1.638 16.825l3.4-2.29"/><path class="cls-1" id="line34" d="M5.038 4.265l2.62-1.73"/><path class="cls-1" id="line36" d="M6.348 3.405l1.31 2.16"/><path class="cls-1" id="line38" d="M16.648 4.265l-2.62-1.73"/><path class="cls-1" id="line40" d="M15.338 3.405l-1.31 2.16"/><path class="cls-1" id="line42" d="M16.858 18.275l-2.62 1.73"/><path class="cls-1" id="line44" d="M15.548 19.135l-1.31-2.16"/><path class="cls-1" id="line46" d="M4.768 18.065l2.62 1.72"/><path class="cls-1" id="line48" d="M6.078 18.925l1.31-2.16"/><path class="cls-1" id="line50" d="M19.808 9.535v3.03"/><path class="cls-1" id="line52" d="M19.808 11.055h-2.36"/><path class="cls-1" id="line54" d="M1.968 9.535v3.03"/><path class="cls-1" id="line56" d="M1.968 11.055h2.36"/><circle class="cls-2" cx="8.588" cy="7.865" r=".55" id="circle58"/><circle class="cls-2" cx="11.498" cy="11.415" r=".55" id="circle60"/><circle class="cls-2" cx="14.028" cy="9.275" r=".55" id="circle62"/><circle class="cls-2" cx="7.288" cy="11.605" r=".55" id="circle64"/><circle class="cls-2" cx="13.568" cy="13.445" r=".55" id="circle66"/><circle class="cls-2" cx="9.758" cy="15.155" r=".55" id="circle68"/></svg>