<svg xmlns="http://www.w3.org/2000/svg" id="图层_1" data-name="图层 1" version="1.1" width="21.905" height="14.62"><defs id="defs4"><style id="style2">.cls-1{fill:#5eb548}</style></defs><path class="cls-1" d="M21.34.51A2.17 2.17 0 0019.92 0h-4.3v1h4.3a1.2 1.2 0 01.75.26.66.66 0 01.13.93l-3.74 4.92a5.23 5.23 0 01-4.21 1.94h-1.84v1h1.84a6.29 6.29 0 005-2.35l3.69-4.88a1.69 1.69 0 00-.2-2.31z" id="path8"/><path class="cls-1" d="M13.34 1.45c.18-.13.19-.13.36-.27.51-.39.35-1.11-.24-1.11H7.34C3.34.07 0 2.91 0 6.39v6.11a1.84 1.84 0 001.93 1.71 1.86 1.86 0 001.91-1.51v-.25a2.44 2.44 0 002.64 1l1.41-.85a1 1 0 01.56-.16h.09a.72.72 0 01.72.72v1.44h1v-1.3a1.88 1.88 0 00-1.68-1.9 2.17 2.17 0 00-1.24.27l-1.26.78a1.49 1.49 0 01-1.52-.77h1.1c2.74 0 5-1.93 5-4.31v-.92a6.43 6.43 0 01.46-2.52 5.25 5.25 0 011.71-2zm-1.62-.34a.18.18 0 01.12.34 6.9 6.9 0 00-2.25 5v.95c0 1.81-1.76 3.27-3.93 3.27H4.34a1.41 1.41 0 00-1.45 1.17l-.1.77a.83.83 0 01-.88.61c-.49 0-.89-.3-.89-.67v-6.1c0-2.91 2.83-5.28 6.3-5.28z" id="path10"/><path class="cls-1" d="M10.98 12.62v2h1v-2a.45.45 0 01.44-.45h.62v-1h-.62a1.49 1.49 0 00-1.44 1.45z" id="path12"/></svg>