<svg xmlns="http://www.w3.org/2000/svg" id="图层_1" data-name="图层 1" version="1.1" width="152.79" height="13.88"><defs id="defs4"><style id="style2">.cls-1{fill:#5fbf44}</style></defs><path class="cls-1" d="M0 .23h2.43l1.44 8.11C4.51 5.67 5.15 2.97 5.79.23h2.45l2 8.05c.46-2.61.92-5.32 1.39-8h2.38c-.85 3.53-1.69 7.08-2.5 10.69H9.16c-.15 0-.23 0-.27-.2-.6-2.65-1.22-5.29-1.84-7.94 0 0 0-.05 0 0-.65 2.64-1.29 5.37-1.93 8.14H2.51C1.7 7.37.85 3.82 0 .23z" id="path8"/><path class="cls-1" d="M35.89 3.15H38v.92a2.32 2.32 0 012.31-1.1 2.13 2.13 0 012.07 1.45c.09-.13.15-.25.23-.35a2.59 2.59 0 012.43-1.1 4 4 0 011 .16 2.32 2.32 0 011.61 2 5.82 5.82 0 01.07.73v4.91h-2.21V6.41v-.73a1.19 1.19 0 00-1.55-1.05 1.21 1.21 0 00-1 1 3.83 3.83 0 00-.13 1v4.17h-2.14v-.33-4.61a1.66 1.66 0 00-.21-.76 1.17 1.17 0 00-1.28-.49 1.12 1.12 0 00-1 .84 5.17 5.17 0 00-.17 1.17v4.16h-2.14z" id="path10"/><path class="cls-1" d="M49.36 3.15h2.15v.94l.1-.12a2.82 2.82 0 013.15-.86 3.29 3.29 0 012.2 2.63 5.25 5.25 0 01-.26 3.23 3 3 0 01-2.26 1.92 2.89 2.89 0 01-2.8-.86l-.13-.06v3.91h-2.15zm5.42 3.91c0-.41 0-.72-.08-1a1.72 1.72 0 00-.56-1.25 1.63 1.63 0 00-2.55.89 5.41 5.41 0 000 2.53 1.6 1.6 0 00.53.94 1.58 1.58 0 002.5-.89c.09-.44.12-.88.16-1.22z" id="path12"/><path class="cls-1" d="M79.56 10.79h-2.14v-4.6a2.07 2.07 0 00-.22-1.06 1.25 1.25 0 00-1.28-.52 1.23 1.23 0 00-1.12.82 3.33 3.33 0 00-.2 1.08V10.77h-2.09V.09h2.1v4.07h.08a2.32 2.32 0 012.19-1.19 4 4 0 01.68 0 2.2 2.2 0 012 2.25v4.07c.01.52 0 1 0 1.5z" id="path14"/><path class="cls-1" d="M34.63 7.53h-5.64a1.63 1.63 0 001.11 1.85 2.36 2.36 0 001.41-.06 1.37 1.37 0 00.83-1.1l2.07.19a3 3 0 01-1.54 2.08 4.62 4.62 0 01-3.73.22 3.36 3.36 0 01-2.25-2.85 5.93 5.93 0 01.08-2.22 3.42 3.42 0 013.08-2.67 4.69 4.69 0 012.23.21 3.27 3.27 0 012.13 2.61c.1.58.1 1.18.22 1.74zm-2.25-1.49a1.48 1.48 0 00-.68-1.34 1.91 1.91 0 00-2 0 1.67 1.67 0 00-.69 1.31z" id="path16"/><path class="cls-1" d="M92.26 8.41a2.93 2.93 0 01-1.44 2 4.44 4.44 0 01-4.63-.14 3.28 3.28 0 01-1.44-2.39 5.46 5.46 0 01.11-2.41 3.29 3.29 0 012.54-2.4 4.55 4.55 0 012.8.16 3.26 3.26 0 012 2.58c.11.54.14 1.1.21 1.68h-5.58a1.61 1.61 0 001.05 1.85c.89.22 2 .18 2.32-1.14zm-2.08-2.38a1.48 1.48 0 00-1.56-1.59 1.6 1.6 0 00-1.8 1.59z" id="path18"/><path class="cls-1" d="M68.96 8.22l2 .19a3.42 3.42 0 01-.74 1.56 3.12 3.12 0 01-1.59.89 4.93 4.93 0 01-2.72 0 3.41 3.41 0 01-2.4-3.03 5.35 5.35 0 01.12-2.32 3.29 3.29 0 012.55-2.42 4.52 4.52 0 012.31 0A3.29 3.29 0 0171 5.78a5.53 5.53 0 01.15 1.73h-5.58a1.67 1.67 0 001.07 1.85 1.7 1.7 0 002.32-1.14zm0-2.18a1.68 1.68 0 00-3.35 0z" id="path20"/><path class="cls-1" d="M100.79 10.79h-2.15V6.28a5.49 5.49 0 00-.06-.8 1.1 1.1 0 00-.82-.84 1.48 1.48 0 00-1.9 1.49v4.63H93.7V3.15h2.11v1h.07a2.31 2.31 0 012.46-1.18 3.33 3.33 0 011 .18 2.25 2.25 0 011.45 2.25v5.26a1 1 0 010 .13z" id="path22"/><path class="cls-1" d="M62.67 1.72h-1.06c-.34 0-.41.16-.43.46-.02.3 0 .62 0 1h1.55v1.67h-1.54v6h-2.15V4.84h-1.1v-1.7h1.09v-1a2 2 0 01.71-1.68A2.53 2.53 0 0161.11 0h1.56z" id="path24"/><path class="cls-1" d="M81.23.08h2.11v10.7h-2.11z" id="path26"/><path class="cls-1" d="M23.71 4.97a8.77 8.77 0 00-1.24.15 1.76 1.76 0 00-1.36 1.85c-.05 1.18 0 2.37 0 3.55v.45h-2.17V3.31h2.1v1.25a2.45 2.45 0 012.67-1.43z" id="path28"/><path class="cls-1" d="M15.08 3.3h2.12v7.67h-2.12z" id="path30"/><path class="cls-1" d="M135.6 3.69l-2.28.36c0-.24-.07-.45-.11-.65a1.6 1.6 0 00-1.38-1.33 3 3 0 00-1.65.15 1.09 1.09 0 00-.71.89.83.83 0 00.48 1 16.78 16.78 0 001.7.54l2.4.63a2.83 2.83 0 01.36.16 2.61 2.61 0 011.54 2.1 2.92 2.92 0 01-1.87 3.36 4.73 4.73 0 01-1 .3 7.28 7.28 0 01-3.62-.11 3.51 3.51 0 01-2.45-2.21 10.4 10.4 0 01-.26-1.24l2.39-.27a3.39 3.39 0 00.05.47 2 2 0 001.91 1.73 3.57 3.57 0 001.65-.2 1.25 1.25 0 00.85-1.24.89.89 0 00-.64-.93c-.58-.18-1.17-.31-1.77-.45a10.3 10.3 0 01-2.49-.78 2.68 2.68 0 01-1.57-2A2.82 2.82 0 01128.56.9a5.32 5.32 0 012.79-.65 5.57 5.57 0 012.34.47 3.3 3.3 0 011.91 2.85v.07z" id="path32"/><path class="cls-1" d="M148.51 7.89h-5.59a1.64 1.64 0 001.1 1.84 2.33 2.33 0 001.43 0 1.4 1.4 0 00.86-1.1l.64.05 1.43.13a2.93 2.93 0 01-1.44 2 4.45 4.45 0 01-4.66-.15 3.3 3.3 0 01-1.42-2.4 5.3 5.3 0 01.1-2.31 3.3 3.3 0 012.55-2.5 4.6 4.6 0 012.33 0 3.1 3.1 0 011.87 1.27 5.29 5.29 0 01.8 3.17zM146.3 6.4a1.5 1.5 0 00-1.64-1.6 1.57 1.57 0 00-1.71 1.6z" id="path34"/><path class="cls-1" d="M137.35 3.51h2.16v7.63h-2.11z" id="path36"/><path class="cls-1" d="M139.51.3v2.17h-2.11V.3z" id="path38"/><path class="cls-1" d="M17.19 2.27h-2.11V.09h2.11z" id="path40"/><path class="cls-1" d="M110.19 3.55h2.19v4.29a6.24 6.24 0 00.07 1 1.08 1.08 0 001 .91 1.39 1.39 0 001.66-1.25 6.34 6.34 0 00.07-.75V3.57h2.09v7.63h-2.07v-1a.59.59 0 00-.09.13 2.24 2.24 0 01-2.24 1 3.17 3.17 0 01-1.06-.21 2.27 2.27 0 01-1.54-2.06 12.4 12.4 0 01-.08-1.36V3.82z" id="path42"/><path class="cls-1" d="M107.6 5.23v6h-2.09V5.24h-1.08V3.55h1.08v-.72a6.13 6.13 0 01.1-1 1.74 1.74 0 011.68-1.38 11 11 0 011.72 0c.06 0 .17.07.17.11v1.53h-1.07c-.33 0-.43.14-.45.44-.02.3 0 .63 0 1h1.54v1.69z" id="path44"/><path class="cls-1" d="M119.02 3.55h2.09v1.21l.05.05a2.42 2.42 0 012.63-1.44v1.88a8.14 8.14 0 00-1 .07 1.81 1.81 0 00-1.59 1.87c-.05 1.08 0 2.17 0 3.26v.74h-2.13z" id="path46"/><path class="cls-1" d="M114.29 2.52v-2h1.93v2z" id="path48"/><path class="cls-1" d="M111.34.54h1.93v2h-1.93z" id="path50"/><path class="cls-1" d="M150.51 4.2h2.28v2.35a.45.45 0 01-.11 0h-2c-.06 0-.17-.08-.17-.13V4.2z" id="path52"/><path class="cls-1" d="M152.77 11.21h-2.26v-.16-2c0-.07.08-.19.13-.19h2.14z" id="path54"/></svg>